<?xml version="1.0" encoding="UTF-8"?>
<svg version="1.1" xmlns="http://www.w3.org/2000/svg" width="286" height="174">
<path d="M0 0 C1.20970459 0.00523682 2.41940918 0.01047363 3.66577148 0.01586914 C4.97094727 0.0190918 6.27612305 0.02231445 7.62084961 0.02563477 C9.00952213 0.03399138 10.39819401 0.04245634 11.78686523 0.05102539 C13.17944179 0.05603873 14.57202005 0.06060193 15.96459961 0.06469727 C19.38456394 0.07653105 22.80444367 0.09301659 26.22436523 0.11352539 C26.85521598 1.36841098 27.48526631 2.62369897 28.11499023 3.87915039 C28.4659375 4.57814453 28.81688477 5.27713867 29.1784668 5.99731445 C33.22436523 14.1835534 33.22436523 14.1835534 33.22436523 19.11352539 C33.88436523 19.44352539 34.54436523 19.77352539 35.22436523 20.11352539 C36.01464844 21.76489258 36.01464844 21.76489258 36.77514648 23.91040039 C37.0593042 24.69890381 37.34346191 25.48740723 37.63623047 26.29980469 C38.08204468 27.56884644 38.08204468 27.56884644 38.53686523 28.86352539 C39.15849672 30.59426886 39.78089679 32.32473647 40.40405273 34.05493164 C40.71052734 34.91103027 41.01700195 35.76712891 41.33276367 36.64916992 C43.2098238 41.83729833 45.22763444 46.97043093 47.22436523 52.11352539 C54.15436523 52.60852539 54.15436523 52.60852539 61.22436523 53.11352539 C61.22436523 64.66352539 61.22436523 76.21352539 61.22436523 88.11352539 C68.15436523 88.11352539 75.08436523 88.11352539 82.22436523 88.11352539 C82.22436523 95.04352539 82.22436523 101.97352539 82.22436523 109.11352539 C77.60436523 109.11352539 72.98436523 109.11352539 68.22436523 109.11352539 C63.9875529 100.06179361 60.28924401 90.85730764 56.66186523 81.55102539 C56.09248597 80.09583682 55.52282591 78.64075808 54.95288086 77.18579102 C54.67537994 76.47621246 54.39787903 75.76663391 54.11196899 75.03555298 C53.56477074 73.64055499 53.01483706 72.24662651 52.46200562 70.85385132 C51.28571819 67.8827283 50.16125061 64.92572022 49.14282227 61.89526367 C48.83070801 60.9888916 48.51859375 60.08251953 48.19702148 59.14868164 C47.95346924 58.38048096 47.70991699 57.61228027 47.45898438 56.82080078 C45.97667087 54.34975544 45.97667087 54.34975544 40.22436523 54.11352539 C40.22436523 71.93352539 40.22436523 89.75352539 40.22436523 108.11352539 C37.76157722 109.3449194 35.94485973 109.18511735 33.22436523 109.11352539 C30.3026484 103.71958662 28.1120313 98.23306535 26.01245117 92.47290039 C23.1639666 84.76975929 20.0010274 77.19609033 16.84936523 69.61352539 C16.57261963 68.94753326 16.29587402 68.28154114 16.01074219 67.59536743 C14.41884722 63.76659574 12.82314571 59.93942801 11.22436523 56.11352539 C6.33812164 67.04920932 6.33812164 67.04920932 1.91186523 78.17602539 C-1.89980289 88.32330405 -6.409687 98.19576982 -10.77563477 108.11352539 C-15.31692276 108.31107007 -19.85866879 108.49479424 -24.40063477 108.67602539 C-26.32842773 108.76013672 -26.32842773 108.76013672 -28.29516602 108.84594727 C-30.16108398 108.91845703 -30.16108398 108.91845703 -32.06469727 108.99243164 C-33.77713623 109.06312866 -33.77713623 109.06312866 -35.52416992 109.13525391 C-38.72297663 109.11387729 -41.6417978 108.72991584 -44.77563477 108.11352539 C-44.20371386 103.98247917 -43.26666542 100.44917283 -41.65844727 96.60571289 C-41.22209961 95.55134033 -40.78575195 94.49696777 -40.33618164 93.41064453 C-39.86245117 92.28134521 -39.3887207 91.1520459 -38.90063477 89.98852539 C-37.89131079 87.54772737 -36.88331871 85.10642222 -35.87719727 82.66430664 C-35.61896179 82.0389653 -35.36072632 81.41362396 -35.09466553 80.76933289 C-32.41466959 74.26715128 -29.83721668 67.7256823 -27.27563477 61.17602539 C-26.60056885 59.45125977 -26.60056885 59.45125977 -25.91186523 57.69165039 C-24.99686068 55.35247237 -24.08231112 53.01311632 -23.16821289 50.67358398 C-20.33665353 43.43483949 -17.4870565 36.2031656 -14.64135742 28.9699707 C-12.60225292 23.78208532 -10.5696064 18.59207668 -8.56469727 13.39086914 C-8.23695312 12.54153809 -7.90920898 11.69220703 -7.5715332 10.81713867 C-6.97601244 9.27086869 -6.38275737 7.72372338 -5.79223633 6.17553711 C-3.46900923 0.14188489 -3.46900923 0.14188489 0 0 Z " fill="#09407B" transform="translate(44.775634765625,12.886474609375)"/>
<path d="M0 0 C7.8890625 -0.0928125 7.8890625 -0.0928125 15.9375 -0.1875 C17.578396 -0.21481201 19.21929199 -0.24212402 20.90991211 -0.27026367 C37.84533922 -0.36657595 37.84533922 -0.36657595 44.12109375 4.71875 C44.55550781 5.3065625 44.98992187 5.894375 45.4375 6.5 C46.11619141 7.38171875 46.11619141 7.38171875 46.80859375 8.28125 C49.05131302 11.51664829 50.25066472 13.26432395 50.22705078 17.19604492 C50.22689972 18.03668991 50.22674866 18.8773349 50.22659302 19.74345398 C50.21627045 20.64666885 50.20594788 21.54988373 50.1953125 22.48046875 C50.1924826 23.40845779 50.18965271 24.33644684 50.18673706 25.29255676 C50.17553836 28.25766879 50.15043435 31.22247921 50.125 34.1875 C50.1149698 36.19726126 50.10584402 38.20702726 50.09765625 40.21679688 C50.07560004 45.14464753 50.04107229 50.07227262 50 55 C46.52125243 55.19590444 43.04199096 55.38031592 39.5625 55.5625 C38.56927734 55.61857422 37.57605469 55.67464844 36.55273438 55.73242188 C35.60849609 55.78076172 34.66425781 55.82910156 33.69140625 55.87890625 C32.81685791 55.9260376 31.94230957 55.97316895 31.04125977 56.02172852 C29 56 29 56 28 55 C27.77486899 53.66197814 27.60639193 52.31426977 27.46484375 50.96484375 C27.37783203 50.15595703 27.29082031 49.34707031 27.20117188 48.51367188 C27.11416016 47.66353516 27.02714844 46.81339844 26.9375 45.9375 C26.84662109 45.08349609 26.75574219 44.22949219 26.66210938 43.34960938 C26.43749278 41.23348465 26.21824773 39.11679106 26 37 C24.68 36.67 23.36 36.34 22 36 C21.67 42.27 21.34 48.54 21 55 C14.07 55 7.14 55 0 55 C0 36.85 0 18.7 0 0 Z M22 15 C21.67 16.65 21.34 18.3 21 20 C22.98 20 24.96 20 27 20 C27 18.68 27 17.36 27 16 C25.35 15.67 23.7 15.34 22 15 Z " fill="#0C427B" transform="translate(236,66)"/>
<path d="M0 0 C7.074375 -0.020625 14.14875 -0.04125 21.4375 -0.0625 C24.79119751 -0.07615601 24.79119751 -0.07615601 28.21264648 -0.09008789 C29.97379496 -0.09300696 31.73494411 -0.09555554 33.49609375 -0.09765625 C34.41942505 -0.10277222 35.34275635 -0.10788818 36.29406738 -0.11315918 C37.16696411 -0.11328003 38.03986084 -0.11340088 38.93920898 -0.11352539 C40.08171364 -0.11685631 40.08171364 -0.11685631 41.24729919 -0.12025452 C43 0 43 0 44 1 C44.07325436 3.6986905 44.09222351 6.36502556 44.0625 9.0625 C44.041875 11.681875 44.02125 14.30125 44 17 C37.07 17 30.14 17 23 17 C23 17.99 23 18.98 23 20 C29.93 20 36.86 20 44 20 C44 25.28 44 30.56 44 36 C37.07 36 30.14 36 23 36 C23 36.99 23 37.98 23 39 C23.90093384 38.94670532 23.90093384 38.94670532 24.82006836 38.89233398 C27.52559686 38.73531319 30.23150757 38.58630203 32.9375 38.4375 C34.35579102 38.35338867 34.35579102 38.35338867 35.80273438 38.26757812 C36.70185547 38.21923828 37.60097656 38.17089844 38.52734375 38.12109375 C39.35999756 38.0739624 40.19265137 38.02683105 41.05053711 37.97827148 C43 38 43 38 44 39 C44.07319621 41.69654854 44.09242537 44.36691458 44.0625 47.0625 C44.05798828 47.82111328 44.05347656 48.57972656 44.04882812 49.36132812 C44.0370068 51.24091871 44.01907078 53.12046899 44 55 C40.69444217 56.65277892 37.01178014 56.14163692 33.37890625 56.1328125 C32.52320541 56.13376923 31.66750458 56.13472595 30.78587341 56.13571167 C28.97435432 56.13639279 27.16283278 56.13454324 25.35131836 56.13037109 C22.57725537 56.12502842 19.80335477 56.13031499 17.02929688 56.13671875 C15.27083298 56.13605783 13.51236918 56.13477637 11.75390625 56.1328125 C10.92258682 56.13483673 10.0912674 56.13686096 9.23475647 56.13894653 C5.90500551 56.12538816 3.18084594 56.06028198 0 55 C0 36.85 0 18.7 0 0 Z " fill="#12477D" transform="translate(185,66)"/>
<path d="M0 0 C0.78375 0.04125 1.5675 0.0825 2.375 0.125 C3.19511312 1.68351755 4.00576213 3.24701716 4.8125 4.8125 C5.26496094 5.68261719 5.71742188 6.55273438 6.18359375 7.44921875 C7.33491928 10.03498264 7.93820753 12.33856528 8.375 15.125 C8.55675781 14.25488281 8.55675781 14.25488281 8.7421875 13.3671875 C9.71235474 8.84471558 10.80897783 4.48749034 12.375 0.125 C14.685 0.125 16.995 0.125 19.375 0.125 C19.375 0.785 19.375 1.445 19.375 2.125 C20.035 2.125 20.695 2.125 21.375 2.125 C23.94756124 7.82937493 25.51353791 12.65162361 25.47265625 18.98828125 C25.46943359 19.87451172 25.46621094 20.76074219 25.46289062 21.67382812 C25.45032227 23.0418457 25.45032227 23.0418457 25.4375 24.4375 C25.43298828 25.36884766 25.42847656 26.30019531 25.42382812 27.25976562 C25.41209234 29.54824373 25.39567363 31.83658808 25.375 34.125 C28.015 33.465 30.655 32.805 33.375 32.125 C33.705 27.175 34.035 22.225 34.375 17.125 C35.86 17.62 35.86 17.62 37.375 18.125 C37.375 18.785 37.375 19.445 37.375 20.125 C38.035 20.125 38.695 20.125 39.375 20.125 C40.365 23.095 40.365 23.095 41.375 26.125 C42.365 26.125 43.355 26.125 44.375 26.125 C46.2999647 27.94693842 47.75035531 30.01735283 49.375 32.125 C45.745 32.785 42.115 33.445 38.375 34.125 C38.375 34.785 38.375 35.445 38.375 36.125 C37.715 36.125 37.055 36.125 36.375 36.125 C36.00375 36.99125 36.00375 36.99125 35.625 37.875 C33.54945909 41.61097363 31.44326056 43.76891315 27.375 45.125 C22.15135786 45.51923714 18.73071347 45.12560261 14.375 42.125 C10.74347812 37.08121961 9.42220897 32.20156782 8.375 26.125 C8.14425781 26.92164062 7.91351563 27.71828125 7.67578125 28.5390625 C5.75539973 34.77840482 4.15427737 39.59081378 -0.625 44.125 C-5.26898011 45.67299337 -9.95017708 45.62094333 -14.625 44.125 C-14.625 43.465 -14.625 42.805 -14.625 42.125 C-15.285 42.125 -15.945 42.125 -16.625 42.125 C-16.625 41.465 -16.625 40.805 -16.625 40.125 C-17.285 40.125 -17.945 40.125 -18.625 40.125 C-18.625 39.465 -18.625 38.805 -18.625 38.125 C-19.285 38.125 -19.945 38.125 -20.625 38.125 C-21.285 37.135 -21.945 36.145 -22.625 35.125 C-25.26547252 34.10747445 -25.26547252 34.10747445 -28.25 33.4375 C-29.75433594 33.06044922 -29.75433594 33.06044922 -31.2890625 32.67578125 C-32.05992187 32.49402344 -32.83078125 32.31226563 -33.625 32.125 C-31.90215795 28.16884419 -30.58100678 27.70740271 -26.625 26.125 C-25.57478897 24.27528304 -25.57478897 24.27528304 -24.625 22.125 C-22.125 19.375 -22.125 19.375 -19.625 17.125 C-18.965 17.125 -18.305 17.125 -17.625 17.125 C-17.65980469 18.48044922 -17.65980469 18.48044922 -17.6953125 19.86328125 C-17.71335938 21.04277344 -17.73140625 22.22226562 -17.75 23.4375 C-17.77320313 24.60925781 -17.79640625 25.78101563 -17.8203125 26.98828125 C-17.87820618 30.28893661 -17.87820618 30.28893661 -15.625 33.125 C-12.05730448 33.86106499 -12.05730448 33.86106499 -8.625 34.125 C-8.64594727 33.43986328 -8.66689453 32.75472656 -8.68847656 32.04882812 C-8.77225399 28.90770478 -8.82385414 25.76681736 -8.875 22.625 C-8.92527344 21.00851563 -8.92527344 21.00851563 -8.9765625 19.359375 C-9.06114153 12.42389415 -8.34523433 8.02226034 -4.625 2.125 C-2.625 0.125 -2.625 0.125 0 0 Z " fill="#058358" transform="translate(198.625,-0.125)"/>
<path d="M0 0 C6.93 0 13.86 0 21 0 C21.33 11.22 21.66 22.44 22 34 C28.93 34.33 35.86 34.66 43 35 C43 41.6 43 48.2 43 55 C38.01960426 55.16652558 33.0393813 55.32916625 28.05859375 55.48217773 C26.36711577 55.53527852 24.67570526 55.59057914 22.984375 55.64819336 C20.54181466 55.73100422 18.09911446 55.8056859 15.65625 55.87890625 C14.53700134 55.91945885 14.53700134 55.91945885 13.3951416 55.96083069 C12.67499878 55.98092697 11.95485596 56.00102325 11.21289062 56.02172852 C10.59111938 56.04171402 9.96934814 56.06169952 9.32873535 56.08229065 C5.86913331 55.9600385 2.43502924 55.42937865 -1 55 C-0.67 36.85 -0.34 18.7 0 0 Z " fill="#0B4078" transform="translate(135,66)"/>
<path d="M0 0 C0 0.66 0 1.32 0 2 C0.928125 2.433125 0.928125 2.433125 1.875 2.875 C4 4 4 4 6 6 C7.36870039 12.10650944 7.09645442 16.49256581 4 22 C1.5 24.8125 1.5 24.8125 -1 27 C-1.4434375 27.5053125 -1.886875 28.010625 -2.34375 28.53125 C-4.44481947 30.39446255 -6.30668038 30.93000386 -9 31.6875 C-9.86625 31.93886719 -10.7325 32.19023437 -11.625 32.44921875 C-14 33 -14 33 -17 33 C-17 33.99 -17 34.98 -17 36 C-13.7 36 -10.4 36 -7 36 C-7 35.34 -7 34.68 -7 34 C-6.01 34 -5.02 34 -4 34 C-4 33.34 -4 32.68 -4 32 C-2.68 32.33 -1.36 32.66 0 33 C-0.33967826 36.17033042 -0.99869191 36.99882607 -3.4375 39.1875 C-9.29097792 43.32776487 -16.08461639 42.57386061 -23 42 C-25.65814571 40.93415261 -27.60336136 39.59775909 -30 38 C-32.16666667 38.66666667 -32.16666667 38.66666667 -34 40 C-36.625 40.3125 -36.625 40.3125 -39 40 C-39.66 39.01 -40.32 38.02 -41 37 C-39 34 -39 34 -36.8359375 33.26953125 C-36.02382812 33.11871094 -35.21171875 32.96789062 -34.375 32.8125 C-33.55773437 32.65394531 -32.74046875 32.49539062 -31.8984375 32.33203125 C-31.27195313 32.22246094 -30.64546875 32.11289063 -30 32 C-29.79176832 29.72669592 -29.79176832 29.72669592 -32 27.5 C-34.89513119 23.24550614 -34.8521782 18.9595236 -34 14 C-31.73592791 7.56047838 -27.2616468 4.3062004 -21.41796875 1.12109375 C-14.87562365 -1.91227143 -6.9223486 -1.73058715 0 0 Z M-17 6 C-22.23285421 11.35454849 -25.0628703 16.88388718 -25.375 24.375 C-25.25125 25.57125 -25.1275 26.7675 -25 28 C-21.1184112 30.58772586 -19.46573523 29.87719799 -15 29 C-14.01 28.67 -13.02 28.34 -12 28 C-12 27.34 -12 26.68 -12 26 C-11.34 26 -10.68 26 -10 26 C-5.25224048 20.31042948 -1.83958973 14.25087223 -2.125 6.6875 C-2.74209779 3.92415758 -2.74209779 3.92415758 -4.8125 2.625 C-10.23711345 1.07511044 -12.77600758 2.72425078 -17 6 Z " fill="#499A84" transform="translate(212,132)"/>
<path d="M0 0 C0 9.24 0 18.48 0 28 C1.32 28.66 2.64 29.32 4 30 C4 30.66 4 31.32 4 32 C-1.61 32 -7.22 32 -13 32 C-13 31.01 -13 30.02 -13 29 C-11.35 28.67 -9.7 28.34 -8 28 C-8.495 25.525 -8.495 25.525 -9 23 C-12.02829521 22.3336431 -14.89398005 21.85456763 -18 22 C-21.08798674 24.25057567 -21.08798674 24.25057567 -23 27 C-22.34 27.45375 -21.68 27.9075 -21 28.375 C-20.34 28.91125 -19.68 29.4475 -19 30 C-19 30.66 -19 31.32 -19 32 C-24.94 32 -30.88 32 -37 32 C-36.67 31.01 -36.34 30.02 -36 29 C-34.35 28.67 -32.7 28.34 -31 28 C-30.67 26.68 -30.34 25.36 -30 24 C-29.01 24 -28.02 24 -27 24 C-27 23.34 -27 22.68 -27 22 C-26.34 22 -25.68 22 -25 22 C-24.731875 21.4225 -24.46375 20.845 -24.1875 20.25 C-22.97070811 17.94449957 -21.69666121 15.97943808 -20 14 C-19.34 14 -18.68 14 -18 14 C-18 13.34 -18 12.68 -18 12 C-17.34 12 -16.68 12 -16 12 C-16 11.34 -16 10.68 -16 10 C-14.125 7.875 -14.125 7.875 -12 6 C-11.34 6 -10.68 6 -10 6 C-10 5.34 -10 4.68 -10 4 C-9.34 4 -8.68 4 -8 4 C-8 3.34 -8 2.68 -8 2 C-7.34 2 -6.68 2 -6 2 C-6 1.34 -6 0.68 -6 0 C-3 -1 -3 -1 0 0 Z M-12.0625 12.875 C-12.61035156 13.40867188 -13.15820312 13.94234375 -13.72265625 14.4921875 C-15.21546173 15.92498142 -15.21546173 15.92498142 -15 18 C-13.00045254 18.04254356 -10.99958364 18.04080783 -9 18 C-7.58422523 16.81575674 -7.58422523 16.81575674 -7.9375 13.4375 C-7.958125 12.303125 -7.97875 11.16875 -8 10 C-9.80746134 10 -10.83874632 11.66571149 -12.0625 12.875 Z " fill="#228A6E" transform="translate(282,132)"/>
<path d="M0 0 C0.01458252 0.83772949 0.02916504 1.67545898 0.04418945 2.53857422 C0.10520707 5.64378902 0.17935065 8.74833117 0.26245117 11.85302734 C0.31209959 13.85882336 0.34654164 15.86497687 0.38085938 17.87109375 C0.41630859 19.12792969 0.45175781 20.38476562 0.48828125 21.6796875 C0.51446533 22.84226074 0.54064941 24.00483398 0.56762695 25.20263672 C0.78165161 26.58733154 0.78165161 26.58733154 1 28 C1.99 28.66 2.98 29.32 4 30 C4 30.66 4 31.32 4 32 C-1.94 32 -7.88 32 -14 32 C-13.67 31.01 -13.34 30.02 -13 29 C-11.35 28.67 -9.7 28.34 -8 28 C-8 26.02 -8 24.04 -8 22 C-12.29 22 -16.58 22 -21 22 C-21 22.66 -21 23.32 -21 24 C-21.66 24 -22.32 24 -23 24 C-23.33 24.99 -23.66 25.98 -24 27 C-23.175 27.45375 -22.35 27.9075 -21.5 28.375 C-20.675 28.91125 -19.85 29.4475 -19 30 C-19 30.66 -19 31.32 -19 32 C-24.61 32 -30.22 32 -36 32 C-35.34 30.68 -34.68 29.36 -34 28 C-32.68 28 -31.36 28 -30 28 C-29.62875 27.195625 -29.62875 27.195625 -29.25 26.375 C-26.79170058 21.7042311 -24.00843635 17.47397817 -20 14 C-19.34 14 -18.68 14 -18 14 C-18 13.34 -18 12.68 -18 12 C-17.34 12 -16.68 12 -16 12 C-16 11.34 -16 10.68 -16 10 C-14.125 7.875 -14.125 7.875 -12 6 C-11.34 6 -10.68 6 -10 6 C-10 5.34 -10 4.68 -10 4 C-9.34 4 -8.68 4 -8 4 C-8 3.34 -8 2.68 -8 2 C-7.34 2 -6.68 2 -6 2 C-6 1.34 -6 0.68 -6 0 C-3.50907189 -1.24546405 -2.58919267 -0.7767578 0 0 Z M-10 10 C-10 10.66 -10 11.32 -10 12 C-10.66 12 -11.32 12 -12 12 C-12 12.66 -12 13.32 -12 14 C-12.66 14 -13.32 14 -14 14 C-14.33 15.32 -14.66 16.64 -15 18 C-13.00045254 18.04254356 -10.99958364 18.04080783 -9 18 C-7.58422523 16.81575674 -7.58422523 16.81575674 -7.9375 13.4375 C-7.958125 12.303125 -7.97875 11.16875 -8 10 C-8.66 10 -9.32 10 -10 10 Z " fill="#5B9B93" transform="translate(170,132)"/>
<path d="M0 0 C4.95 0 9.9 0 15 0 C15 0.99 15 1.98 15 3 C14.01 3.33 13.02 3.66 12 4 C10.88371054 5.58543034 10.88371054 5.58543034 10.02734375 7.5703125 C9.68509766 8.3025 9.34285156 9.0346875 8.99023438 9.7890625 C8.64283203 10.55992187 8.29542969 11.33078125 7.9375 12.125 C7.58623047 12.87265625 7.23496094 13.6203125 6.87304688 14.390625 C4.8123509 18.86260794 3.2209392 23.23011319 2 28 C8.10980236 29.22044325 8.10980236 29.22044325 14 28 C16.20694981 24.00487438 17.82716094 19.71490602 19.5625 15.5 C19.87896484 14.74074219 20.19542969 13.98148438 20.52148438 13.19921875 C20.9768457 12.09513672 20.9768457 12.09513672 21.44140625 10.96875 C21.71670166 10.30294922 21.99199707 9.63714844 22.27563477 8.95117188 C23.00474367 6.98722231 23.53115973 5.04026547 24 3 C23.01 2.67 22.02 2.34 21 2 C21 1.34 21 0.68 21 0 C25.29 0 29.58 0 34 0 C34 0.99 34 1.98 34 3 C33.38503662 3.07259033 32.77007324 3.14518066 32.13647461 3.2199707 C29.84106009 3.80812242 29.84106009 3.80812242 28.79907227 5.94604492 C28.47479248 6.78240479 28.1505127 7.61876465 27.81640625 8.48046875 C27.44580078 9.39763672 27.07519531 10.31480469 26.69335938 11.25976562 C26.32017578 12.22591797 25.94699219 13.19207031 25.5625 14.1875 C19.94495755 28.58919261 19.94495755 28.58919261 13.75 32.375 C8.08785302 33.66185159 2.18677404 33.89849138 -3 31 C-4.8125 29.8125 -4.8125 29.8125 -6 28 C-6.59229258 21.87444778 -4.93564838 17.73229239 -2.4375 12.3125 C-1.75903955 10.83419728 -1.09062768 9.35123082 -0.43359375 7.86328125 C-0.13509521 7.21657471 0.16340332 6.56986816 0.47094727 5.90356445 C1.26387622 3.65736557 1.26387622 3.65736557 0 0 Z " fill="#58998E" transform="translate(227,132)"/>
<path d="M0 0 C1.32 0.66 2.64 1.32 4 2 C4 2.66 4 3.32 4 4 C4.99 4 5.98 4 7 4 C7 4.66 7 5.32 7 6 C11.78869515 8.0162927 15.82806934 8.14791391 20.92578125 7.97265625 C23 8 23 8 24 9 C24.14115161 11.67058851 24.04247107 14.32432238 24 17 C19.82141755 19.08929122 14.54876054 18.44618415 10 18 C7.24563226 16.95049881 5.40621591 15.7499752 3 14 C3 13.34 3 12.68 3 12 C2.34 12 1.68 12 1 12 C1 12.66 1 13.32 1 14 C-5.26935028 18.665563 -11.32381387 18.89209731 -19 18 C-19.99 17.34 -20.98 16.68 -22 16 C-21.67 13.36 -21.34 10.72 -21 8 C-20.35933594 8.02320313 -19.71867188 8.04640625 -19.05859375 8.0703125 C-13.59012904 8.18440863 -9.16901723 7.79791904 -4 6 C-3.896875 5.38125 -3.79375 4.7625 -3.6875 4.125 C-3 2 -3 2 0 0 Z " fill="#178761" transform="translate(205,40)"/>
<path d="M0 0 C13.86 0 27.72 0 42 0 C42 4.29 42 8.58 42 13 C41.34 13 40.68 13 40 13 C40 12.34 40 11.68 40 11 C35.35505142 11.11828208 30.71031535 11.24253274 26.06567383 11.37231445 C24.48563985 11.41562305 22.90556031 11.45730106 21.32543945 11.49731445 C19.05405952 11.55511583 16.78290811 11.6187816 14.51171875 11.68359375 C13.80536789 11.70030624 13.09901703 11.71701874 12.3712616 11.73423767 C9.3335176 11.8259747 6.90376942 12.03207686 4 13 C4 12.34 4 11.68 4 11 C3.01 11 2.02 11 1 11 C1 9.68 1 8.36 1 7 C2.65 7 4.3 7 6 7 C6 6.01 6 5.02 6 4 C5.34 4 4.68 4 4 4 C4 3.01 4 2.02 4 1 C2.68 0.67 1.36 0.34 0 0 Z " fill="#013B78" transform="translate(186,67)"/>
<path d="M0 0 C4.95 0.33 9.9 0.66 15 1 C15 12.55 15 24.1 15 36 C21.93 36 28.86 36 36 36 C36 36.33 36 36.66 36 37 C28.74 37.33 21.48 37.66 14 38 C12.48729346 34.30170218 10.97531308 30.6031193 9.46508789 26.90380859 C8.70212593 25.03580942 7.93798846 23.16829051 7.17382812 21.30078125 C0 3.7225269 0 3.7225269 0 0 Z " fill="#033B76" transform="translate(91,65)"/>
<path d="M0 0 C2.35450823 1.17725412 4.68443263 2.37073434 7 3.625 C10.05602743 5.27776981 10.05602743 5.27776981 14 5 C14 5.99 14 6.98 14 8 C17.3 8 20.6 8 24 8 C24 7.34 24 6.68 24 6 C24.99 6 25.98 6 27 6 C27 5.34 27 4.68 27 4 C28.32 4.33 29.64 4.66 31 5 C30.66032174 8.17033042 30.00130809 8.99882607 27.5625 11.1875 C21.70902208 15.32776487 14.91538361 14.57386061 8 14 C5.34185429 12.93415261 3.39663864 11.59775909 1 10 C-1.16666667 10.66666667 -1.16666667 10.66666667 -3 12 C-5.625 12.3125 -5.625 12.3125 -8 12 C-8.66 11.01 -9.32 10.02 -10 9 C-8 6 -8 6 -5.8359375 5.26953125 C-5.02382812 5.11871094 -4.21171875 4.96789062 -3.375 4.8125 C-2.14910156 4.57466797 -2.14910156 4.57466797 -0.8984375 4.33203125 C-0.27195313 4.22246094 0.35453125 4.11289063 1 4 C1.1490712 1.9254644 1.1490712 1.9254644 0 0 Z " fill="#64B1A1" transform="translate(181,160)"/>
<path d="M0 0 C1.32 0 2.64 0 4 0 C4 9.57 4 19.14 4 29 C1.69 29 -0.62 29 -3 29 C-3 26.03 -3 23.06 -3 20 C-7.95 19.67 -12.9 19.34 -18 19 C-17.01 17.02 -16.02 15.04 -15 13 C-13.68 13 -12.36 13 -11 13 C-11 13.99 -11 14.98 -11 16 C-8.69 16 -6.38 16 -4 16 C-2.9187609 9.93949386 -2.9187609 9.93949386 -4 4 C-3.01 3.67 -2.02 3.34 -1 3 C-0.67 2.01 -0.34 1.02 0 0 Z " fill="#14805F" transform="translate(165,133)"/>
<path d="M0 0 C0.66 0.33 1.32 0.66 2 1 C2 7.6 2 14.2 2 21 C4.64 20.34 7.28 19.68 10 19 C10.33 14.05 10.66 9.1 11 4 C11.99 4.33 12.98 4.66 14 5 C14 5.66 14 6.32 14 7 C14.66 7 15.32 7 16 7 C16.66 8.98 17.32 10.96 18 13 C18.99 13 19.98 13 21 13 C22.9249647 14.82193842 24.37535531 16.89235283 26 19 C22.37 19.66 18.74 20.32 15 21 C15 21.66 15 22.32 15 23 C14.34 23 13.68 23 13 23 C12.67 23.99 12.34 24.98 12 26 C10.35 25.67 8.7 25.34 7 25 C7 24.34 7 23.68 7 23 C6.05125 23.061875 5.1025 23.12375 4.125 23.1875 C3.09375 23.125625 2.0625 23.06375 1 23 C-1.18185426 19.72721861 -1.21432326 19.0648752 -0.9765625 15.33203125 C-0.925 14.43935547 -0.8734375 13.54667969 -0.8203125 12.62695312 C-0.75585938 11.69818359 -0.69140625 10.76941406 -0.625 9.8125 C-0.56828125 8.87212891 -0.5115625 7.93175781 -0.453125 6.96289062 C-0.31169923 4.64115091 -0.1602967 2.3205007 0 0 Z " fill="#66AD98" transform="translate(222,13)"/>
<path d="M0 0 C0.33 0.66 0.66 1.32 1 2 C0.67 2.99 0.34 3.98 0 5 C0.66 4.67 1.32 4.34 2 4 C3.8521563 3.90415021 5.70787153 3.87016394 7.5625 3.875 C8.55378906 3.87242187 9.54507812 3.86984375 10.56640625 3.8671875 C13 4 13 4 14 5 C14.14115161 7.67058851 14.04247107 10.32432238 14 13 C16.31 13.33 18.62 13.66 21 14 C21 13.34 21 12.68 21 12 C22.32 12.66 23.64 13.32 25 14 C25 14.66 25 15.32 25 16 C19.39 16 13.78 16 8 16 C8 15.01 8 14.02 8 13 C9.65 12.67 11.3 12.34 13 12 C12.67 10.35 12.34 8.7 12 7 C8.97170479 6.3336431 6.10601995 5.85456763 3 6 C-0.08798674 8.25057567 -0.08798674 8.25057567 -2 11 C-1.34 11.45375 -0.68 11.9075 0 12.375 C0.66 12.91125 1.32 13.4475 2 14 C2 14.66 2 15.32 2 16 C-3.94 16 -9.88 16 -16 16 C-15.67 15.01 -15.34 14.02 -15 13 C-13.35 12.67 -11.7 12.34 -10 12 C-9.67 10.68 -9.34 9.36 -9 8 C-8.01 8 -7.02 8 -6 8 C-6 7.34 -6 6.68 -6 6 C-5.34 6 -4.68 6 -4 6 C-3.566875 5.071875 -3.566875 5.071875 -3.125 4.125 C-2 2 -2 2 0 0 Z " fill="#69AFA0" transform="translate(261,148)"/>
<path d="M0 0 C-0.03480469 1.35544922 -0.03480469 1.35544922 -0.0703125 2.73828125 C-0.08835938 3.91777344 -0.10640625 5.09726562 -0.125 6.3125 C-0.14820313 7.48425781 -0.17140625 8.65601563 -0.1953125 9.86328125 C-0.25320618 13.16393661 -0.25320618 13.16393661 2 16 C5.56769552 16.73606499 5.56769552 16.73606499 9 17 C8.67 17.66 8.34 18.32 8 19 C6.02 19 4.04 19 2 19 C1.67 20.32 1.34 21.64 1 23 C0.34 23 -0.32 23 -1 23 C-1 22.34 -1 21.68 -1 21 C-1.66 21 -2.32 21 -3 21 C-3.66 20.01 -4.32 19.02 -5 18 C-7.64047252 16.98247445 -7.64047252 16.98247445 -10.625 16.3125 C-11.62789062 16.06113281 -12.63078125 15.80976562 -13.6640625 15.55078125 C-14.43492187 15.36902344 -15.20578125 15.18726563 -16 15 C-14.27715795 11.04384419 -12.95600678 10.58240271 -9 9 C-7.94978897 7.15028304 -7.94978897 7.15028304 -7 5 C-2.45454545 0 -2.45454545 0 0 0 Z " fill="#589F91" transform="translate(181,17)"/>
<path d="M0 0 C1.32 0.33 2.64 0.66 4 1 C4.40850553 8.08076251 2.90420731 14.19925959 1 21 C-0.65 21 -2.3 21 -4 21 C-4 21.66 -4 22.32 -4 23 C-5.65 23 -7.3 23 -9 23 C-8.75 20.6875 -8.75 20.6875 -8 18 C-7.33613281 17.55011719 -6.67226562 17.10023438 -5.98828125 16.63671875 C-3.78811354 15.16941894 -3.78811354 15.16941894 -3.49609375 12.6953125 C-3.47675781 11.84710938 -3.45742187 10.99890625 -3.4375 10.125 C-3.1948964 5.97647841 -2.59308773 3.38228834 0 0 Z " fill="#0C825D" transform="translate(212,137)"/>
<path d="M0 0 C4.95 0 9.9 0 15 0 C15 0.99 15 1.98 15 3 C14.01 3.33 13.02 3.66 12 4 C10.65061396 6.17577663 9.46148243 8.28612355 8.3125 10.5625 C7.99216797 11.17802734 7.67183594 11.79355469 7.34179688 12.42773438 C6.55253629 13.9473555 5.77512085 15.47311811 5 17 C4.01 16.67 3.02 16.34 2 16 C1.67 16.66 1.34 17.32 1 18 C0.01 17.67 -0.98 17.34 -2 17 C-1.690625 16.278125 -1.38125 15.55625 -1.0625 14.8125 C1.11498709 9.04856358 0.92648114 6.48536796 0 0 Z " fill="#0F7F5E" transform="translate(227,132)"/>
<path d="M0 0 C0.33 0 0.66 0 1 0 C1.33 1.65 1.66 3.3 2 5 C2.33 5 2.66 5 3 5 C3.33 9.29 3.66 13.58 4 18 C4.66 18 5.32 18 6 18 C6 19.65 6 21.3 6 23 C6.969375 23.37125 7.93875 23.7425 8.9375 24.125 C12 26 12 26 12.875 29.1875 C12.936875 30.5796875 12.936875 30.5796875 13 32 C14.1446875 32.185625 14.1446875 32.185625 15.3125 32.375 C18 33 18 33 21 35 C15.76919774 35.31384814 12.36434286 35.0065473 8 32 C4.36847812 26.95621961 3.04720897 22.07656782 2 16 C1.34 18.31 0.68 20.62 0 23 C-0.33 23 -0.66 23 -1 23 C-1.0272367 20.47909222 -1.04695207 17.95848543 -1.0625 15.4375 C-1.07087891 14.73302734 -1.07925781 14.02855469 -1.08789062 13.30273438 C-1.10882603 8.75975202 -0.74800682 4.48215108 0 0 Z " fill="#318F6F" transform="translate(205,10)"/>
<path d="M0 0 C0.33 0 0.66 0 1 0 C1 6.27 1 12.54 1 19 C-1.64 19 -4.28 19 -7 19 C-7 16.03 -7 13.06 -7 10 C-11.29 10 -15.58 10 -20 10 C-19.67 8.35 -19.34 6.7 -19 5 C-18.45859375 5.15339844 -17.9171875 5.30679688 -17.359375 5.46484375 C-14.65295977 6.07871608 -12.0149491 6.33208757 -9.25 6.5625 C-8.26515625 6.64628906 -7.2803125 6.73007813 -6.265625 6.81640625 C-5.14414062 6.90728516 -5.14414062 6.90728516 -4 7 C-4 5.02 -4 3.04 -4 1 C-3.01 1.33 -2.02 1.66 -1 2 C-0.67 1.34 -0.34 0.68 0 0 Z " fill="#048758" transform="translate(281,143)"/>
<path d="M0 0 C0.38133299 1.9914056 0.71325582 3.99279077 1 6 C0.67 6.33 0.34 6.66 0 7 C-0.07258946 9.18639453 -0.08373783 11.37500389 -0.0625 13.5625 C-0.05347656 14.76003906 -0.04445312 15.95757812 -0.03515625 17.19140625 C-0.02355469 18.11824219 -0.01195312 19.04507813 0 20 C-3 20 -3 20 -6 19 C-8.82581109 14.72798257 -8.79680783 9.93224044 -8 5 C-4.3 0 -4.3 0 0 0 Z " fill="#047F57" transform="translate(186,141)"/>
<path d="M0 0 C4.29 0 8.58 0 13 0 C13 0.99 13 1.98 13 3 C12.08081787 3.10344727 12.08081787 3.10344727 11.14306641 3.20898438 C8.82777224 3.81321274 8.82777224 3.81321274 7.75146484 6.02539062 C7.40809082 6.89357422 7.0647168 7.76175781 6.7109375 8.65625 C6.32679688 9.59597656 5.94265625 10.53570312 5.546875 11.50390625 C5.16015625 12.49261719 4.7734375 13.48132813 4.375 14.5 C3.596939 16.45023788 2.81336443 18.39828807 2.0234375 20.34375 C1.51176025 21.64602539 1.51176025 21.64602539 0.98974609 22.97460938 C0 25 0 25 -2 26 C-3.140625 23.8359375 -3.140625 23.8359375 -4 21 C-3.171875 18.3515625 -3.171875 18.3515625 -1.75 15.625 C0.33755034 11.42145858 1.88768762 7.55036882 3 3 C2.01 2.67 1.02 2.34 0 2 C0 1.34 0 0.68 0 0 Z " fill="#51978A" transform="translate(248,132)"/>
<path d="M0 0 C2.31 0 4.62 0 7 0 C7 0.66 7 1.32 7 2 C7.66 2 8.32 2 9 2 C12.125 8.625 12.125 8.625 11 12 C10.67 10.68 10.34 9.36 10 8 C8.68 7.67 7.36 7.34 6 7 C5.76925781 7.56589844 5.53851563 8.13179687 5.30078125 8.71484375 C4.31565123 10.93041285 3.33896798 12.97657555 2 15 C-0.75 16 -0.75 16 -3 16 C-3.33266291 9.79029227 -2.45029331 5.71735105 0 0 Z " fill="#058053" transform="translate(211,0)"/>
<path d="M0 0 C13.86 0 27.72 0 42 0 C42 2.31 42 4.62 42 7 C40.68 7 39.36 7 38 7 C38 5.68 38 4.36 38 3 C27.11 3 16.22 3 5 3 C5 2.34 5 1.68 5 1 C3.35 1 1.7 1 0 1 C0 0.67 0 0.34 0 0 Z " fill="#07396B" transform="translate(186,67)"/>
<path d="M0 0 C4.29 0 8.58 0 13 0 C12.67 1.32 12.34 2.64 12 4 C11.01 4 10.02 4 9 4 C9 4.66 9 5.32 9 6 C12.63 6 16.26 6 20 6 C18.68755511 8.62488977 17.73276511 8.96327713 15 10 C11.87109375 10.265625 11.87109375 10.265625 8.4375 10.25 C7.30183594 10.25515625 6.16617188 10.2603125 4.99609375 10.265625 C2 10 2 10 -1 8 C-0.67 5.36 -0.34 2.72 0 0 Z " fill="#4EA188" transform="translate(184,48)"/>
<path d="M0 0 C0 0.66 0 1.32 0 2 C0.61875 2.28875 1.2375 2.5775 1.875 2.875 C4 4 4 4 6 6 C7.4337048 12.3965291 6.80274135 16.0831016 4 22 C3.34 22.33 2.68 22.66 2 23 C2.33 17.39 2.66 11.78 3 6 C1.35 6.33 -0.3 6.66 -2 7 C-2.33 6.01 -2.66 5.02 -3 4 C-9.06050614 2.9187609 -9.06050614 2.9187609 -15 4 C-15 3.67 -15 3.34 -15 3 C-17.97 2.505 -17.97 2.505 -21 2 C-16.19856756 -2.80143244 -6.11425616 -1.52856404 0 0 Z " fill="#2C806B" transform="translate(212,132)"/>
<path d="M0 0 C0.33 0 0.66 0 1 0 C0.98839844 0.83144531 0.97679687 1.66289062 0.96484375 2.51953125 C0.95582031 3.60621094 0.94679687 4.69289063 0.9375 5.8125 C0.92589844 6.89144531 0.91429687 7.97039063 0.90234375 9.08203125 C0.86375234 12.06512169 0.86375234 12.06512169 2 15 C2.94875 14.95875 3.8975 14.9175 4.875 14.875 C8 15 8 15 10 17 C10.66 17 11.32 17 12 17 C10.84826645 19.46800047 9.95216435 21.04783565 8 23 C3.78645663 23.37453719 0.81389558 22.79477439 -3 21 C-2.7215625 19.63875 -2.7215625 19.63875 -2.4375 18.25 C-2.04265379 15.31685676 -2.05308428 13.7355343 -3 11 C-2.34 11 -1.68 11 -1 11 C-1.20625 9.9275 -1.4125 8.855 -1.625 7.75 C-1.9876191 4.12380904 -1.98362069 2.91708924 0 0 Z " fill="#068059" transform="translate(221,21)"/>
<path d="M0 0 C2.14576637 -0.02685938 4.29162645 -0.04633088 6.4375 -0.0625 C7.63246094 -0.07410156 8.82742187 -0.08570313 10.05859375 -0.09765625 C13 0 13 0 14 1 C14.14115161 3.67058851 14.04247107 6.32432238 14 9 C11.32344199 10.33827901 9.17565948 10.20578556 6.1875 10.25 C5.14980469 10.27578125 4.11210937 10.3015625 3.04296875 10.328125 C-0.37448595 9.95961897 -2.24630186 9.01564596 -5 7 C-5 6.67 -5 6.34 -5 6 C-3.39125 6.061875 -3.39125 6.061875 -1.75 6.125 C1.76581294 6.00780624 3.07712211 5.67021593 6 4 C6.99 4 7.98 4 9 4 C5.71023192 2.90341064 4.28696233 3.20046862 1 4 C0.67 2.68 0.34 1.36 0 0 Z " fill="#107A5E" transform="translate(215,48)"/>
<path d="M0 0 C0.66 0.33 1.32 0.66 2 1 C2 13.21 2 25.42 2 38 C1.67 38 1.34 38 1 38 C0.72736328 36.46279297 0.72736328 36.46279297 0.44921875 34.89453125 C0.19583322 33.5337571 -0.0581022 32.17308527 -0.3125 30.8125 C-0.43044922 30.13896484 -0.54839844 29.46542969 -0.66992188 28.77148438 C-1.46671546 24.58321042 -2.72814072 21.57474112 -5 18 C-4.375 16.0625 -4.375 16.0625 -3 14 C-0.02332495 8.96254991 0.29516526 5.70652844 0 0 Z " fill="#E1F2F7" transform="translate(284,78)"/>
<path d="M0 0 C4.95 0.33 9.9 0.66 15 1 C15 12.55 15 24.1 15 36 C21.93 36 28.86 36 36 36 C36 36.33 36 36.66 36 37 C28.74 37.33 21.48 37.66 14 38 C12.68 34.7 11.36 31.4 10 28 C10.33 27.34 10.66 26.68 11 26 C11.66 26 12.32 26 13 26 C13.33 18.08 13.66 10.16 14 2 C9.38 2.33 4.76 2.66 0 3 C0 2.01 0 1.02 0 0 Z " fill="#738FAD" transform="translate(91,65)"/>
<path d="M0 0 C0.66 0 1.32 0 2 0 C2.33 1.98 2.66 3.96 3 6 C4.65 6 6.3 6 8 6 C8 7.32 8 8.64 8 10 C3.71 10 -0.58 10 -5 10 C-6.25541557 6.23375329 -5.37061958 4.62811066 -4 1 C-2.68 1.33 -1.36 1.66 0 2 C0 1.34 0 0.68 0 0 Z " fill="#053975" transform="translate(8,110)"/>
<path d="M0 0 C0.66 0 1.32 0 2 0 C2.33 5.28 2.66 10.56 3 16 C0.69 16 -1.62 16 -4 16 C-4 12.04 -4 8.08 -4 4 C-3.34 4 -2.68 4 -2 4 C-1.67 3.01 -1.34 2.02 -1 1 C-0.67 0.67 -0.34 0.34 0 0 Z " fill="#048455" transform="translate(166,146)"/>
<path d="M0 0 C0 2.97 0 5.94 0 9 C-0.33 9 -0.66 9 -1 9 C-1 6.36 -1 3.72 -1 1 C-2.32 1 -3.64 1 -5 1 C-5.33 2.32 -5.66 3.64 -6 5 C-6.99 5 -7.98 5 -9 5 C-8.34 6.65 -7.68 8.3 -7 10 C-7.99 10 -8.98 10 -10 10 C-10 10.66 -10 11.32 -10 12 C-10.66 12 -11.32 12 -12 12 C-12 12.66 -12 13.32 -12 14 C-12.66 14 -13.32 14 -14 14 C-14.33 15.32 -14.66 16.64 -15 18 C-15.66 17.67 -16.32 17.34 -17 17 C-16.67 16.01 -16.34 15.02 -16 14 C-16.66 14 -17.32 14 -18 14 C-18 13.34 -18 12.68 -18 12 C-17.34 12 -16.68 12 -16 12 C-16 11.34 -16 10.68 -16 10 C-14.125 7.875 -14.125 7.875 -12 6 C-11.34 6 -10.68 6 -10 6 C-10 5.34 -10 4.68 -10 4 C-9.34 4 -8.68 4 -8 4 C-8 3.34 -8 2.68 -8 2 C-7.34 2 -6.68 2 -6 2 C-6 1.34 -6 0.68 -6 0 C-4 -1 -4 -1 0 0 Z " fill="#64A999" transform="translate(170,132)"/>
<path d="M0 0 C0.66 0.33 1.32 0.66 2 1 C2.09765625 7.15234375 2.09765625 7.15234375 2 9 C1 10 1 10 -1.72265625 10.09765625 C-3.37587891 10.08025391 -3.37587891 10.08025391 -5.0625 10.0625 C-6.16722656 10.05347656 -7.27195313 10.04445313 -8.41015625 10.03515625 C-9.69212891 10.01775391 -9.69212891 10.01775391 -11 10 C-9.5967029 6.55420765 -8.14225045 5.15624935 -4.9375 3.3125 C-2.30980579 1.86388409 -2.30980579 1.86388409 0 0 Z " fill="#077F58" transform="translate(176,22)"/>
<path d="M0 0 C1 3 1 3 0 6 C0.33 6.66 0.66 7.32 1 8 C0.01 8.495 0.01 8.495 -1 9 C-1.65213292 11.02463255 -1.65213292 11.02463255 -2 13 C-1.34 13.33 -0.68 13.66 0 14 C0.33 13.01 0.66 12.02 1 11 C1.99 11.66 2.98 12.32 4 13 C3.34 15.31 2.68 17.62 2 20 C0.68 20 -0.64 20 -2 20 C-2.33 18.68 -2.66 17.36 -3 16 C-5.5654594 18.5654594 -5.54046087 20.47686668 -6 24 C-6.33 24 -6.66 24 -7 24 C-7.45547572 17.87547823 -5.96866782 13.62415124 -3.5 8.0625 C-3.16613281 7.28326172 -2.83226562 6.50402344 -2.48828125 5.70117188 C-1.67007611 3.79592277 -0.83658323 1.89725125 0 0 Z " fill="#4EA68A" transform="translate(228,136)"/>
<path d="M0 0 C9.24 0 18.48 0 28 0 C27.67 0.99 27.34 1.98 27 3 C23.06263877 3.08696177 19.12552372 3.14037835 15.1875 3.1875 C13.50817383 3.22520508 13.50817383 3.22520508 11.79492188 3.26367188 C10.72177734 3.27333984 9.64863281 3.28300781 8.54296875 3.29296875 C7.0583313 3.31653442 7.0583313 3.31653442 5.54370117 3.34057617 C3 3 3 3 0 0 Z " fill="#073969" transform="translate(237,67)"/>
<path d="M0 0 C0.66 0.33 1.32 0.66 2 1 C2 7.6 2 14.2 2 21 C4.64 20.34 7.28 19.68 10 19 C9.34 20.32 8.68 21.64 8 23 C11.465 22.505 11.465 22.505 15 22 C14.34 22.33 13.68 22.66 13 23 C12.67 23.99 12.34 24.98 12 26 C10.35 25.67 8.7 25.34 7 25 C7 24.34 7 23.68 7 23 C6.05125 23.061875 5.1025 23.12375 4.125 23.1875 C3.09375 23.125625 2.0625 23.06375 1 23 C-1.18185426 19.72721861 -1.21432326 19.0648752 -0.9765625 15.33203125 C-0.925 14.43935547 -0.8734375 13.54667969 -0.8203125 12.62695312 C-0.75585938 11.69818359 -0.69140625 10.76941406 -0.625 9.8125 C-0.56828125 8.87212891 -0.5115625 7.93175781 -0.453125 6.96289062 C-0.31169923 4.64115091 -0.1602967 2.3205007 0 0 Z " fill="#4A8D87" transform="translate(222,13)"/>
<path d="M0 0 C2.70108504 0.090916 5.36930311 0.23740766 8.0625 0.4375 C9.20041992 0.51581055 9.20041992 0.51581055 10.36132812 0.59570312 C12.24121722 0.72575835 14.12065685 0.86228038 16 1 C14.68 1.33 13.36 1.66 12 2 C12 3.32 12 4.64 12 6 C8.37 6 4.74 6 1 6 C0.34 4.35 -0.32 2.7 -1 1 C-0.67 0.67 -0.34 0.34 0 0 Z " fill="#0D775C" transform="translate(188,168)"/>
<path d="M0 0 C1.21236328 0.02707031 1.21236328 0.02707031 2.44921875 0.0546875 C3.37154297 0.08949219 3.37154297 0.08949219 4.3125 0.125 C0.78050731 6.34803473 0.78050731 6.34803473 -1.6875 8.125 C-3.6875 7.875 -3.6875 7.875 -5.6875 7.125 C-6.6775 6.795 -7.6675 6.465 -8.6875 6.125 C-8.375 4.25 -8.375 4.25 -7.6875 2.125 C-4.48369983 -0.01086678 -3.66810033 -0.10632175 0 0 Z " fill="#3D8F7E" transform="translate(193.6875,133.875)"/>
<path d="M0 0 C0.66 1.32 1.32 2.64 2 4 C1.071875 4.3403125 1.071875 4.3403125 0.125 4.6875 C-2.61410209 6.37929835 -3.05024472 7.99244161 -4 11 C-2.35 11 -0.7 11 1 11 C1 10.34 1 9.68 1 9 C1.99 9.33 2.98 9.66 4 10 C1.63907689 12.73370045 -0.56538728 13.91097645 -4 15 C-5.32 15 -6.64 15 -8 15 C-8 14.34 -8 13.68 -8 13 C-9.32 12.67 -10.64 12.34 -12 12 C-10.35 11.67 -8.7 11.34 -7 11 C-7 10.34 -7 9.68 -7 9 C-6.34 9 -5.68 9 -5 9 C-4.5978125 7.88625 -4.5978125 7.88625 -4.1875 6.75 C-3.05770579 4.13363446 -1.79106798 2.19812889 0 0 Z " fill="#50948A" transform="translate(207,149)"/>
<path d="M0 0 C1.32 0.33 2.64 0.66 4 1 C3.67777813 4.0074041 2.99223238 5.00776762 0.8125 7.1875 C-2.23053519 9.14856712 -4.42681564 9.66761076 -8 10 C-8.33 9.34 -8.66 8.68 -9 8 C-8.67 7.34 -8.34 6.68 -8 6 C-6.68 6 -5.36 6 -4 6 C-3.67 4.68 -3.34 3.36 -3 2 C-2.01 2 -1.02 2 0 2 C0 1.34 0 0.68 0 0 Z " fill="#2C8472" transform="translate(208,164)"/>
<path d="M0 0 C1.32 0 2.64 0 4 0 C4 2.97 4 5.94 4 9 C-0.75 11 -0.75 11 -3 11 C-3.33 8.69 -3.66 6.38 -4 4 C-3.01 3.67 -2.02 3.34 -1 3 C-0.67 2.01 -0.34 1.02 0 0 Z " fill="#047F52" transform="translate(165,133)"/>
<path d="M0 0 C3.26460973 1.80412643 4.88929795 2.83394693 7 6 C7.33 5.34 7.66 4.68 8 4 C8.99 4 9.98 4 11 4 C11.33 5.32 11.66 6.64 12 8 C13.98 8 15.96 8 18 8 C17.67 8.66 17.34 9.32 17 10 C12.71 10 8.42 10 4 10 C0 2.25 0 2.25 0 0 Z M10 1 C10.99 1.495 10.99 1.495 12 2 C11.67 2.66 11.34 3.32 11 4 C10.67 3.01 10.34 2.02 10 1 Z " fill="#1D476D" transform="translate(109,112)"/>
<path d="M0 0 C1.65 0 3.3 0 5 0 C8.34212201 5.74427221 10.08199661 10.30671864 9 17 C8.34 18.32 7.68 19.64 7 21 C7 16.38 7 11.76 7 7 C5.35 6.67 3.7 6.34 2 6 C-0.3125 4.9375 -0.3125 4.9375 -2 4 C-1.34 2.68 -0.68 1.36 0 0 Z " fill="#1A7F5F" transform="translate(196,0)"/>
<path d="M0 0 C0.33 1.32 0.66 2.64 1 4 C3.31 4.33 5.62 4.66 8 5 C8 5.66 8 6.32 8 7 C2.39 7 -3.22 7 -9 7 C-7 3 -7 3 -3.9375 1.8125 C-2.4834375 1.4103125 -2.4834375 1.4103125 -1 1 C-0.67 0.67 -0.34 0.34 0 0 Z " fill="#368774" transform="translate(143,157)"/>
<path d="M0 0 C0.33 0.66 0.66 1.32 1 2 C2.32 2 3.64 2 5 2 C5.33 3.32 5.66 4.64 6 6 C6.7425 5.649375 7.485 5.29875 8.25 4.9375 C11.1322726 3.95490707 12.21176345 3.9673198 15 5 C14.01 5.99 13.02 6.98 12 8 C11.67 7.34 11.34 6.68 11 6 C10.67 6.66 10.34 7.32 10 8 C6.35346727 9.11421833 3.66708957 8.94296589 0 8 C0 7.34 0 6.68 0 6 C0.66 5.67 1.32 5.34 2 5 C-0.00032373 3.99983813 -1.83125748 3.50603992 -4 3 C-3.34 2.34 -2.68 1.68 -2 1 C-1.34 1.33 -0.68 1.66 0 2 C0 1.34 0 0.68 0 0 Z " fill="#058058" transform="translate(210,46)"/>
<path d="M0 0 C1.32 0.66 2.64 1.32 4 2 C4 2.66 4 3.32 4 4 C4.99 4 5.98 4 7 4 C7 4.66 7 5.32 7 6 C7.99 6.33 8.98 6.66 10 7 C6.32589215 8.17571451 2.83070817 8.07366746 -1 8 C-1 7.34 -1 6.68 -1 6 C-1.99 6 -2.98 6 -4 6 C-3.6875 4.125 -3.6875 4.125 -3 2 C-2.01 1.34 -1.02 0.68 0 0 Z " fill="#57A588" transform="translate(205,40)"/>
<path d="M0 0 C-1.26422764 2.52845528 -2.52845528 2.76422764 -5 4 C-5.94875 3.835 -6.8975 3.67 -7.875 3.5 C-10.77618942 3.03580969 -12.28219244 3.05922046 -15 4 C-15 3.67 -15 3.34 -15 3 C-17.97 2.505 -17.97 2.505 -21 2 C-16.19856756 -2.80143244 -6.11425616 -1.52856404 0 0 Z " fill="#5BA08F" transform="translate(212,132)"/>
<path d="M0 0 C0.33 0 0.66 0 1 0 C1.33 2.31 1.66 4.62 2 7 C1.01 7.495 1.01 7.495 0 8 C0.33 9.65 0.66 11.3 1 13 C0.34 13 -0.32 13 -1 13 C-1 14.32 -1 15.64 -1 17 C-2.65 17 -4.3 17 -6 17 C-4.33846988 11.14340094 -2.52958084 5.5409866 0 0 Z " fill="#225489" transform="translate(9,95)"/>
<path d="M0 0 C0.33 0 0.66 0 1 0 C1.33 1.65 1.66 3.3 2 5 C2.33 5 2.66 5 3 5 C3.05410687 6.77049689 3.09284119 8.54146849 3.125 10.3125 C3.14820313 11.29863281 3.17140625 12.28476562 3.1953125 13.30078125 C3 16 3 16 1 19 C0.31822584 20.32567199 -0.35191436 21.65753688 -1 23 C-1.0272367 20.47909222 -1.04695207 17.95848543 -1.0625 15.4375 C-1.07087891 14.73302734 -1.07925781 14.02855469 -1.08789062 13.30273438 C-1.10882603 8.75975202 -0.74800682 4.48215108 0 0 Z " fill="#7EB8B2" transform="translate(205,10)"/>
<path d="M0 0 C2.6015625 -0.29296875 2.6015625 -0.29296875 5.625 -0.1875 C7.12933594 -0.14689453 7.12933594 -0.14689453 8.6640625 -0.10546875 C9.43492187 -0.07066406 10.20578125 -0.03585938 11 0 C11 0.66 11 1.32 11 2 C10.01 2 9.02 2 8 2 C7.67 2.99 7.34 3.98 7 5 C4.69 5.33 2.38 5.66 0 6 C-0.66 5.01 -1.32 4.02 -2 3 C-1.34 2.01 -0.68 1.02 0 0 Z " fill="#1A7866" transform="translate(173,166)"/>
<path d="M0 0 C2.14576637 -0.02685938 4.29162645 -0.04633088 6.4375 -0.0625 C7.63246094 -0.07410156 8.82742187 -0.08570313 10.05859375 -0.09765625 C13 0 13 0 14 1 C14.14115161 3.67058851 14.04247107 6.32432238 14 9 C11.50638429 7.79618552 9.31856917 6.54571278 7 5 C7.66 4.34 8.32 3.68 9 3 C6.36 3.33 3.72 3.66 1 4 C0.67 2.68 0.34 1.36 0 0 Z " fill="#338973" transform="translate(215,48)"/>
<path d="M0 0 C2.76292836 2.76292836 3.17837357 5.207878 4 9 C3.625 12.4375 3.625 12.4375 3 15 C3.66 15 4.32 15 5 15 C4.67 15.66 4.34 16.32 4 17 C1 16 1 16 -0.17578125 14.2578125 C-1.12560053 11.6559379 -1.23287563 9.63878859 -1.1875 6.875 C-1.17783203 5.57175781 -1.17783203 5.57175781 -1.16796875 4.2421875 C-1 2 -1 2 0 0 Z " fill="#18855F" transform="translate(179,144)"/>
<path d="M0 0 C0.66 0.33 1.32 0.66 2 1 C1.67 2.65 1.34 4.3 1 6 C2.65 6 4.3 6 6 6 C6.33 6.99 6.66 7.98 7 9 C1.72 9 -3.56 9 -9 9 C-6 6 -6 6 -2.8125 5.8125 C-1.4203125 5.9053125 -1.4203125 5.9053125 0 6 C0 4.02 0 2.04 0 0 Z " fill="#157363" transform="translate(256,155)"/>
<path d="M0 0 C4.29 0 8.58 0 13 0 C13 0.99 13 1.98 13 3 C12.360625 3.12375 11.72125 3.2475 11.0625 3.375 C10.381875 3.58125 9.70125 3.7875 9 4 C8.67 4.66 8.34 5.32 8 6 C6.68 6 5.36 6 4 6 C4 4.68 4 3.36 4 2 C2.68 2 1.36 2 0 2 C0 1.34 0 0.68 0 0 Z " fill="#469281" transform="translate(248,132)"/>
<path d="M0 0 C0.33 0 0.66 0 1 0 C1 6.27 1 12.54 1 19 C-1.64 19 -4.28 19 -7 19 C-6.67 15.7 -6.34 12.4 -6 9 C-5.01 9 -4.02 9 -3 9 C-3.33 11.64 -3.66 14.28 -4 17 C-3.01 16.67 -2.02 16.34 -1 16 C-0.67 10.72 -0.34 5.44 0 0 Z " fill="#0C7158" transform="translate(281,143)"/>
<path d="M0 0 C2.32472205 2.85306797 3.7508258 5.54074837 5 9 C4 10 4 10 0.4375 10.0625 C-0.696875 10.041875 -1.83125 10.02125 -3 10 C-2.25 3.375 -2.25 3.375 0 0 Z " fill="#567696" transform="translate(56,112)"/>
<path d="M0 0 C1.4606285 2.64738916 2 3.89448334 2 7 C8.93 7 15.86 7 23 7 C23 7.33 23 7.66 23 8 C22.44538086 8.02505615 21.89076172 8.0501123 21.31933594 8.07592773 C18.79601157 8.19227927 16.27302464 8.31482754 13.75 8.4375 C12.44095703 8.49647461 12.44095703 8.49647461 11.10546875 8.55664062 C10.26113281 8.59853516 9.41679687 8.64042969 8.546875 8.68359375 C7.77182617 8.72025146 6.99677734 8.75690918 6.19824219 8.79467773 C3.97481925 8.94230915 3.97481925 8.94230915 1.77832031 9.58227539 C1.19147461 9.72012451 0.60462891 9.85797363 0 10 C-1 9 -1 9 -1.1328125 7.1875 C-1.13023437 6.465625 -1.12765625 5.74375 -1.125 5 C-1.12757813 4.278125 -1.13015625 3.55625 -1.1328125 2.8125 C-1 1 -1 1 0 0 Z " fill="#0D395C" transform="translate(204,98)"/>
<path d="M0 0 C0.625 1.8125 0.625 1.8125 1 4 C0.01 5.485 0.01 5.485 -1 7 C-1.27543845 9.42045438 -1.27543845 9.42045438 -1.1953125 12.10546875 C-1.18886719 13.08837891 -1.18242187 14.07128906 -1.17578125 15.08398438 C-1.15902344 16.10814453 -1.14226562 17.13230469 -1.125 18.1875 C-1.11597656 19.22326172 -1.10695312 20.25902344 -1.09765625 21.32617188 C-1.0740786 23.88434685 -1.0411703 26.44205748 -1 29 C-1.66 29.33 -2.32 29.66 -3 30 C-3.08751413 26.12514365 -3.14056435 22.25054357 -3.1875 18.375 C-3.21263672 17.28058594 -3.23777344 16.18617187 -3.26367188 15.05859375 C-3.31690288 9.20318317 -3.29983099 4.93675502 0 0 Z " fill="#2B916B" transform="translate(193,4)"/>
<path d="M0 0 C2.31 0 4.62 0 7 0 C7 5.94 7 11.88 7 18 C6.34 18 5.68 18 5 18 C5 12.72 5 7.44 5 2 C3.35 2 1.7 2 0 2 C0 1.34 0 0.68 0 0 Z " fill="#0E3862" transform="translate(120,102)"/>
<path d="M0 0 C1.32 0 2.64 0 4 0 C4 12.54 4 25.08 4 38 C3.67 38 3.34 38 3 38 C2.67 26.12 2.34 14.24 2 2 C1.34 2 0.68 2 0 2 C0 1.34 0 0.68 0 0 Z " fill="#05396D" transform="translate(80,74)"/>
<path d="M0 0 C1.32 0.66 2.64 1.32 4 2 C4 2.66 4 3.32 4 4 C-1.61 4 -7.22 4 -13 4 C-13 3.01 -13 2.02 -13 1 C-8.71 1.33 -4.42 1.66 0 2 C0 1.34 0 0.68 0 0 Z " fill="#468A87" transform="translate(282,160)"/>
<path d="M0 0 C0.33 0 0.66 0 1 0 C1.33 1.65 1.66 3.3 2 5 C2.66 4.67 3.32 4.34 4 4 C4 5.98 4 7.96 4 10 C4.66 10 5.32 10 6 10 C6 8.02 6 6.04 6 4 C6.66 4 7.32 4 8 4 C8 6.64 8 9.28 8 12 C3.25 12.125 3.25 12.125 1 11 C-0.37097852 7.43545584 -0.07243154 3.76644005 0 0 Z " fill="#053870" transform="translate(264,108)"/>
<path d="M0 0 C0 1.65 0 3.3 0 5 C0.99 4.67 1.98 4.34 3 4 C2.34 6.31 1.68 8.62 1 11 C-1.475 10.01 -1.475 10.01 -4 9 C-4.368 3.48 -4.368 3.48 -2.5625 1.125 C-1 0 -1 0 0 0 Z " fill="#087D57" transform="translate(226,151)"/>
<path d="M0 0 C0.33 0.66 0.66 1.32 1 2 C1.66 2 2.32 2 3 2 C1.62845496 4.95409701 0.01136276 7.44008376 -2 10 C-4.475 9.01 -4.475 9.01 -7 8 C-7 7.34 -7 6.68 -7 6 C-6.34 6 -5.68 6 -5 6 C-5 5.34 -5 4.68 -5 4 C-4.34 4 -3.68 4 -3 4 C-3 3.34 -3 2.68 -3 2 C-2.01 1.34 -1.02 0.68 0 0 Z " fill="#61A398" transform="translate(269,140)"/>
<path d="M0 0 C3.96 0 7.92 0 12 0 C12 7.92 12 15.84 12 24 C11.67 24 11.34 24 11 24 C10.93941406 22.83082031 10.87882812 21.66164063 10.81640625 20.45703125 C10.73195966 18.90884386 10.64731375 17.36066732 10.5625 15.8125 C10.52318359 15.04357422 10.48386719 14.27464844 10.44335938 13.48242188 C10.22492966 9.56748925 9.91307892 5.82879312 9 2 C6.03 1.67 3.06 1.34 0 1 C0 0.67 0 0.34 0 0 Z " fill="#0D3764" transform="translate(93,67)"/>
<path d="M0 0 C4.95 0 9.9 0 15 0 C15 0.99 15 1.98 15 3 C14.01 3.33 13.02 3.66 12 4 C10.29144978 7.00007271 10.29144978 7.00007271 9 10 C7.9673198 7.21176345 7.95490707 6.1322726 8.9375 3.25 C9.288125 2.5075 9.63875 1.765 10 1 C6.7 1.33 3.4 1.66 0 2 C0 1.34 0 0.68 0 0 Z " fill="#5AA08E" transform="translate(227,132)"/>
<path d="M0 0 C0.99 0.495 0.99 0.495 2 1 C2.33 1.99 2.66 2.98 3 4 C3.66 4.33 4.32 4.66 5 5 C5.73080266 6.97746603 6.39421747 8.98072489 7 11 C7.33 11.99 7.66 12.98 8 14 C7.01 14.66 6.02 15.32 5 16 C4.15787744 14.08717875 3.32661136 12.16957527 2.5 10.25 C2.0359375 9.18265625 1.571875 8.1153125 1.09375 7.015625 C0 4 0 4 0 0 Z " fill="#375E85" transform="translate(92,67)"/>
<path d="M0 0 C0.350625 0.474375 0.70125 0.94875 1.0625 1.4375 C3.84163543 3.67873825 6.5144717 3.67117658 10 4 C9.67 4.66 9.34 5.32 9 6 C7.02 6 5.04 6 3 6 C2.67 7.32 2.34 8.64 2 10 C1.34 10 0.68 10 0 10 C0 9.34 0 8.68 0 8 C-0.66 8 -1.32 8 -2 8 C-2.66 6.68 -3.32 5.36 -4 4 C-2.68 4 -1.36 4 0 4 C0 2.68 0 1.36 0 0 Z " fill="#6EB69E" transform="translate(180,30)"/>
<path d="M0 0 C0.99 0.33 1.98 0.66 3 1 C4.72795352 1.06802967 6.45835365 1.08495645 8.1875 1.0625 C9.08855469 1.05347656 9.98960937 1.04445312 10.91796875 1.03515625 C11.94857422 1.01775391 11.94857422 1.01775391 13 1 C12.67 1.99 12.34 2.98 12 4 C4.73846154 5.47692308 4.73846154 5.47692308 1 3.0625 C0.34 2.381875 -0.32 1.70125 -1 1 C-0.67 0.67 -0.34 0.34 0 0 Z " fill="#267A68" transform="translate(186,161)"/>
<path d="M0 0 C4 0 4 0 5.484375 1.3125 C6.65625 2.875 7.828125 4.4375 9 6 C1.25 6.125 1.25 6.125 -1 5 C-0.67 3.35 -0.34 1.7 0 0 Z " fill="#388F75" transform="translate(239,26)"/>
<path d="M0 0 C0.33 0 0.66 0 1 0 C1 3.3 1 6.6 1 10 C-3 8 -3 8 -4.25 4.875 C-4.4975 3.92625 -4.745 2.9775 -5 2 C-3.35 2 -1.7 2 0 2 C0 1.34 0 0.68 0 0 Z " fill="#1E4E83" transform="translate(103,82)"/>
<path d="M0 0 C0 0.66 0 1.32 0 2 C1.32 2.66 2.64 3.32 4 4 C-3.42857143 4.14285714 -3.42857143 4.14285714 -7 3 C-7 2.34 -7 1.68 -7 1 C-7.66 1 -8.32 1 -9 1 C-9 0.34 -9 -0.32 -9 -1 C-5.23375329 -2.25541557 -3.62811066 -1.37061958 0 0 Z " fill="#3F9D7E" transform="translate(191,41)"/>
<path d="M0 0 C0.33 0.66 0.66 1.32 1 2 C3.64 1.34 6.28 0.68 9 0 C8.34 1.32 7.68 2.64 7 4 C10.465 3.505 10.465 3.505 14 3 C13.01 3.495 13.01 3.495 12 4 C11.67 4.99 11.34 5.98 11 7 C9.35 6.67 7.7 6.34 6 6 C6 5.34 6 4.68 6 4 C4.02 4 2.04 4 0 4 C0 2.68 0 1.36 0 0 Z " fill="#6EB7A3" transform="translate(223,32)"/>
<path d="M0 0 C0.495 0.144375 0.99 0.28875 1.5 0.4375 C4.97752922 1.21994407 8.45955123 1.58694764 12 2 C12 2.66 12 3.32 12 4 C5.565 4.495 5.565 4.495 -1 5 C-0.67 3.35 -0.34 1.7 0 0 Z " fill="#0F795A" transform="translate(262,148)"/>
<path d="M0 0 C2.31 0 4.62 0 7 0 C7 0.66 7 1.32 7 2 C7.66 2 8.32 2 9 2 C9.33 3.32 9.66 4.64 10 6 C8.68 5.34 7.36 4.68 6 4 C6 3.34 6 2.68 6 2 C2.87802522 3.3089572 2.87802522 3.3089572 1 6 C0.34 6 -0.32 6 -1 6 C-0.67 4.02 -0.34 2.04 0 0 Z " fill="#62B098" transform="translate(211,0)"/>
<path d="M0 0 C0.5534764 2.07553648 1 3.84365964 1 6 C5.29 6.33 9.58 6.66 14 7 C10.18957754 8.90521123 8.90806147 9.25371444 4.875 9.1875 C4.00617187 9.18105469 3.13734375 9.17460938 2.2421875 9.16796875 C-0 9 -0 9 -2 8 C-1.125 2.25 -1.125 2.25 0 0 Z " fill="#527286" transform="translate(2,113)"/>
<path d="M0 0 C1.2065625 0.0309375 1.2065625 0.0309375 2.4375 0.0625 C2.4375 0.7225 2.4375 1.3825 2.4375 2.0625 C3.0975 2.3925 3.7575 2.7225 4.4375 3.0625 C4.1075 4.0525 3.7775 5.0425 3.4375 6.0625 C1.7875 6.0625 0.1375 6.0625 -1.5625 6.0625 C-2.2225 4.4125 -2.8825 2.7625 -3.5625 1.0625 C-2.5625 0.0625 -2.5625 0.0625 0 0 Z " fill="#258D70" transform="translate(190.5625,167.9375)"/>
<path d="M0 0 C0 0.99 0 1.98 0 3 C-0.66 3 -1.32 3 -2 3 C-2 3.66 -2 4.32 -2 5 C-2.66 5 -3.32 5 -4 5 C-4.33 6.32 -4.66 7.64 -5 9 C-5.66 8.67 -6.32 8.34 -7 8 C-6.67 7.01 -6.34 6.02 -6 5 C-6.66 5 -7.32 5 -8 5 C-8 4.34 -8 3.68 -8 3 C-7.34 3 -6.68 3 -6 3 C-6 2.34 -6 1.68 -6 1 C-3.92446352 0.4465236 -2.15634036 0 0 0 Z " fill="#519A90" transform="translate(160,141)"/>
<path d="M0 0 C0.66 0.33 1.32 0.66 2 1 C1.67 3.97 1.34 6.94 1 10 C0.01 9.67 -0.98 9.34 -2 9 C-2.5625 7.0625 -2.5625 7.0625 -3 5 C-3.66 4.34 -4.32 3.68 -5 3 C-2.625 1.4375 -2.625 1.4375 0 0 Z " fill="#0C8158" transform="translate(279,133)"/>
<path d="M0 0 C2.125 0.375 2.125 0.375 4 1 C4 2.32 4 3.64 4 5 C3.01 5.33 2.02 5.66 1 6 C0.34 6.66 -0.32 7.32 -1 8 C-2 7 -2 7 -2.1875 4.5625 C-2 2 -2 2 0 0 Z " fill="#087F56" transform="translate(212,137)"/>
<path d="M0 0 C0.66 0 1.32 0 2 0 C2.99 3.3 3.98 6.6 5 10 C3.68 9.67 2.36 9.34 1 9 C0.01 9.495 0.01 9.495 -1 10 C-0.67 6.7 -0.34 3.4 0 0 Z " fill="#305B88" transform="translate(82,44)"/>
<path d="M0 0 C3.3 0.33 6.6 0.66 10 1 C9.01 1.66 8.02 2.32 7 3 C6.01 3.804375 6.01 3.804375 5 4.625 C3 6 3 6 0 6 C0 4.02 0 2.04 0 0 Z " fill="#107D57" transform="translate(185,49)"/>
<path d="M0 0 C0.33 0.66 0.66 1.32 1 2 C0.22265625 3.9453125 0.22265625 3.9453125 -0.9375 6.125 C-1.31777344 6.84945312 -1.69804687 7.57390625 -2.08984375 8.3203125 C-2.39019531 8.87460938 -2.69054687 9.42890625 -3 10 C-3.99 9.01 -4.98 8.02 -6 7 C-5.25 4.0625 -5.25 4.0625 -4 1 C-1.875 0.125 -1.875 0.125 0 0 Z " fill="#5D9E95" transform="translate(250,148)"/>
<path d="M0 0 C1.32 0 2.64 0 4 0 C4 1.98 4 3.96 4 6 C1.69 6 -0.62 6 -3 6 C-2.01 4.02 -1.02 2.04 0 0 Z " fill="#2F8972" transform="translate(150,146)"/>
<path d="M0 0 C3.77545388 1.09068668 6.47043472 1.9083091 9 5 C8.67 5.66 8.34 6.32 8 7 C7.34 6.34 6.68 5.68 6 5 C3.39719432 5.32041397 3.39719432 5.32041397 1 6 C0.34 4.35 -0.32 2.7 -1 1 C-0.67 0.67 -0.34 0.34 0 0 Z " fill="#419B7C" transform="translate(209,133)"/>
<path d="M0 0 C-0.33 0.66 -0.66 1.32 -1 2 C-1.66 1.67 -2.32 1.34 -3 1 C-3 1.66 -3 2.32 -3 3 C-3.66 3 -4.32 3 -5 3 C-5 2.34 -5 1.68 -5 1 C-5.66 1 -6.32 1 -7 1 C-7 1.66 -7 2.32 -7 3 C-8.32 2.34 -9.64 1.68 -11 1 C-10.34 1 -9.68 1 -9 1 C-9 0.34 -9 -0.32 -9 -1 C-3.375 -2.25 -3.375 -2.25 0 0 Z " fill="#298C72" transform="translate(213,51)"/>
<path d="M0 0 C1.50046875 0.00386719 1.50046875 0.00386719 3.03125 0.0078125 C4.0315625 0.00523437 5.031875 0.00265625 6.0625 0 C8.53125 0.1328125 8.53125 0.1328125 9.53125 1.1328125 C9.67240161 3.80340101 9.57372107 6.45713488 9.53125 9.1328125 C8.54125 8.8028125 7.55125 8.4728125 6.53125 8.1328125 C7.19125 8.1328125 7.85125 8.1328125 8.53125 8.1328125 C8.20125 6.4828125 7.87125 4.8328125 7.53125 3.1328125 C6.90476562 3.07222656 6.27828125 3.01164063 5.6328125 2.94921875 C4.81554687 2.86542969 3.99828125 2.78164062 3.15625 2.6953125 C1.93808594 2.57349609 1.93808594 2.57349609 0.6953125 2.44921875 C-1.46875 2.1328125 -1.46875 2.1328125 -3.46875 1.1328125 C-2.46875 0.1328125 -2.46875 0.1328125 0 0 Z " fill="#95C8BE" transform="translate(265.46875,151.8671875)"/>
<path d="M0 0 C1.32 0 2.64 0 4 0 C4 2.97 4 5.94 4 9 C3.34 7.68 2.68 6.36 2 5 C0.35 5.33 -1.3 5.66 -3 6 C-3.33 5.34 -3.66 4.68 -4 4 C-3.01 3.67 -2.02 3.34 -1 3 C-0.67 2.01 -0.34 1.02 0 0 Z " fill="#107F5E" transform="translate(165,133)"/>
<path d="M0 0 C0 0.66 0 1.32 0 2 C0.66 2.33 1.32 2.66 2 3 C-1.3674681 3 -3.99299978 2.68568426 -7.25 2 C-8.14203125 1.814375 -9.0340625 1.62875 -9.953125 1.4375 C-10.62859375 1.293125 -11.3040625 1.14875 -12 1 C-12 0.67 -12 0.34 -12 0 C-10.56359829 -0.19573608 -9.12580496 -0.38127816 -7.6875 -0.5625 C-6.88699219 -0.66691406 -6.08648437 -0.77132813 -5.26171875 -0.87890625 C-3 -1 -3 -1 0 0 Z " fill="#50A387" transform="translate(180,32)"/>
<path d="M0 0 C1.65 0 3.3 0 5 0 C5.1953125 6.0546875 5.1953125 6.0546875 5 8 C4.34 8.66 3.68 9.32 3 10 C3 7.36 3 4.72 3 2 C2.34 2 1.68 2 1 2 C0.67 2.99 0.34 3.98 0 5 C-0.33 4.34 -0.66 3.68 -1 3 C-0.67 2.01 -0.34 1.02 0 0 Z " fill="#1C4A7B" transform="translate(41,14)"/>
<path d="M0 0 C0.125 2.875 0.125 2.875 0 6 C-0.66 6.66 -1.32 7.32 -2 8 C-2.99 8 -3.98 8 -5 8 C-3.91891892 0 -3.91891892 0 0 0 Z " fill="#418D7E" transform="translate(246,154)"/>
<path d="M0 0 C0.66 0 1.32 0 2 0 C2 0.99 2 1.98 2 3 C4.12364481 3.22609337 4.12364481 3.22609337 5.625 1.5 C6.305625 0.7575 6.305625 0.7575 7 0 C6.67 2.31 6.34 4.62 6 7 C4.35 6.67 2.7 6.34 1 6 C0.67 4.02 0.34 2.04 0 0 Z " fill="#067D59" transform="translate(208,149)"/>
<path d="M0 0 C0.66 0.33 1.32 0.66 2 1 C1.67 1.99 1.34 2.98 1 4 C1.66 4 2.32 4 3 4 C3.33 5.32 3.66 6.64 4 8 C0.25 9.125 0.25 9.125 -2 8 C-1.125 1.125 -1.125 1.125 0 0 Z " fill="#053872" transform="translate(20,71)"/>
<path d="M0 0 C0.99 0 1.98 0 3 0 C2.67 1.65 2.34 3.3 2 5 C1.34 5 0.68 5 0 5 C-0.33 5.66 -0.66 6.32 -1 7 C-1.99 6.67 -2.98 6.34 -4 6 C-2.84826645 3.53199953 -1.95216435 1.95216435 0 0 Z " fill="#0B7A55" transform="translate(234,30)"/>
<path d="M0 0 C3.125 -0.1875 3.125 -0.1875 6 0 C6 0.66 6 1.32 6 2 C4.68 2 3.36 2 2 2 C2 2.66 2 3.32 2 4 C2.99 4.66 3.98 5.32 5 6 C2.625 6.1875 2.625 6.1875 0 6 C-0.66 5.01 -1.32 4.02 -2 3 C-1.34 2.01 -0.68 1.02 0 0 Z " fill="#6AAD9D" transform="translate(173,166)"/>
<path d="M0 0 C1.32 0 2.64 0 4 0 C4 1.98 4 3.96 4 6 C2.68 6 1.36 6 0 6 C-1.125 2.25 -1.125 2.25 0 0 Z " fill="#023A74" transform="translate(121,114)"/>
<path d="M0 0 C0.66 0.99 1.32 1.98 2 3 C1.67 3.66 1.34 4.32 1 5 C1.99 5 2.98 5 4 5 C3.67 5.99 3.34 6.98 3 8 C2.01 8.33 1.02 8.66 0 9 C-0.66 8.67 -1.32 8.34 -2 8 C-1.47731534 5.23723823 -0.89130413 2.6739124 0 0 Z " fill="#275283" transform="translate(36,27)"/>
<path d="M0 0 C0.721875 0.268125 1.44375 0.53625 2.1875 0.8125 C1.8575 2.1325 1.5275 3.4525 1.1875 4.8125 C-1.7825 4.8125 -4.7525 4.8125 -7.8125 4.8125 C-3.50480769 -0.23365385 -3.50480769 -0.23365385 0 0 Z " fill="#087953" transform="translate(173.8125,27.1875)"/>
<path d="M0 0 C0.66 0 1.32 0 2 0 C2 0.66 2 1.32 2 2 C3.2065625 2.309375 3.2065625 2.309375 4.4375 2.625 C5.283125 3.07875 6.12875 3.5325 7 4 C7.8125 7.125 7.8125 7.125 8 10 C7.62875 9.0409375 7.62875 9.0409375 7.25 8.0625 C6.20265017 5.82123176 6.20265017 5.82123176 4 5.375 C3.34 5.25125 2.68 5.1275 2 5 C1.34 4.34 0.68 3.68 0 3 C0 2.01 0 1.02 0 0 Z " fill="#309174" transform="translate(215,2)"/>
<path d="M0 0 C1.32 0.33 2.64 0.66 4 1 C3.67 2.32 3.34 3.64 3 5 C0 5 0 5 -3 4 C-3 3.34 -3 2.68 -3 2 C-2.01 2 -1.02 2 0 2 C0 1.34 0 0.68 0 0 Z " fill="#5FA396" transform="translate(208,164)"/>
<path d="M0 0 C0.33 0.99 0.66 1.98 1 3 C-3.29 3 -7.58 3 -12 3 C-12 2.67 -12 2.34 -12 2 C-7.8803623 0.70756464 -4.33168317 -0.26252625 0 0 Z " fill="#41877A" transform="translate(262,161)"/>
<path d="M0 0 C1.5 1.0625 1.5 1.0625 3 3 C3.1875 6.6875 3.1875 6.6875 3 10 C2.34 10 1.68 10 1 10 C1 9.01 1 8.02 1 7 C0.34 7 -0.32 7 -1 7 C-0.67 4.69 -0.34 2.38 0 0 Z " fill="#2B926F" transform="translate(209,142)"/>
<path d="M0 0 C4.74885845 2.31354642 4.74885845 2.31354642 5.9375 5.5625 C5.958125 6.366875 5.97875 7.17125 6 8 C5.34 8.66 4.68 9.32 4 10 C3.32845067 8.71086513 2.66291141 7.41859796 2 6.125 C1.62875 5.40570313 1.2575 4.68640625 0.875 3.9453125 C0 2 0 2 0 0 Z " fill="#49729A" transform="translate(109,112)"/>
<path d="M0 0 C1.65 0 3.3 0 5 0 C5 0.66 5 1.32 5 2 C8.96 2.33 12.92 2.66 17 3 C17 3.33 17 3.66 17 4 C15.10489301 4.08160748 13.20875496 4.13946459 11.3125 4.1875 C9.72888672 4.23970703 9.72888672 4.23970703 8.11328125 4.29296875 C4.63392401 3.96555119 2.7919812 3.05643142 0 1 C0 0.67 0 0.34 0 0 Z " fill="#66AC9B" transform="translate(210,54)"/>
<path d="M0 0 C0.99 0 1.98 0 3 0 C3 0.66 3 1.32 3 2 C3.99 2.33 4.98 2.66 6 3 C2.32589215 4.17571451 -1.16929183 4.07366746 -5 4 C-4.67 3.01 -4.34 2.02 -4 1 C-2.02 1.495 -2.02 1.495 0 2 C0 1.34 0 0.68 0 0 Z " fill="#41A281" transform="translate(209,44)"/>
<path d="M0 0 C2.00720923 0.28674418 4.0085944 0.61866701 6 1 C5.67 2.32 5.34 3.64 5 5 C3.35 5 1.7 5 0 5 C-0.5625 3.0625 -0.5625 3.0625 -1 1 C-0.67 0.67 -0.34 0.34 0 0 Z " fill="#2E5277" transform="translate(78,117)"/>
<path d="M0 0 C2.1519437 3.22791555 2.20086443 4.28400809 2 8 C0.02 8.99 0.02 8.99 -2 10 C-1.54177532 6.53058454 -1.10868317 3.32604951 0 0 Z " fill="#023972" transform="translate(50,65)"/>
<path d="M0 0 C4.29 0 8.58 0 13 0 C10.14521674 1.90318884 8.58058692 2.4619099 5.3125 3.125 C4.50425781 3.29257812 3.69601563 3.46015625 2.86328125 3.6328125 C2.24839844 3.75398438 1.63351563 3.87515625 1 4 C0.67 2.68 0.34 1.36 0 0 Z " fill="#71BAA3" transform="translate(215,48)"/>
<path d="M0 0 C1.98 0 3.96 0 6 0 C6.66 1.32 7.32 2.64 8 4 C5.69 4 3.38 4 1 4 C0.67 2.68 0.34 1.36 0 0 Z " fill="#048057" transform="translate(223,36)"/>
<path d="M0 0 C1.32 0 2.64 0 4 0 C3.67 1.65 3.34 3.3 3 5 C3.66 5.33 4.32 5.66 5 6 C4.01 6.495 4.01 6.495 3 7 C2.67 7.99 2.34 8.98 2 10 C1.34 9.67 0.68 9.34 0 9 C0 6.03 0 3.06 0 0 Z " fill="#0D7C56" transform="translate(162,152)"/>
<path d="M0 0 C2.97 0 5.94 0 9 0 C8.67 0.99 8.34 1.98 8 3 C7.67 2.34 7.34 1.68 7 1 C5.68 1.33 4.36 1.66 3 2 C3 2.99 3 3.98 3 5 C2.34 5 1.68 5 1 5 C0.67 3.35 0.34 1.7 0 0 Z " fill="#2F886A" transform="translate(228,133)"/>
<path d="M0 0 C0.66 0.33 1.32 0.66 2 1 C1.814375 1.78375 1.62875 2.5675 1.4375 3.375 C0.74037734 5.97089775 0.74037734 5.97089775 2 8 C1.34 8.66 0.68 9.32 0 10 C-0.38922918 8.71254964 -0.76098036 7.41980403 -1.125 6.125 C-1.43824219 5.04605469 -1.43824219 5.04605469 -1.7578125 3.9453125 C-1.83773437 3.30335937 -1.91765625 2.66140625 -2 2 C-1.34 1.34 -0.68 0.68 0 0 Z " fill="#345C8B" transform="translate(75,106)"/>
<path d="M0 0 C2.475 0.495 2.475 0.495 5 1 C4.25 5.75 4.25 5.75 2 8 C0.74335022 5.09399739 0 3.20395416 0 0 Z " fill="#39658B" transform="translate(106,103)"/>
<path d="M0 0 C0.99 0 1.98 0 3 0 C2.01 2.97 1.02 5.94 0 9 C-0.33 8.34 -0.66 7.68 -1 7 C-1.66 7 -2.32 7 -3 7 C-3 6.34 -3 5.68 -3 5 C-2.34 4.67 -1.68 4.34 -1 4 C-0.34786708 1.97536745 -0.34786708 1.97536745 0 0 Z " fill="#38618B" transform="translate(52,69)"/>
<path d="M0 0 C0 0.99 0 1.98 0 3 C-3.05263664 3.98120464 -4.94736336 3.98120464 -8 3 C-8 2.34 -8 1.68 -8 1 C-3.375 -1.125 -3.375 -1.125 0 0 Z " fill="#027F52" transform="translate(201,51)"/>
<path d="M0 0 C2 1.8125 2 1.8125 4 4 C4 4.99 4 5.98 4 7 C3.34 7 2.68 7 2 7 C1.67 7.66 1.34 8.32 1 9 C0 8 0 8 -0.09765625 6.15234375 C-0.06510417 4.1015625 -0.03255208 2.05078125 0 0 Z " fill="#127B57" transform="translate(234,19)"/>
<path d="M0 0 C1.98 0.495 1.98 0.495 4 1 C4 2.65 4 4.3 4 6 C3.34 6 2.68 6 2 6 C1.67 6.66 1.34 7.32 1 8 C0.34 7.34 -0.32 6.68 -1 6 C-0.625 2.875 -0.625 2.875 0 0 Z " fill="#25986D" transform="translate(209,6)"/>
<path d="M0 0 C1.5 1.375 1.5 1.375 3 3 C3 3.66 3 4.32 3 5 C4.98 5 6.96 5 9 5 C8.67 5.66 8.34 6.32 8 7 C5.66705225 7.04241723 3.33297433 7.04092937 1 7 C0 6 0 6 -0.0625 2.9375 C-0.041875 1.968125 -0.02125 0.99875 0 0 Z " fill="#537792" transform="translate(264,115)"/>
<path d="M0 0 C1.875 0.25 1.875 0.25 4 1 C5.25 3.0625 5.25 3.0625 6 5 C3.69 4.67 1.38 4.34 -1 4 C-0.67 2.68 -0.34 1.36 0 0 Z " fill="#345E86" transform="translate(258,98)"/>
<path d="M0 0 C0.66 0.33 1.32 0.66 2 1 C1.71758359 2.46015291 1.42373386 3.91809793 1.125 5.375 C0.96257813 6.18710938 0.80015625 6.99921875 0.6328125 7.8359375 C0 10 0 10 -2 12 C-1.85831863 10.56208484 -1.71148957 9.1246763 -1.5625 7.6875 C-1.48128906 6.88699219 -1.40007813 6.08648437 -1.31640625 5.26171875 C-1 3 -1 3 0 0 Z " fill="#38608B" transform="translate(48,79)"/>
<path d="M0 0 C0.33 0 0.66 0 1 0 C1 1.98 1 3.96 1 6 C1.66 6 2.32 6 3 6 C2.67 8.31 2.34 10.62 2 13 C-0.20914 9.68629 -0.22481553 8.6553979 -0.125 4.8125 C-0.10695312 3.91144531 -0.08890625 3.01039062 -0.0703125 2.08203125 C-0.04710937 1.39496094 -0.02390625 0.70789063 0 0 Z " fill="#469E80" transform="translate(208,22)"/>
<path d="M0 0 C1.231394 2.46278801 1.07159196 4.2795055 1 7 C-0.65 6.67 -2.3 6.34 -4 6 C-2.84826645 3.53199953 -1.95216435 1.95216435 0 0 Z " fill="#59A090" transform="translate(261,148)"/>
<path d="M0 0 C0.99 0 1.98 0 3 0 C2.4140625 6.15234375 2.4140625 6.15234375 2 8 C1.01 8.495 1.01 8.495 0 9 C0 6.03 0 3.06 0 0 Z " fill="#08386A" transform="translate(237,112)"/>
<path d="M0 0 C1.65 0 3.3 0 5 0 C5 0.99 5 1.98 5 3 C4.34 2.67 3.68 2.34 3 2 C3 2.66 3 3.32 3 4 C1.35 4 -0.3 4 -2 4 C-1.34 2.68 -0.68 1.36 0 0 Z " fill="#3FA17F" transform="translate(196,0)"/>
<path d="M0 0 C1.32 0 2.64 0 4 0 C4 0.66 4 1.32 4 2 C3.01 2 2.02 2 1 2 C0.67 3.32 0.34 4.64 0 6 C-0.66 6 -1.32 6 -2 6 C-1.125 1.125 -1.125 1.125 0 0 Z " fill="#114271" transform="translate(78,112)"/>
<path d="M0 0 C0.33 0 0.66 0 1 0 C1.33 2.31 1.66 4.62 2 7 C0.35 7.66 -1.3 8.32 -3 9 C-2.01 6.03 -1.02 3.06 0 0 Z " fill="#4D759E" transform="translate(9,95)"/>
<path d="M0 0 C0.66 0 1.32 0 2 0 C0.95125002 2.62187494 0.35068687 3.79371361 -2.125 5.25 C-2.74375 5.4975 -3.3625 5.745 -4 6 C-4.33 4.68 -4.66 3.36 -5 2 C-3.35 2 -1.7 2 0 2 C0 1.34 0 0.68 0 0 Z " fill="#328570" transform="translate(231,38)"/>
<path d="M0 0 C0.66 1.32 1.32 2.64 2 4 C1.401875 4.268125 0.80375 4.53625 0.1875 4.8125 C-1.97224808 5.98493467 -3.35790256 7.19369282 -5 9 C-3.7508258 5.54074837 -2.32472205 2.85306797 0 0 Z " fill="#80C5B1" transform="translate(207,149)"/>
<path d="M0 0 C1.0625 1.875 1.0625 1.875 2 4 C1.67 4.66 1.34 5.32 1 6 C-0.98 5.34 -2.96 4.68 -5 4 C-5 3.34 -5 2.68 -5 2 C-3.35 2 -1.7 2 0 2 C0 1.34 0 0.68 0 0 Z " fill="#067A5A" transform="translate(190,136)"/>
<path d="M0 0 C3.625 0.375 3.625 0.375 7 1 C7 1.99 7 2.98 7 4 C2.545 3.01 2.545 3.01 -2 2 C-1.34 1.34 -0.68 0.68 0 0 Z " fill="#6FAF9E" transform="translate(193,132)"/>
<path d="M0 0 C1.32 0.33 2.64 0.66 4 1 C3.67 2.65 3.34 4.3 3 6 C2.01 5.67 1.02 5.34 0 5 C0 3.35 0 1.7 0 0 Z " fill="#05396C" transform="translate(10,95)"/>
<path d="M0 0 C0.33 0.66 0.66 1.32 1 2 C2.65 1.67 4.3 1.34 6 1 C5.6875 2.9375 5.6875 2.9375 5 5 C4.01 5.33 3.02 5.66 2 6 C2 5.34 2 4.68 2 4 C1.01 4 0.02 4 -1 4 C-0.67 2.68 -0.34 1.36 0 0 Z " fill="#26558A" transform="translate(24,58)"/>
<path d="M0 0 C2 3 2 3 1.7578125 5.26171875 C1.54898438 6.06222656 1.34015625 6.86273438 1.125 7.6875 C0.92132813 8.49574219 0.71765625 9.30398437 0.5078125 10.13671875 C0.25644531 11.05904297 0.25644531 11.05904297 0 12 C-0.33 12 -0.66 12 -1 12 C-1.02698189 10.37509046 -1.04638757 8.75005367 -1.0625 7.125 C-1.07410156 6.22007812 -1.08570313 5.31515625 -1.09765625 4.3828125 C-1 2 -1 2 0 0 Z " fill="#54A383" transform="translate(179,144)"/>
<path d="M0 0 C2.375 0.1875 2.375 0.1875 5 1 C6.3125 3.5625 6.3125 3.5625 7 6 C6.01 6 5.02 6 4 6 C4 5.34 4 4.68 4 4 C3.01 3.34 2.02 2.68 1 2 C0.67 1.34 0.34 0.68 0 0 Z " fill="#04366D" transform="translate(110,112)"/>
<path d="M0 0 C0.33 0.66 0.66 1.32 1 2 C1.99 1.67 2.98 1.34 4 1 C3.67 2.65 3.34 4.3 3 6 C1.68 5.67 0.36 5.34 -1 5 C-0.67 3.35 -0.34 1.7 0 0 Z " fill="#2C5E92" transform="translate(11,90)"/>
<path d="M0 0 C2.64 0 5.28 0 8 0 C5 2 5 2 3 2 C3 2.66 3 3.32 3 4 C1.68 3.67 0.36 3.34 -1 3 C-0.67 2.01 -0.34 1.02 0 0 Z " fill="#214B74" transform="translate(265,67)"/>
<path d="M0 0 C0.99 0.66 1.98 1.32 3 2 C-3.625 2.25 -3.625 2.25 -7 0 C-4.28569464 -1.35715268 -2.88661718 -0.77445827 0 0 Z " fill="#579C88" transform="translate(223,43)"/>
<path d="M0 0 C2 3 2 3 1.625 5.6875 C1.41875 6.450625 1.2125 7.21375 1 8 C0.01 8 -0.98 8 -2 8 C-1.47731534 5.23723823 -0.89130413 2.6739124 0 0 Z " fill="#3F6A93" transform="translate(39,19)"/>
<path d="M0 0 C0.33 1.32 0.66 2.64 1 4 C0.01 4.33 -0.98 4.66 -2 5 C-2.66 4.67 -3.32 4.34 -4 4 C-4 3.01 -4 2.02 -4 1 C-2 0 -2 0 0 0 Z " fill="#028257" transform="translate(235,134)"/>
<path d="M0 0 C-0.33 0.66 -0.66 1.32 -1 2 C-3.3140622 2.73075648 -5.64828869 3.40138258 -8 4 C-8 3.34 -8 2.68 -8 2 C-7.34 2 -6.68 2 -6 2 C-6 1.34 -6 0.68 -6 0 C-3 -1 -3 -1 0 0 Z " fill="#72B3A0" transform="translate(282,132)"/>
<path d="M0 0 C0.66 0.33 1.32 0.66 2 1 C0.25 6.75 0.25 6.75 -2 9 C-2.33 8.01 -2.66 7.02 -3 6 C-2.67 5.34 -2.34 4.68 -2 4 C-1.34 4 -0.68 4 0 4 C0 2.68 0 1.36 0 0 Z " fill="#4C6D8D" transform="translate(35,112)"/>
<path d="M0 0 C2.21736634 1.10868317 4.03617993 2.49440461 6 4 C2.625 4.1875 2.625 4.1875 -1 4 C-1.66 3.01 -2.32 2.02 -3 1 C-2.01 0.67 -1.02 0.34 0 0 Z " fill="#449479" transform="translate(189,41)"/>
<path d="M0 0 C0.66 0.33 1.32 0.66 2 1 C-0.46153846 4.81538462 -0.46153846 4.81538462 -3.1875 5.75 C-3.785625 5.8325 -4.38375 5.915 -5 6 C-3.63016497 2.83884224 -3.0109362 2.0072908 0 0 Z " fill="#66AB94" transform="translate(170,26)"/>
<path d="M0 0 C0.6875 1.625 0.6875 1.625 1 4 C-0.4375 7.25 -0.4375 7.25 -2 10 C-2.6875 8.375 -2.6875 8.375 -3 6 C-1.5625 2.75 -1.5625 2.75 0 0 Z " fill="#60AA90" transform="translate(193,4)"/>
<path d="" fill="#DDF8FF" transform="translate(0,0)"/>
<path d="" fill="#DCEFF5" transform="translate(0,0)"/>
</svg>
