<svg xmlns="http://www.w3.org/2000/svg" width="4927" height="3133" fill="#0c6641" xmlns:v="https://vecta.io/nano"><path d="M3765 224h74c1.149 18.38 1.149 18.38 1.127 26.615l.005 2.875-.002 9.344.005 6.776v18.258l.001 19.154-.006 34.174.001 30.963.004 36.049.002 19.051-.005 17.882.001 6.562-.006 8.951.007 2.626c-.014 4.354-.26 8.432-1.134 12.72-2.916-2.625-4.866-5.729-7-9-1.039-1.225-1.039-1.225-3.25-1.437-3.371.536-4.619 1.854-6.621 4.559-6.644 11.059-6.416 25.867-6.508 38.355l-.051 3.678-.132 11.471-.143 11.578-.08 7.165-.041 3.26-.029 2.86A27.78 27.78 0 0 1 3814 555h-2l-1.75-2.437c-2.053-2.768-2.053-2.768-5.187-3.562-3.764 0-5.154.628-8.062 3-8.534 9.997-6.383 25.677-6.532 38.012l-.125 7.636-.016 2.361c-.07 3.797-.195 6.769-2.328 9.99l-.5-1.875c-1.97-2.79-4.058-3.27-7.332-3.937-3.469-.3-6.01.423-9.168 1.813-5.528 9.18-5.47 19.561-5.562 29.938l-.092 6.339-.074 5.695C3765 651 3765 651 3763 654l-3-2.062c-4.395-2.523-7.126-2.056-12-.937-2.402.924-3.67 1.46-5.025 3.676-2.313 7.017-2.49 13.854-2.6 21.199l-.164 7.242-.053 3.207C3740 689 3740 689 3739 692c-4-2-4-2-5.812-3.187-3.362-1.249-5.746-.658-9.187.188-4.535 2.68-6.6 6.017-8 11-.466 4.059-.556 8.104-.625 12.188l-.164 6.418-.053 2.848A28.63 28.63 0 0 1 3714 728c-4.875-1.875-4.875-1.875-6-3-4.709-.681-7.981-.753-11.875 2.125-4.108 5.558-5.572 10.132-5.75 17-.312 8.513-.312 8.513-1.375 11.875l-2.309-.359c-7.135-.891-12.62-.833-18.691 3.359-2.457 3.685-2.406 6.723-2.562 11-.32 7.647-.32 7.647-1.437 11l-3.875-.187c-5.389-.009-10.106 1.298-15.125 3.188l-2.254.641c-2.132 1.341-2.132 1.341-2.285 4.695l-.086 4.039c-.174 9.08-.174 9.08-2.375 11.625-2.448.853-4.672 1.467-7.187 2-7.996 1.772-7.996 1.772-14.812 6-.536 2.32-.688 4.51-.797 6.887-.203 2.113-.203 2.113-1.641 4.426-3.161 2.081-6.42 3.289-9.953 4.617-5.112 2.097-9.52 4.436-12.609 9.07l-.437 3.875c-.697 3.174-1.29 3.947-4.066 5.758C3579.117 851 3579.117 851 3576 851c-1.075 2.652-2.095 5.284-3 8 5.829-1.534 11.216-4.352 16-8l1.348-2.512c2.276-3.427 5.166-4.217 8.902-5.488 8.053-2.892 8.053-2.892 14.75-8 .396-2.331.396-2.331.563-4.875.344-2.637.344-2.637 1.438-5.125 3.32-2.236 6.706-3.758 10.363-5.348 4.756-2.161 9.037-4.834 12.637-8.652l.871-2.551C3641 806 3641 806 3643.645 804.559l3.168-1.121c6.201-2.226 10.443-5.051 14.375-10.375l1.48-1.965c1.45-2.283 2.402-4.564 3.332-7.098l2.125-.078c7.902-.472 13.799-1.609 19.313-7.547 1.782-3.848 2.164-7.006 2.387-11.203C3690 763 3690 763 3691 761l3.07.105 4.055.082 2.016.076c4.73.07 7.872-.726 11.859-3.264 2.407-3.611 2.352-5.703 2.563-10 .343-6.716.343-6.716 1.438-10l2.438.5c6.949.975 12.415 1.398 18.563-2.5 2.403-2.403 2.34-3.266 2.633-6.57l.254-2.715.238-2.84.262-2.863L3741 714l2.164.477c2.773.512 5.394.794 8.211.898l2.711.148c4.194-.753 7.135-2.244 9.914-5.523 1.102-3.25 1.292-6.399 1.438-9.812l.193-2.678.369-6.51 2.199.473c6.011 1.132 11.759 1.671 17.301-1.348 3.738-3.075 4.162-6.41 4.756-10.985.36-3.714.588-7.412.744-11.14l2.125.543c5.58 1.251 9.731 1.818 15.121-.23 3.203-2.397 5.301-5.389 6.225-9.313.294-2.187.496-4.361.654-6.562.87-10.648.87-10.648 2.875-13.437 2.924-1.146 5.902-1.557 9-2l2.534-.427c46.483-7.563 46.483-7.563 58.341-.448 3.019 5.032 2.269 12.091 2.254 17.82l.005 2.629-.002 8.551.003 5.973-.005 12.498.004 15.988v12.328l.002 5.894-.007 8.248.006 2.441c-.017 4.604-.376 8.963-1.136 13.505-2.452-2.452-3.536-5.014-5-8.125-.971-2.041-.971-2.041-3-3.875-2.369-.752-2.369-.752-5 0-9.987 10.23-10.105 27.065-10.281 40.543l-.056 3.293-.215 13.864-.167 10.156-.041 3.16-.051 2.954-.038 2.585c-.158 2.557-.594 4.948-1.151 7.446-1.5-1.375-1.5-1.375-3-3v-2c-3.73-1.194-7.108-1.41-11-1-5.673 4.254-7.905 10.167-9 17a220.99 220.99 0 0 0-.246 7.164l-.1 4.148-.131 6.491-.144 6.298-.076 3.792C3840 856 3840 856 3838 859l-2.437-2.062c-3.561-2.377-6.382-2.246-10.516-1.539-4.213 1.238-5.564 3.731-7.609 7.422-2.322 5.534-1.971 11.522-2.062 17.43l-.164 7.016-.053 3.118C3815 893 3815 893 3814 896l-1.562-.875c-4.732-2.184-7.941-3.505-13.125-2.187-4.903 3.053-6.487 6.587-8.312 12.063a80.96 80.96 0 0 0-.281 4.309l-.113 2.514-.105 2.615-.219 5.121-.092 2.291c-.189 2.142-.61 4.083-1.189 6.151-2.542-.61-4.852-1.321-7.312-2.25-4.77-.97-6.584-.333-10.687 2.25-4.847 4.559-5.44 9.851-5.75 16.25l-.109 4.141c-.108 2.784-.302 4.985-1.141 7.609a84.76 84.76 0 0 1-7-2c-6.097-.586-9.094.633-14 4-2.415 3.623-2.32 5.69-2.5 10-.278 6.667-.278 6.667-2.5 10-2.539.336-2.539.336-5.625.375-7.034.397-11.445 2.695-16.375 7.625-.384 1.907-.384 1.907-.5 4-.278 3.778-.278 3.778-2.5 6a149.98 149.98 0 0 1-6.25 1.188c-5.463 1.203-8.3 2.346-11.602 6.84-1.194 1.955-1.194 1.955-2.047 4.102-1.158 2.515-2.012 4.021-4.102 5.871-3.364.924-6.599 1.502-10.041 2.002-5.808.862-8.978 1.638-12.959 5.998-1.085 2.975-1.664 5.856-2 9l-2.781.516c-7.066 1.395-12.935 2.98-19.219 6.484h-2l.238 1.758c.09 2.871-.045 4.603-1.238 7.242-4.088 2.669-8.41 4.372-13 6v3l4.25.125 2.391.07c2.735-.226 4.152-.545 6.359-2.195l.668-2.805c2.057-4.933 5.97-6.117 10.645-8.32 9.158-3.888 9.158-3.888 15.688-10.875a156.06 156.06 0 0 1 7.188-1.75c6.219-1.529 10.178-2.798 13.813-8.25.963-3.722.963-3.722 1-7l2.676-.078c7.318-.346 13.437-1.264 20.215-4.082 2.109-.84 2.109-.84 4.109-.84l-.07-2.082-.055-2.73-.07-2.707C3715 1000 3715 1000 3717 997c2.25-.957 2.25-.957 5-1.812 5.145-1.742 9.452-4.073 14.004-7.016C3738 987 3738 987 3740 987l1-6 3.105-.297 4.082-.453 2.041-.187c4.729-.554 7.42-1.687 10.771-5.062 1.33-1.874 1.33-1.874 2.188-3.875l.973-2.09c.739-1.792 1.362-3.631 1.965-5.473C3767 961 3767 961 3769 960c2.205-.208 4.414-.367 6.625-.5 5.163-.335 10.252-.783 15.375-1.5l-.187-3.437c-.026-4.901 1.427-9.036 3.188-13.562h2v-2h5v-2h28v2h5v2l3 1c3.964 8.589 3.15 19.221 3.133 28.465l.003 3.5-.005 7.268.006 11.151-.004 7.08.006 3.371-.01 3.117-.002 2.742C3840 1011 3840 1011 3839 1014h-2l-1.75-1.937c-2.839-2.603-4.418-2.986-8.25-3.062-3.419.957-5.318 1.913-7.23 4.961-3.723 7.877-3.918 15.642-4.016 24.207l-.1 5.893-.131 9.223-.144 8.947-.025 2.787-.05 2.6-.031 2.278c-.307 2.38-1.093 4.03-2.272 6.104l-2.562-2.5c-2.588-2.142-3.5-2.51-7-3.062-4.25.696-5.616 1.283-8.437 4.563-4.787 9.131-4.629 18.48-4.687 28.5l-.102 6.961-.047 4.297c-.033 3.022-.199 5.349-1.163 8.242a56.54 56.54 0 0 1-7-4c-4.012-.446-6.243-.447-9.75 1.625-5.194 5.482-6.306 11.484-6.496 18.789l-.1 3.055-.172 6.336-.104 3.047-.076 2.776C3765 1157 3765 1157 3763 1160l-1.937-1.5c-4.125-2.02-7.546-2.091-12.062-1.5-3.366 1.317-4.616 2.418-6.598 5.422-1.927 4.918-1.893 9.465-1.965 14.703l-.129 5.883-.037 2.614c-.289 2.534-.998 4.187-2.271 6.378l-1.937-1.5c-4.118-2.017-7.556-2.357-12.062-1.5-3.829 2.044-6.492 4.935-8 9-.273 2.855-.463 5.64-.562 8.5-.34 8.534-.34 8.534-1.437 12.5-2.203-.472-3.886-.929-5.812-2.125-3.452-1.381-5.626-.841-9.187.125-3.072 1.511-5.081 3.151-7 6-1.185 4.303-1.602 8.565-2 13l-1 6-2.437-1c-5.864-1.646-10.524-2.075-16 .813-4.43 3.782-4.966 6.759-5.687 12.375l-.508 3.855L3664 1261l-3.289-.105-4.336-.082-2.16-.076c-4.874-.067-7.895.792-12.215 3.264h-2l.035 2.598c.094 11.883.094 11.883-1.035 17.402-1 1-1 1-3.441 1.027l-3.121-.09c-6.388-.061-11.39 1.047-17.437 3.063l-1 5-2.344-.07c-6.312-.109-11.619.237-17.656 2.07l-4 1-.184 3.027-.254 3.91-.246 3.902C3589 1310 3589 1310 3588 1311l1.802-.02 18.541-.145 6.923-.062 9.941-.067 3.135-.047 2.911-.001 2.564-.02c2.69.445 3.548 1.216 5.183 3.361 1.519 5.563 1.144 11.48 1.133 17.207l.003 3.273-.005 6.841.006 10.408-.004 6.666.006 3.116c-.019 5.91-.375 11.627-1.139 17.489-3.598 0-4.222-.895-7-3-3.272-1.267-5.634-.842-9 0v2h-2l-.812 2.188c-1.187 2.813-1.187 2.813-2.695 5.066-1.754 3.228-2.131 5.859-2.555 9.496-.246 2.092-.543 4.181-.937 6.25l-2 1-2.625-1.5c-4.282-1.903-6.984-2.072-11.375-.5-4.947 3.9-6.709 8.21-7.496 14.32l-.254 2.555-.609 5.117-.233 2.261L3589 1426l-2 1-3.25-1.5c-3.639-1.631-5.878-1.847-9.75-.5-5.419 4.258-8.326 9.852-9.75 16.5l-.25 2.5-2.125-.437L3559 1443l-2.937-.687c-3.59-.366-5.729.383-9.062 1.688l-2.25.375c-1.891.473-1.891.473-2.797 2.277-1.538 3.789-1.845 7.734-2.391 11.766L3539 1461c-2.65 1.325-4.144.794-7.062.375-5.596-.59-9.859.239-14.937 2.625-1.529 1.529-1.285 3.056-1.465 5.184l-.236 2.561-.461 5.375-.24 2.564-.203 2.361C3514 1484 3514 1484 3512 1486c-2.285.09-2.285.09-5.062-.062-4.866-.109-8.558.618-13.062 2.406-1.875.656-1.875.656-4.875.656l-1 5-3.289.113-4.336.199-2.16.068c-4.675.236-8.311.8-12.215 3.619-1.293 3.078-1.293 3.078-1.75 6.563-1.092 6.28-1.092 6.28-3.25 8.438-2.675.411-2.675.411-6.172.633l-1.965.127-6.613.366-2.341.125c-31.325 1.627-63.01 1.992-94.284-.625l-2.298-.191c-7.278-.627-14.273-1.488-21.327-3.434a111.09 111.09 0 0 0-6-.625l-2.875-.227L3315 1509c.346 6.465 1.781 10.992 6 16 4.268 2.884 8.153 1.846 13 1l2.438-.625L3338 1525c1 1 1 1 1.098 3.285l-.035 2.777-.027 2.785L3339 1536c4.282 1.029 8.481 1.198 12.863 1.281l2.275.056 7.174.163 9.426.219 2.147.041c4.77.117 9.417.368 14.114 1.24 2.518 3.777 2.45 6.974 2.617 11.367l.114 2.542c.362 8.847.421 17.694.399 26.547l.006 8.106-.004 5.258.006 2.396c-.057 13.619-.057 13.619-2.139 17.783l-1.836-.07c-7.368-.159-14.162.736-21.164 3.07-.806 2.106-.806 2.106-1.187 4.563l-.48 2.504L3363 1625l-3.07.078-4.055.172-2.016.043c-5.056.248-7.848 1.731-11.859 4.707h-2l-.75 3.375c-1.25 3.625-1.25 3.625-3.006 4.814-10.071 3.638-23.332 2.107-34 2.288l-6.74.144-2.061.025c-3.938.102-6.854.787-10.443 2.353-2.033.271-2.033.271-3.996.309l-2.193.076-4.484.094c-4.889.178-7.952 1.169-12.326 3.521-3.983.832-7.777 1.128-11.84 1.133l-3.428.006-3.669-.014-3.81-.01-27.312-.434-4.12-.102-5.766-.165-3.329-.095C3194 1647 3194 1647 3191 1645v-2l-2.203.035c-7.287.065-14.566-.041-21.797-1.035l-1-1c-1.932-.095-3.867-.133-5.801-.148-22.237-.553-22.237-.553-27.953-5.52-2.206-2.343-4.219-4.835-6.247-7.332-2.654-2.146-5.374-4.148-8.137-6.148-2.245-2.231-2.549-3.751-2.863-6.852h-8l1.25 1.25 1.75 1.75 2.08 1.674c2.619 3.172 2.404 5.21 2.389 9.287l.021 2.025.001 8.537.041 6.251-.014 3.763c.575 4.128 1.867 6.252 4.482 9.463 5.496 3.276 8.967 3.265 15 2 2.867-.96 2.867-.96 5-2 2.561 6.67 3.683 13.044 4.438 20.125 1.188 16.252 1.188 16.252 8.563 29.875v2h3c1.504-2.807 2.498-5.465 3.289-8.547l.664-2.559.672-2.645.695-2.691L3162 1688l2 1 .165 14.032.062 4.763c.274 17.102.274 17.102-3.226 24.205-2.109 1.22-2.109 1.22-4 2l1 2-8 3v1l-46.863.052-21.761.024-18.976.019-10.04.012-11.231.008-3.331.011c-16.603-.022-16.603-.022-21.799-3.124l-2-4c-3.492-3.632-8.173-4.351-13-5a113.96 113.96 0 0 0-4.375.188C2993 1728 2993 1728 2991 1726c-1.296-3.887-1.208-6.914-1-11-5.376-1.756-10.301-2.393-15.937-2.625l-2.361-.117L2966 1712c-1.379-2.759-1.038-5.108-1.062-8.187-.366-4.653-.793-7.693-4.062-11.125-5.771-4.291-13.075-3.245-19.875-2.687-1.119-2.237-1.179-3.614-1.281-6.098l-.113-2.428-.211-5.086c.208-4.02.208-4.02-1.395-7.389-2.908-.116-4.375-.101-7 1-2.741 2.717-4.817 5.829-7 9l-3.25 4.063c-5.571 7.607-6.16 14.688-6.539 23.84C2914 1710 2914 1710 2913 1711a155.85 155.85 0 0 1-5.437-.125c-5.96-.064-11.039.89-16.562 3.125-2.139 2.139-1.4 7.355-1.518 10.365-.189 3.644-.356 6.601-2.482 9.635-3.157 2.105-4.399 2.309-8.062 2.563-3.605.214-3.605.214-6.937 1.438-1.961.142-3.926.226-5.891.281l-3.59.113-3.77.105-7.328.219-3.294.092c-3.103.188-6.073.622-9.128 1.189l.063 3.25c-.049 2.948-.285 4.984-1.062 7.75l-2.344-.141c-6.737-.233-12.191-.133-17.656 4.141l-2.312 3.25c-2.687 2.75-2.687 2.75-5.121 3.063-1.903-.042-3.806-.119-5.707-.227-5.479-.165-10.304.877-14.859 3.914-.805 3.108-.805 3.108-1.187 6.625l-.48 3.602L2788 1778l-8.437-1.687c-3.801-.333-6.071.24-9.562 1.688v2h-2c-2.107 4.862-3.521 9.922-5 15l-2.5-1.5c-4.09-1.753-7.123-2.278-11.5-1.5-5.012 2.458-7.011 4.847-9 10-.492 3.788-.601 7.559-.687 11.375l-.104 3.098L2739 1824c-4 0-4 0-7-2-4.587-.816-7.977-.689-11.875 1.938-5.698 8.211-5.566 16.862-5.566 26.582l-.04 4.17-.072 10.9-.122 17.494-.023 6.089-.031 3.733-.013 3.282c-.256 2.786-.819 4.442-2.258 6.812l-1.059-2.555-1.379-3.32-1.371-3.305c-.687-1.626-1.402-3.242-2.191-4.82h-6c-13.716 20.81-9.626 57.486-6 81 .79 3.758 1.736 7.375 3 11l1 3h2v2l8-2 .586-2.266.789-2.984.773-2.953c.748-2.455 1.623-4.553 2.852-6.797.92 3.915 1.132 7.561 1.145 11.579l.019 3.974.003 4.268.01 4.396.007 9.194.031 11.786.013 9.069.013 4.347.001 6.067.004 3.487C2714 2040 2714 2040 2712 2043l-.883-1.715c-2.619-4.769-2.619-4.769-7.117-7.598-3.163.065-3.163.065-5.687 2.375-7.905 10.042-8.609 23.345-8.934 35.683-.153 4.744-.788 8.765-2.378 13.255-5.533 4.347-14.657 3.146-21.312 3.133l-3.294.003c-2.293.001-4.586-.001-6.879-.005-3.502-.005-7.005 0-10.507.006l-6.695-.004-3.163.006c-13.052-.042-13.052-.042-16.962-3.951-6.712-9.78-4.334-26.892-4.387-38.496l-.053-7.287-.149-20.681-.101-12.757-.026-4.794c-.032-14.516-1.225-29.203-8.472-42.172-3.228-2.152-4.284-2.201-8-2l-.75 2c-1.568 3.764-3.395 7.371-5.25 11h-1c-.894-12.511-1.144-24.954-1.129-37.494l-.005-5.989v-16.109l-.001-16.95.005-28.447-.002-32.779-.003-28.267-.002-16.829.005-15.826-.001-5.771c-.012-11.225.271-22.345 1.133-33.54 3.054 1.527 3.66 4.036 5.125 7.063l1.633 3.348L2598 1744c2.393.266 2.393.266 5 0 7.011-6.289 8.9-19.173 10-28 .103-2.179.165-4.361.189-6.543l.051-3.803.02-2.002.077-6.271.163-13.318.192-15.436.068-6.141c.083-6.243.277-12.312 1.24-18.485h2l1.688 2.438c2.161 2.862 2.161 2.862 5.813 3.5 3.536.063 4.656-.028 7.5-1.937 1.523-2.247 1.523-2.247 2.688-4.875l1.262-2.617c1.563-3.73 2.178-7.06 2.348-11.093l.121-2.729.117-2.92.13-3.01.397-9.506.275-6.449L2640 1589h2l1.813 1.938c2.573 2.426 3.667 2.981 7.188 3.063 3.865-1.2 6.292-2.096 8.813-5.312 2.465-5.578 3.535-10.636 3.82-16.711l.126-2.261.366-7.09.262-4.832L2665 1546c4.75 1.875 4.75 1.875 7 3 5.691.501 5.691.501 10.813-1.625 4.067-4.415 5.537-8.723 5.918-14.648l.244-3.496.213-3.605.248-3.676.564-8.949 2.031.683 2.691.864 2.656.87c4.097.911 6.695-.04 10.621-1.417l3-1c1.707-3.329 2.298-6.342 2.563-10.047l.227-2.809.422-5.836.227-2.793.184-2.554.379-1.962 2-1 2.125.938c5.1 1.885 9.826 1.872 14.75-.375 2.821-1.834 3.708-3.374 4.5-6.625.251-1.64.456-3.287.625-4.937l.328-3.031.672-7.969c3.081-1.027 4.107-.956 7.188-.437 5.566.698 9.92-.137 15.008-2.645 2.734-2.905 2.364-6.068 2.367-9.855.045-7.157.045-7.157 1.492-10.496 2.893-2.329 5.931-2.415 9.508-2.691l4.359-.437 2.131-.211c2.463-.287 4.846-.791 7.26-1.352 3.508-.771 6.66-.917 10.25-.812 5.312.129 9.559-1.039 14.438-3.062l.078-2.23c.57-9.814.57-9.814 4.922-13.77 3.381-1.691 7.221-1.291 10.957-1.426 3.531-.324 6.61-1.411 9.954-2.564 6.94-2.16 13.32-2.669 20.554-2.753l3.881-.086L2877 1409l2.212-.022 32.925-.105 9.703-.007 46.563.517 3.577.092c5.675.198 10.655.624 16.021 2.525v3c6.045 1.677 11.776 3.098 18.063 3.375 4.656.368 4.656.368 7.063 2.563.822 2.879.994 5.158 1.125 8.125.326 4.136.379 4.614 3.688 7.5 5.841 2.553 12.931 3.277 19.063 1.438 2.354 3.531 2.263 5.093 2.309 9.277l.076 3.744.094 7.82.08 3.748.041 3.433c.438 3.253 1.119 4.656 3.401 6.977 3.959.765 7.733-.313 11.227-2.207 4.116-2.921 7.733-6.078 9.773-10.793.579-3.872.537-7.701.496-11.609l.004-3.4-.034-7.111-.008-10.81-.025-6.93.009-3.233c-.095-7.607-.662-15.368-5.505-21.532-4.317-2.021-8.252-2.043-12.937-1.375-3.035 1.312-3.035 1.312-5 3-1-1-1-1-1.125-4.75-.834-8.146-5.427-16.415-11.375-22-3.333-2.494-6.311-3.171-10.5-3.25-1.341.301-2.677.628-4 1l.07 1.941c.114 5.457-.148 9.932-2.07 15.059-5.072 5.072-15.685 3.184-22.375 3.188l-3.906.037c-6.566.01-12.478-.083-18.719-2.225-2.767-3.128-2.554-7.989-3-12l-1-3c-2.424-1.17-2.424-1.17-5-2l-2-1a182.46 182.46 0 0 0-7.125-.062l-3.883.027-2.992.035c-1.871-3.186-2.249-5.544-2.273-9.219l-.054-3.059-.048-3.222c-.297-10.3-.778-19.537-7-28.187-3.052-2.689-4.568-3.397-8.625-3.312-3.236 1.505-5.613 3.362-8 6-1.595-1.595-1.135-3.26-1.145-5.469l-.019-2.885-.003-3.147-.01-3.227-.007-6.789-.039-10.324-.006-6.598-.022-3.098c.022-6.893.305-13.756 3.565-19.965 5.269-4.683 16.733-2.851 23.361-2.645 5.006.312 9.607 1.513 14.326 3.145l3.625 1.063c3.355 2.737 3.524 5.49 4.148 9.66.227 2.277.227 2.277.227 4.277l2.453.285c4.364.879 8.207 2.43 12.297 4.152l2.324.947c5.665 2.355 5.665 2.355 7.926 4.615.193 3.55.269 7.062.215 10.615.064 4.31.064 4.31 2.069 7.996 4.544 3.872 9.027 5.443 14.904 5.701 3.673.013 3.673.013 5.75-1.625 2.669-4.239 2.741-8.858 2.063-13.687-1.751-4.547-3.945-7.332-8.062-9.937-5.077-1.76-10.615-1.809-15.937-2.062l-.078-3.727-.172-4.898-.043-2.449c-.219-5.385-1.049-8.71-4.707-12.926-4.207-2.945-9.068-2.414-14-2-2.98.851-2.98.851-5 2-1.908-1.908-1.135-5.589-1.187-8.125-.268-5.581-.76-9.778-5.016-13.699-3.19-2.088-5.955-3.176-9.797-3.176-3.142.704-6.046 1.728-9 3l-.445-1.941c-1.623-6.258-3.736-10.67-8.555-15.059-4.238-2.119-9.118-1.252-13.5 0l-2.5 1c-1.163-2.326-1.065-3.793-1.125-6.375-.425-3.949-.597-4.388-3.812-7.125-6.128-2.767-12.593-2.915-19.062-1.5-2-2-2-2-2.247-4.65l.004-3.404-.009-3.853.022-4.182.001-4.275.023-8.965.02-11.494.013-8.83.006-4.238.022-5.925.012-3.407C2890 1145 2890 1145 2891 1142l2.414.359c6.934 1.109 6.934 1.109 13.211-1.297L2909 1139h2l1-3 2-1c1.134-2.017 1.134-2.017 2-4l3 1.563c5.245 2.251 9.462 1.155 14.875-.375 2.537-1.418 3.119-2.505 4.125-5.187l1-2c.278-3.635.447-7.269.621-10.91l.379-3.09 2-1 2.188.938c4.27 1.613 8.041 1.526 12.438.375 3.17-1.752 5.073-3.492 7.375-6.312.677-2.754.7-5.423.688-8.25a132.61 132.61 0 0 1 .313-7.75l2-1 2.563 1c4.901 1.426 9.659 1.378 14.313-.93 1.842-1.214 3.562-2.507 5.125-4.07.156-1.413.251-2.834.316-4.254l.127-2.588.119-2.721.131-2.732.307-6.705 2-1 3 1c6.25.51 11.665.694 17-3 2.544-3.816 2.412-7.128 2.563-11.562.318-8.199.318-8.199 1.438-10.437l1.664.48c4.857 1.08 10.647 1.639 15.316-.305 2.249-1.494 4.114-3.271 6.02-5.176.281-2.691.466-5.302.563-8 .319-7.763.319-7.763 1.438-10l3 1.063c4.35 1.235 7.581.879 12-.062 2.322-1.447 2.322-1.447 4-3h2c1.735-3.801 2.32-7.027 2.563-11.187.339-5.616.339-5.616 1.438-7.812l2.063.938c4.832 1.748 8.248 2.84 13.063.625 4.952-4.414 7.937-8.737 8.563-15.437l.074-2.242C3090 978 3090 978 3092 976l2.438 1.563c4.522 1.825 7.922 1.987 12.563.438 3.606-2.761 5.818-6.666 7-11 .441-3.327.753-6.654 1-10 4 0 4 0 7 1 4.73.388 7.055.481 11.313-1.687 3.709-3.191 5.472-5.704 6.129-10.609l.121-3.453c.129-3.484.129-3.484.438-6.25 2.667-1.334 3.72-.649 6.563.125 5.357 1.149 9.664.667 14.438-2.125 3.159-2.957 3.408-5.81 3.619-10.039l.068-2.211.104-2.258L3165 914c3-1 3-1 6 0 6.913.737 11.303 0 17-4 2.153-2.153 1.376-6.933 1.5-9.937l.219-4.965.092-2.234C3190 891 3190 891 3191 889l1.875.5c6.767 1.083 13.716 1.782 19.633-2.27 2.998-4.482 2.458-10.158 2.457-15.395C3215 868 3215 868 3216 865l1.672.473c6.11 1.384 12.398 1.674 17.953-1.535 3.298-2.78 3.86-5.333 4.222-9.578.088-1.997.104-3.997.118-5.996C3240 845 3240 845 3241 842l2.938 1.063c4.481 1.263 8.566 1.11 13.063-.062 3.572-2.204 5.462-4.134 7-8a100.5 100.5 0 0 0 .563-6.625c.34-6.181.34-6.181 1.438-8.375 2.169.506 4 1 6 2 4.077.392 6.483.253 10.188-1.562 5.486-4.754 6.937-8.623 7.5-15.687l.137-3.078C3290 799 3290 799 3291 796l1.723.949c4.488 2.071 9.302 2.679 14.027 1.176 6.237-5.89 7.809-12.23 8.109-20.621C3315 775 3315 775 3316 773l1.723.727c4.112 1.579 6.651 2.366 11.09 1.711 5.606-2.528 7.787-5.875 10.188-11.437.533-3.584.533-3.584.625-7.25.292-6.583.292-6.583 1.375-8.75 2.203.472 3.886.929 5.813 2.125 3.36 1.344 5.721.726 9.188-.125 3.989-2.266 5.967-4.885 7.449-9.242.913-4.571 1.051-9.201 1.173-13.854.121-3.801.22-5.666 2.378-8.904l2.438 1.563c5.103 2.059 9.678 1.611 14.762-.457 2.532-1.554 2.902-3.341 3.801-6.105l1-2 .5-8.5c.365-8.23.365-8.23 1.5-10.5l2.438 1c4.771 1.339 9.823 2.46 14.402.02 3.515-2.793 5.804-5.668 6.479-10.126l.095-2.222.117-2.422.094-2.5.117-2.547L3415 667l3-1 1.688.938c3.41 1.567 6.665 1.639 10.313 1.063 3.959-2.092 6.615-4.228 9-8 .497-2.307.497-2.307.512-4.766l.107-2.695.068-2.789.104-2.836L3440 640c4 0 4 0 7 1 4.993.677 8.794.58 13-2.375 3.322-2.768 3.322-2.768 4.189-6.64l.092-2.449.113-2.674.105-2.799.219-5.465.092-2.453C3465 614 3465 614 3466 611l2.438 1c5.845 1.641 10.507 2.046 16-.75 2.993-2.628 4.33-4.528 4.865-8.492l.076-2.418.104-2.654.08-2.748.191-5.41.073-2.414C3490 585 3490 585 3491 582l2 .938c4.583 1.623 8.857 2.411 13.688 1.625 4.112-2.779 6.82-7.05 7.778-11.933.175-2.469.232-4.904.222-7.379l.074-4.984-.001-2.194c.275-2.379 1.064-4.002 2.24-6.071l1.574.91c4.287 2.391 4.287 2.391 9.051 3.09 4.735-1.994 7.632-3.667 10.188-8.25 1.785-5.512 1.753-11.395 1.977-17.141.161-2.75.393-5.007 1.211-7.609l1.813.938c5.036 2.446 9.561 2.705 15 1.375 2.895-1.737 3.241-3.109 4.188-6.312l1.016-2.695c1.107-3.717 1.365-7.059 1.547-10.93.389-7.962.389-7.962 1.438-11.375 4.75 1.875 4.75 1.875 7 3 3.795.171 7.576.134 10.633-2.301 1.515-1.77 1.515-1.77 3.367-4.699l2-3c.347-1.977.347-1.977.379-4.125l.104-2.391.08-2.484.191-4.875.073-2.18C3590 469 3590 469 3591 466l2.063.938c4.946 1.789 8.502 2.476 13.625 1 3.673-2.148 5.742-4.021 7.313-7.937.572-4.06.605-8.092.625-12.187l.102-6.48.018-2.884C3615 436 3615 436 3617 433l2.438 2.063c3.539 2.348 6.331 2.296 10.445 1.617 4-1.284 6.11-4.017 8.222-7.504 1.093-2.657 1.199-4.806 1.274-7.676l.104-3.187.08-3.312.191-6.5.073-2.906c.156-2.333.519-4.356 1.174-6.594 4 2 4 2 5.813 3.188 3.362 1.249 5.746.658 9.188-.187 4.272-2.427 5.739-5.088 7.375-9.657 1.112-4.172 1.12-8.359 1.187-12.655l.129-5.301.037-2.337C3665 370 3665 370 3667 367l2 1.5c3.746 1.873 6.926 2.211 11 1.5 5.01-2.458 6.875-4.927 9-10 .479-3.13.479-3.13.477-6.387l.094-3.592.055-3.709.164-7.324.053-3.264C3690 333 3690 333 3691 330a56.54 56.54 0 0 1 7 4c3.915.435 6.219.436 9.688-1.5 6.847-7.402 6.896-14.654 6.938-24.312l.102-7.27.018-3.226C3715 295 3715 295 3717 292l3 2.063c3.581 2.03 6.113 2.382 10.141 1.617 3.779-1.381 5.948-4.167 7.969-7.522 1.059-2.565 1.193-4.597 1.27-7.369l.104-3.023.08-3.141c.367-12.478.367-12.478 1.438-17.625l2.438 1.5c4.371 1.84 7.887 2.403 12.563 1.5 4.028-2.155 5.954-4.909 8-9l1-27zm-176 850l-3 2v2l-2 1c3.931-.565 6.534-1.714 9.813-3.937l2.395-1.59L3598 1072v-2c-4.029 0-5.758 1.703-9 4zm-50 240c-1.219 2.504-1.219 2.504-2 5l-3.762.148-4.926.227-2.475.094c-4.339.211-7.881.549-11.838 2.531l-1 9-6 1v2c7.381.156 14.602-.244 21.938-1.062l3.111-.256c5.275-.393 5.275-.393 9.307-3.365.983-2.128.983-2.128 1.644-5.317l2.598-.113c6.454-.371 11.672-.822 17.402-3.887-.561-2.49-.561-2.49-2-5-4.306-1.86-8.028-2.247-12.687-2.187l-3.387.02c-2.989.044-2.989.044-5.926 1.168zm-247.75 179.125c-1.891 2.836-1.775 4.527-1.25 7.875 2.776 4.124 5.097 6.833 10 8 3.626.334 3.626.334 7 0 2.374-1.912 2.374-1.912 2.063-5.25-1.583-5.587-5.169-8.044-10.043-10.918-2.858-1.177-5.109-1.418-7.77.293z"/><path d="M1389 224h74l1 34c3.697 7.111 3.697 7.111 10 10 5.135.656 8.46-.821 13-3 1.603 1.603 1.147 3.341 1.176 5.559l.072 2.861.094 5.93c.195 6.72 1.154 12.797 4.658 18.65 3.499 3.131 6.285 3.837 11 4 3.217-1.358 3.217-1.358 6-3h3l.044 2.336.268 10.602.068 3.674c.275 10.032.275 10.032 3.619 19.389 2.436 1.61 2.436 1.61 5 2l2 1c4.754.423 7.05-.438 11-3h3l.028 2.168.222 9.832.043 3.41c.226 7.716 1.046 13.676 6.52 19.527 3.147 1.529 5.69 1.942 9.188 2.063 3.217-1.358 3.217-1.358 6-3h3l.044 2.06.268 9.377.068 3.24c.266 7.907 1.028 14.867 5.869 21.322 3.486 2.536 5.433 3.073 9.75 3 2.835-1.074 5.409-2.432 8-4 1.722 1.722 1.17 4.042 1.211 6.391l.086 3.34.133 6.992.094 3.355.06 3.075c.474 3.24 1.645 5.129 3.417 7.847v2c7.066 2.827 12.934 2.827 20 0 1.591 1.591 1.146 3.277 1.176 5.48l.072 2.779.094 5.797c.208 6.92 1.454 10.881 6.6 15.799 3.785 2.104 7.856 1.559 12.059 1.145 2.98-.851 2.98-.851 5-2 1.858 1.858 1.137 4.505 1.188 6.982.236 9.407.977 17.318 8.062 24.205 4.07 1.202 7.658.843 11.75-.187 2.498-1.385 2.498-1.385 4-3 1.121 2.243 1.151 3.546 1.211 6.035l.086 2.455.133 5.063c.272 7.197 1.415 13.651 5.883 19.447 3.145 2.34 4.77 3 8.688 3a110.36 110.36 0 0 0 7-3h3l.028 1.984.222 9.016.043 3.121c.213 6.697 1.159 11.159 4.707 16.879 3.408 3.029 6.455 3.46 10.996 3.305 3.024-.46 5.405-1.746 8.004-3.305 1.656 1.656 1.148 3.642 1.176 5.918l.072 3.053.094 6.375c.169 6.172.525 9.958 4.658 14.654 3.758 3.221 7.077 3.389 11.84 3.238 2.639-.291 4.805-1.023 7.16-2.238 1.558 1.558 1.145 3.098 1.176 5.262l.072 2.643.094 5.508c.218 6.915 1.517 10.447 6.471 15.4 3.808 2.067 7.299 2.707 11.529 1.543l2.397-.848 2.427-.847L1763 617l.078 3.805c.265 14.95.265 14.95 7.172 27.82 3.691 1.845 6.699 2.088 10.75 1.375 2.818-1.389 2.818-1.389 5-3h2l.12 2.292.63 10.333.188 3.605c.52 7.764 1.225 12.18 7 17.582 2.59 1.491 4.04 2.119 7.063 2.188 2.173-.896 4.184-1.936 6.23-3.09 1.77-.91 1.77-.91 3.77-.91l.12 2.216.63 9.972.188 3.486.234 3.369.19 3.094c.911 4.091 3.062 6.681 6.388 9.175 4.176 1.276 8.529 1.432 12.563-.312l1.688-1h3l.262 3.727.426 4.898.162 2.449c.551 5.897 1.834 8.818 6.15 12.926 2.978 2.039 4.957 2.211 8.5 1.75l2.281-.266c2.329-.508 4.141-1.332 6.219-2.484 1.689 1.689 1.308 3.889 1.465 6.207l.236 3.217.461 6.742.24 3.229.203 2.964c.561 3.75 1.542 5.895 4.395 8.391 6.435 2.681 12.611 1.584 19-.75l.12 1.757.63 7.931.188 2.764c.461 5.284.908 8.841 5.063 12.549 6.257 3.104 12.541 1.668 19 0l.104 1.757.583 7.931.162 2.764c.385 4.605.658 6.931 3.607 10.631 4.736 3.572 8.751 3.309 14.543 2.918 2.98-.851 2.98-.851 5-2 1.556 1.556 1.252 3.17 1.395 5.332l.209 2.67.383 5.586c.389 5.313.389 5.313 2.838 9.924 5.166 3.534 8.976 4.062 15.176 3.488 2.931-.867 2.931-.867 5-2 1.515 1.515 1.247 2.966 1.395 5.078l.209 2.52.383 5.258c.454 5.216 1.073 8.361 5.014 12.145 4.649 3.008 9.792 1.838 15 1l4-1 .297 3.324.453 4.363.188 2.186c.527 4.806 1.465 7.64 5.063 11.127 4.097 2.694 8.255 2.439 13 2 2.931-.867 2.931-.867 5-2 1.564 1.564 1.381 3.402 1.688 5.563 1.044 5.502 3.296 9.523 7.313 13.438 5.684 1.895 10.498 1.147 16-1 1 1 1 1 1.098 3.285l-.035 2.777-.027 2.785L2038 911h2l3.719 4.531c1.655 1.897 2.855 2.755 5.281 3.469 3.604.2 6.814.031 10.375-.562L2062 918c2.372 2.372 1.753 9.073 1.986 12.475l.221 2.428.171 2.234c.463 2.037.463 2.037 2.484 3.057 4.575 1.725 8.489 1.924 13.325 1.869l2.271-.014L2088 940l.12 1.788.63 8.024.188 2.814.234 2.705.19 2.491c.847 2.891 2.087 3.659 4.638 5.177 3.07 1.023 5.224 1.134 8.438 1.125l2.871.008c2.393-.118 4.405-.452 6.691-1.133 1.597 3.939 2.12 7.363 2.313 11.563.302 4.105.495 5.191 3.125 8.563 3.635 2.66 5.415 3.012 9.875 3l2.863.008c2.71-.127 5.184-.527 7.824-1.133l.262 2.633c1.081 9.327 1.081 9.327 6.738 16.367 5.532 3.439 12 1.312 18 0l.297 1.758c1.03 5.381 2.481 8.838 5.703 13.242v2c5.588 1.979 9.16 1.957 15 1h4l.262 2.922.426 3.828.387 3.797c1.104 4.117 2.401 5.19 5.926 7.453l1.813 1.25c5.006 1.716 10.142.82 15.188-.25 2.34 2.34 1.698 8.942 1.898 12.299.444 5.134.444 5.134 3.492 9.213 6.077 3.466 12.935 3.211 19.609 1.488 1.743 4.523 2.187 8.296 2.25 13.125.116 4.62.116 4.62 2.039 8.637 6.787 4.497 14.087 3.387 21.711 2.238l.227 3.105c.442 7.342.442 7.342 3.172 13.969 3.495 2.839 6.448 4.066 10.852 4.051l2.266.008c2.881-.154 5.648-.616 8.484-1.133l.48 2.414c1.904 8.847 1.904 8.847 7.52 15.586 3.506 1.738 6.456 2.376 10.293 1.441 1.941-.718 3.83-1.57 5.707-2.441 1.648 1.648 1.36 3.86 1.625 6.125.922 5.168 2.341 8.179 6.313 11.629 3.569 2.157 6.948 2.544 11.063 2.246 3.428-.805 3.428-.805 6-2 1.606 3.961 2.12 7.401 2.313 11.625.345 4.324.345 4.324 2.688 7.938 7.179 3.44 13.211 3.674 21 2.438 1.48 4.801 1.274 9.803 1.426 14.785.268 3.261.268 3.261 2.43 5.086 3.872 2.038 6.497 2.055 10.794 1.708 3.633-.238 6.728-.162 10.351.421 2.502 2.358 3.563 4.356 4.859 7.52 1.308 2.844 2.482 3.884 5.141 5.48 4.491 1.242 6.814.873 11-1h4l.516 3.559c1.234 8.291 2.589 16.523 4.484 24.691l.466 2.052c1.935 8.516 1.935 8.516 7.534 14.698 3.348-.314 4.84-1.511 7-4 1.205-2.26 1.205-2.26 2.188-4.687l1.043-2.449.77-1.863h1c1.279 7.887 1.16 15.786 1.174 23.753l.02 4.788.036 10.281.065 16.312.182 46.376.107 25.637.05 13.531c-1.897 37.433-1.897 37.433 10.366 71.322 3.11 1.037 4.069 1.274 7 0 1.069-1.946 1.069-1.946 1.625-4.312.872-3.102 1.851-5.842 3.375-8.687h1c.809 5.681 1.15 11.182 1.158 16.916l.015 2.586.026 5.523.053 8.786.149 24.97.101 15.317.026 5.788c-.492 21.199-.492 21.199 7.472 40.115 3.491 2.327 4.892 2.503 9 2 2.25-1.75 2.25-1.75 4-4l3-3c.81 3.563 1.133 6.867 1.158 10.518l.031 3.279.022 3.52.086 7.443.104 11.684.122 11.31.01 3.477c.129 8.613.749 17.57 5.529 24.957 2.608 2.439 3.634 2.778 7.25 3.188 4.597-.468 5.719-1.982 8.688-5.375h2c.783 2.779 1.131 5.267 1.158 8.151l.031 2.449.022 2.626.086 5.566.104 8.728.122 8.456.01 2.59c.162 8.07 1.447 16.597 7.467 22.434 2.587 1.897 3.757 2.01 7 1.875 3.402-.992 4.664-2.288 7-4.875h2c1.236 3.707 1.174 7.173 1.211 11.035l.086 4.893.104 7.675c-.302 17.001-.302 17.001 7.599 31.398 3.16 1.58 5.501 1.344 9 1 2.607-1.445 4.674-3.101 7-5 1.067 3.465 1.096 6.629 1.07 10.242.081 18.951 1.809 29.921 14.199 44.66 4.995 6.055 6.113 12.2 5.516 19.852-1.774 12.687-5.955 24.732-14.785 34.246l-3 1v2h-16v-2l-3.375-.312L2543 1837c-2-3-2-3-2-6-3.69-.555-7.362-1.052-11.078-1.395l-2.078-.209-4.234-.383c-3.209-.343-5.183-.616-7.582-2.854-1.468-3.087-1.221-5.796-1.027-9.16-5.454-.885-10.81-1.236-16.328-1.43l-5.359-.223-8.381-.322-8.135-.331-2.538-.076c-5.831-.274-5.831-.274-8.003-2.026C2465 1811 2465 1811 2465 1809h-2l-1.75-1.875c-4.265-4.028-8.36-4.203-14-4.062l-2.859.16L2442 1803c-2.108-3.162-2.338-4.507-2.625-8.187l-.227-2.73L2439 1790c-6.61-1.638-12.723-2.174-19.531-1.973C2417 1788 2417 1788 2415 1787l-1-3-6-5v-2c-5.911-.773-11.131-1.148-17 0l-1-4.25-.562-2.391C2389 1768 2389 1768 2389 1764c-7.763-2.944-14.744-3.349-23-3-1.99-5.705-2.341-11.081-2.559-17.109-.481-3.147-.935-4.03-3.441-5.891-5.785-3.331-13.723-2.674-20-1-1.481-4.442-1.355-9.016-1.518-13.664-.19-4.111-.37-7.692-2.482-11.336-4.814-3.357-9.99-3.111-15.562-2.187L2315 1711c-1.18-2.359-1.125-3.808-1.141-6.437-.289-16.616-3.668-25.03-14.859-37.562l-1.965-2.383L2295 1663c-2.601.351-2.601.351-5 1l-.152 1.912-.723 8.526-.238 3.01-.254 2.861-.222 2.65L2288 1685c-2.93 1.465-5.494.94-8.75.813-5.873-.06-8.972.154-13.25 4.188-1.537 1.537-1.323 3.118-1.535 5.254l-.264 2.588-.264 2.721-.275 2.732L2263 1710c-3.369.776-6.305 1.044-9.75.875-5.216-.078-9.451 1.177-14.25 3.125l-.184 1.898-.254 2.477-.246 2.461C2238 1723 2238 1723 2237 1725l-2.703-.035-3.547-.027-3.516-.035c-5.577.168-7.372 1.107-11.234 5.098h-2l-.625 3.875c-.352 2.18-.352 2.18-1.375 4.125-5.042 2.218-9.767 2.34-15.172 2.414l-2.72.059-8.858.152-6.245.113L2118 1741l-3.193-.026-20.355-.238-6.613-.081-9.205-.142-2.781-.019c-6.195-.145-6.195-.145-9.391-1.837-2.887-3.272-2.592-6.666-2.606-10.823l-.019-3.853-.003-4.167-.01-4.27-.007-8.948-.031-11.47-.013-8.817-.013-4.229-.001-5.91-.004-3.398c.247-2.77.247-2.77 2.247-5.77l3.063 2.063c2.797 1.562 4.056 1.944 7.375 2.125 5.203-1.734 8.752-3.301 11.563-8.187 1.122-5.631 1.032-11.42.922-17.14.078-1.86.078-1.86 1.078-3.86 2.169.506 4 1 6 2 4.008.645 7.556.867 11.113-1.27 4.356-3.613 4.356-3.613 6.092-8.793l.111-2.507.127-2.715.119-2.84.131-2.863.307-7.012c-4.328.303-4.328.303-7.687 2.785l-1.312 2.277-1.484 2.438-1.516 2.5c-1.061 1.536-2.143 3.058-3.25 4.563l-1.453 2.004L2096 1634h-2v2c-3.179 2.119-4.938 2.493-8.656 3.07l-3.348.527-3.496.527-3.496.551c-8.533 1.324-8.533 1.324-12.004 1.324l.188 2.813C2063 1648 2063 1648 2062 1649.75c-6.093 3.808-13.487 3.59-20.452 3.821-3.684.155-5.405.334-8.548 2.429-2.687.125-2.687.125-5 0v2h-29v-2l-3.375-.312L1992 1655l-2-3c-2.151-.551-2.151-.551-4.648-.625l-2.797-.203-2.93-.172-5.711-.375-2.564-.148c-2.826-.573-4.291-1.472-6.35-3.477v-3l-2.187-.168-9.75-.77-3.443-.264-3.271-.264-3.031-.238C1941 1642 1941 1642 1940 1641c-2.379-.148-4.732-.235-7.113-.281l-2.196-.056-7.003-.163-24.543-.844-2.751-.162c-2.831-.584-4.291-1.533-6.394-3.494-.766-2.41-.766-2.41-1.25-5.062-.658-2.657-.658-2.657-1.75-4.937-5.594-2.644-11.346-2.151-17.461-1.973C1867 1624 1867 1624 1865 1623c-.731-2.314-1.401-4.648-2-7-6.833-1.972-12.906-3.367-20.039-2.812L1841 1613c-2.374-3.561-2.253-5.095-2.259-9.32l-.019-3.955.012-4.28-.006-4.39.011-9.205-.007-11.779v-9.07l-.005-4.342.014-6.081.005-3.492c.254-3.089.941-5.298 2.254-8.087 11.369-1.608 22.45-2.199 33.938-1.926l2.957.051 2.62.07c2.813-.221 4.929-1.032 7.485-2.195l.184-3.43.254-4.445.119-2.262c.33-5.637.33-5.637 1.443-7.863l2.633.324c8.671 1.144 8.671 1.144 16.367-2.324 3.101-3.184 4.494-5.575 5-10-5.388-.313-8.693.483-13.5 2.875-11.082 5.114-22.96 5.302-34.979 5.784l-2.306.094-2.028.073c-2.315.149-2.315.149-5.079.681-3.076.488-5.942.622-9.053.626l-3.469.007-3.711-.014-3.888-.012c-18.578-.106-37.054-.642-55.549-2.488l-3.643-.345-3.361-.366-2.967-.314c-2.761-.672-3.782-1.343-5.467-3.6-.512-2.48-.512-2.48-.687-5.187l-.199-2.73L1764 1498c-6.584-2.016-12.866-2.274-19.707-2.363L1741 1495c-1.641-2.465-1.641-2.465-3-5-2.29-.999-2.29-.999-4.937-1.25l-2.922-.414c-5.041-.539-10.081-1-15.141-1.336l-.48-2.266c-1.402-6.24-1.402-6.24-5.02-11.359-4.389-2.414-7.678-2.456-12.625-2.375-2.291.037-4.584.047-6.875 0-1-1-1-1-1.062-4.062L1689 1464l-2.25-.875c-2.75-1.125-2.75-1.125-4.477-2.199-4.176-1.701-8.721-.892-13.156-.703L1666 1460c-2.857-4.286-2.291-8.746-2.215-13.752-.05-2.22-.172-4.112-.785-6.248-4.908-4.453-9.618-4.97-16-5-2.366.226-4.655.601-7 1-2.152-2.152-1.248-7.865-1.254-10.922-.144-4.123-.424-5.68-3.117-9.008-4.162-3.278-7.529-4.349-12.754-3.758-2.116.375-4.231.779-6.312 1.313L1615 1414c-2.287-2.287-1.302-8.849-1.342-12.123-.189-5.386-1.017-8.644-4.658-12.877-3.198-2.301-6.498-3.168-10.414-2.73-1.546.35-3.084.743-4.605 1.188-1.98.543-1.98.543-4.98.543l-.028-1.693-.222-7.744-.043-2.662c-.287-7.769-2.35-13.693-6.957-19.963-3.011-2.121-5.063-2.596-8.746-2.379-3.306.728-5.378 2.341-8.004 4.441-1.532-1.532-1.135-2.923-1.145-5.057l-.019-2.611-.003-2.844-.01-2.912-.007-6.121-.039-9.336-.006-5.943-.022-2.813c.017-4.805.163-8.929 2.252-13.363 6.603-4.402 14.783-3.184 22.438-3.187l3.971-.037 3.838-.006 3.49-.012c5.128.382 8.786 1.434 12.264 5.243 3.111 1.037 5.495 1.2 8.762 1.316l3.389.127 3.537.119 3.572.131 8.74.307-1-2c-.229-2.037-.41-4.08-.562-6.125l-.254-3.32L1638 1297c-5.396-2.702-9.446-3.401-15.437-3.187l-2.217.041-5.346.146-1-7-2.187-.152-9.75-.723-3.443-.238-3.271-.254-3.031-.222L1590 1285c-1.794-3.589-1.296-7.874-1.426-11.836-.673-3.71-1.666-4.852-4.574-7.164-5.814-3.322-12.704-2.377-19-1-1.586-1.586-1.464-3.506-1.812-5.687-1.106-5.695-2.922-9.524-7.562-13.187-5.506-2.36-10.186-.866-15.625.875-1.586-1.586-1.464-3.506-1.812-5.687-1.153-5.894-2.912-9.709-7.937-13.25-4.901-1.602-8.705-.715-13.687.563L1515 1229c-1.746-1.746-1.167-4.04-1.24-6.372-.286-8.585-1.384-13.925-6.51-21.065-3.246-2.254-6.32-2.797-10.25-2.562-2.783 1.335-2.783 1.335-5 3h-3l-.104-2.352-.583-10.648-.162-3.699c-.445-7.152-1.151-12.882-6.15-18.301-3.695-2.463-6.711-2.695-11-2-2.306 1.117-3.98 2.384-6 4-1.906-1.906-1.29-5.312-1.395-7.852l-.209-4.27-.295-6.734-.308-6.497-.171-3.932c-.856-5.118-2.862-8.768-6.372-12.654-3.39-1.601-6.569-1.654-10.25-1.062-2.285 1.4-2.285 1.4-4 3h-3l-.12-3.238-.515-12.021-.209-5.179c-.138-13.895-.138-13.895-5.156-26.562-3.227-2.941-5.612-3.511-10.035-3.371-3.019.57-4.774 2.309-6.965 4.371h-2l-.437-6.062-.143-2.059c-.327-5.153-.48-10.294-.568-15.456l-.127-6.172-.052-4.081c-.07-8.892-.191-18.647-6.076-25.899-2.247-1.788-4.571-2.259-7.389-2.552-4.227.539-7.158 3.483-10.207 6.281-.987-12.055-1.111-24.099-1.125-36.187l-.008-2.318c-.021-7.936.05-15.868.453-23.795l.172-3.556c.551-3.414 1.433-5.394 3.507-8.143 6.639-3.082 14.263-2.33 21.438-2.312l3.893-.049c12.749-.007 12.749-.007 18.67 3.361.697 2.612.697 2.612 1 5l2.08.26 9.295 1.178 3.273.408 3.125.4 2.888.365C1460 962 1460 962 1462 963c.914 2.743 1.101 4.277 1.07 7.09l.031 2.377c.016 1.643.008 3.287-.023 4.93.038 4.439.038 4.439 2.321 8.05 3.834 2.384 7.261 3.036 11.789 2.866l3.043-.074c2.381-.205 4.484-.567 6.77-1.238l1 4h2v2h2l5 5c4.022 2.519 8.007 2.411 12.637 2.656l2.363.344c1.607 3.215 1.057 6.436 1 10l7.5 1.438 2.109.408c3.614.686 7.204 1.272 10.859 1.689C1537 1015 1537 1015 1538 1016l.25 4.813c.405 4.16.405 4.16 2.688 7.625 6.697 3.417 13.621 4.874 21.063 5.563l1 3c1.973.744 3.98 1.397 6 2l6.563 3c3.073 1.448 6.119 2.874 9.277 4.125 2.16.875 2.16.875 3.16 1.875.072 1.686.084 3.375.063 5.063l-.027 2.785L1588 1058c6.286 2.286 12.346 2.434 19 2l2-1c-.322-2.9-.806-4.726-2.5-7.125-3.537-2.653-7.293-3.647-11.5-4.875l-6-2v-3.25c-.647-3.991-.647-3.991-4.125-6.062-5.32-2.276-11.078-2.692-16.777-3.293C1565 1032 1565 1032 1564 1031l-.062-6.812c-.223-4.808-.223-4.808-2.254-9.004-6.264-3.666-14.666-2.513-21.684-2.184l-2.437-4.812-1.371-2.707C1535 1003 1535 1003 1534 1000c-2.376-1.184-2.376-1.184-5-2l-3-1c-1.874-.044-3.75-.04-5.625 0-1.791.038-3.584.047-5.375 0-1.547-1.547-1.076-3.168-1.125-5.312-.421-4.013-.577-4.439-3.875-7.187-6.594-2.959-13.043-2.66-20-1.5-2.36-2.36-1.463-8.195-1.621-11.387-.581-6.204-.581-6.204-4.078-11.074-7.097-3.263-12.653-2.658-20.301-1.539l-.12-1.94-.63-8.747-.187-3.053c-.565-7.46-.565-7.46-5.062-13.26-4.097-2.694-8.255-2.439-13-2-2.931.867-2.931.867-5 2-1.669-1.669-1.286-3.771-1.43-6.066l-.223-3.162-.422-6.586c-.524-7.248-1.126-13.876-5.988-19.623-3.653-2.946-6.273-2.951-10.937-2.562-3.383 1.865-3.383 1.865-6 4-1.995-1.995-1.276-5.95-1.359-8.691l-.195-4.803-.269-7.576c-.071-12.948-.071-12.948-6.177-23.929-3.754-2.243-6.63-2.383-11-2-2.764 1.408-2.764 1.408-5 3h-2c-.597-6.867-1.013-13.699-1.148-20.59l-.084-3.563-.111-7.075c-.173-7.102-.856-13.605-4.656-19.772-3.209-2.96-5.617-3.511-10.035-3.371-3.019.57-4.774 2.309-6.965 4.371h-2c-.612-8.415-1.018-16.806-1.148-25.242l-.127-6.75-.052-4.463c-.081-11.182-.417-25.054-8.672-33.545-3.389-1.496-3.389-1.496-7-1-2.847 2.683-2.847 2.683-5 6a100.52 100.52 0 0 1-3 3l-1.219-36.457-.056-3.075-.245-15.349c-.147-9.238-.437-18.427-1.328-27.627l-.206-2.299c-.604-5.556-1.737-10.942-5.778-15.061-2.625-1.372-4.929-1.828-7.855-2.258-5.227-.789-5.227-.789-6.312-1.875-.402-6.063.112-12.007 1-18h2v-3h5v-5h29v5h4v3h2l1 9 2.064.076 9.249.362 3.248.119 3.115.127 2.872.111C1383 630 1383 630 1386 631c1.133 2.617 1.133 2.617 2.125 5.875l1.008 3.242L1390 643l1 3h2v2c6.622 2.584 12.113 2.209 19 1l.48 3.473.707 4.59.307 2.279c.885 5.528 2.65 9.542 6.506 13.658 3.71 2.473 6.698 2.559 11 2 3.402-1.365 3.402-1.365 6-3l.262 2.598c1.121 9.74 1.121 9.74 6.738 17.402 4.773 2.777 7.683 3.387 13 2l2.875-.562L1462 693c1.144 3.432 1.071 6.199 1.125 9.813.374 6.2.374 6.2 3.938 11 4.544 3.014 8.894 3.723 14.223 2.785 1.923-.465 3.822-1.023 5.715-1.598 1.12 2.239 1.151 3.543 1.211 6.027l.086 2.4.133 5.008.094 2.404.06 2.199c.529 2.489 1.475 3.365 3.417 4.961 5.951 3.427 13.547 2.457 20 1 1.537 1.537 1.127 2.976 1.141 5.113l.059 2.533.055 5.297c.094 5.353.094 5.353 3.168 9.6 3.887 2.197 5.96 2.593 10.453 2.582l3.18.008c2.508-.113 4.537-.517 6.945-1.133 1.813 1.813 1.173 4.805 1.25 7.25.35 5.321.35 5.321 3 9.875L1544 782l2.277 1.621c3.302 1.672 5.368 1.488 9.035 1.316 4.373.212 6.051.39 9.102 3.613 1.961 3.101 3.774 6.26 5.586 9.449 3.939 4.887 9.765 6.691 15.488 8.789L1588 808l1 3 5 4v2l1.727.82c3.178 1.649 6.063 3.654 9.016 5.672 1.352.903 2.727 1.775 4.141 2.578 1.617.93 1.617.93 4.117 2.93l.219 2.809c.988 4.035 2.376 4.839 5.748 7.021l2.034 1.233 2.053 1.309c4.353 2.747 8.788 5.318 13.408 7.594C1638 850 1638 850 1639 853c4.484 3.71 9.341 6.549 15 8-3.343-4.304-6.191-7.937-11.312-10.062-2.031-.875-2.031-.875-3.687-1.937-1.312-3.562-1.312-3.562-2-7-1.52-1.773-1.52-1.773-3-3v-2h-2v-2l-2.312-.687c-13.003-4.628-13.003-4.628-15.687-7.312l-.125-4.687c-.374-3.905-.907-6.055-3.812-8.75-4.286-3.124-8.976-4.321-14.062-5.562l-7-2-.043-3.105-.145-4.082-.018-2.041c-.169-3.841-.679-5.628-3.115-8.646-5.888-4.669-11.259-5.473-18.676-5.133L1565 783c-1.526-1.526-1.127-2.918-1.141-5.043l-.059-2.506-.055-5.219c-.181-6.15-1.259-8.967-5.746-13.232-3.948-2.286-7.495-2.328-12-2-2.201.933-2.201.933-4 2h-3l-.028-1.785-.222-8.153-.043-2.807c-.231-6.573-1.64-11.457-4.707-17.256l-1.187-2.5c-3.123-2.585-6.855-2.709-10.812-2.5-2.837 1.317-2.837 1.317-5 3h-3l-.028-2.611-.179-9.712-.063-4.181c-.107-13.337-.107-13.337-6.667-24.535-2.496-1.163-4.312-1.361-7.062-1.336l-2.562-.023c-2.882.471-4.204 1.579-6.437 3.398h-2l-.12-2.611-.515-9.712-.209-4.181c-.511-11.797-.511-11.797-5.156-22.496-2.748-2.387-4.363-2.905-7.937-3.437-3.833.548-5.964 2.184-9.062 4.438h-2l-.136-3.285-.554-12.138-.229-5.24-.35-7.559-.086-2.343c-.347-6.445-1.917-11.114-5.832-16.372-3.248-2.382-4.952-2.734-8.883-2.504-2.962.678-4.757 2.396-6.93 4.441h-2l-.136-3.988-.554-14.744-.229-6.363-.35-9.182-.086-2.842c-.325-7.345-1.39-13.955-5.957-19.881-3.099-2.306-4.829-3-8.687-3-3.529 1.604-4.828 2.742-7 6h-2c-.581-10.227-1.061-20.441-1.211-30.684l-.043-2.68-.147-10.81c.275-19.897.275-19.897-7.903-37.436-2.822-2.315-5.102-2.391-8.695-2.391l-.812 1.688c-1.296 2.525-2.612 4.95-4.187 7.313h-2c-1.077-25.105-1.149-50.188-1.134-75.312l-.001-16.95.005-28.375-.002-32.705-.003-28.275-.002-16.806.005-15.755-.001-5.75.006-7.897-.007-2.25c.024-6.718.613-13.162 1.134-19.925zm233.195 840.492L1621 1066c1.372 3.297 2.682 4.761 5.75 6.563l2.145 1.285c2.287 1.292 2.287 1.292 5.543 2.652l2.563 1.5.375 2.5c.336 2.573.336 2.573 2.203 3.488 4.594 1.85 8.504 2.319 13.422 2.012l1-4-1.539-.77-4.285-2.172c-2.345-1.187-2.345-1.187-5.613-2.309-2.562-1.75-2.562-1.75-2.977-3.609l-.281-4.27c-.155-2.098-.155-2.098-2.242-3.809-7.684-2.703-7.684-2.703-14.867-.57zM1674 1316c3.219 2.277 6.115 4.117 9.813 5.5 3.188 1.5 3.188 1.5 4.125 3.688L1688 1327c10.38 3.171 21.152 4.459 32 4-2.676-2.185-2.676-2.185-5-2l-1-5-7.562-1.937-2.135-.553c-3.44-.872-6.716-1.563-10.248-2.014L1691 1319c-1.312-2-1.312-2-2-4-2.602-1.301-4.597-1.168-7.5-1.187l-2.969-.043c-2.701-.026-2.701-.026-4.531 2.23zm248 180c-2.107 2.406-4 4.68-4 8 5.56 1.568 9.949.57 15-2 2.265-2.215 2.265-2.215 3-5-.213-2.742-.213-2.742-1-5-5.349-2.173-8.911.637-13 4z"/><path d="M0 2038h25v2h6v2l3 1c1.448 2.896 2 4.742 2 8l3.016-.055c3.983.055 7.786.414 11.734.93l3.922.492C58 2053 58 2053 61 2055v3l21.863.11 7.406.041c15.707.109 31.119-.378 46.731-2.151l.734-2.152 1.016-2.785.984-2.777C141 2046 141 2046 143.141 2045.184L145 2045v-2h7v-2h21v-3h29v3h4v2h2c3.449 8.698 4.158 16.242 4.168 25.566l.01 3.369.007 7.032.039 10.757.006 6.842.022 3.245-.009 3.034.004 2.657c-.283 2.857-.945 4.94-2.247 7.497-3.899 2.599-7.448 2.713-12 3l-2.941.199c-6.209.23-10.498-.423-16.031-3.234-4.01-1.908-7.576-2.352-11.84-1.215-2.476 1.199-2.476 1.199-4.187 4.25-.305 2.706-.305 2.706-.261 5.814l-.021 3.675.008 4.038-.015 4.248-.011 11.541-.009 9.626-.005 22.698-.028 23.444-.02 20.11-.015 12.019.002 11.295-.009 4.153.01 5.653-.001 3.201L163 2260c3.181 2.121 4.033 2.273 7.688 2.25l2.449.016c3.035-.199 3.035-.199 6.551-1.266 4.069-1.035 7.988-1.281 12.175-1.253l2.27-.009 7.463.005 5.378-.011h14.559l15.257-.003 25.615.011 29.594-.004 25.435-.005 15.18-.003 14.27.01 5.23-.003 7.151.011 2.079-.014c4.527.037 8.348.933 12.656 2.267 3.608.212 6.533-.072 10-1 1.401-9.824.315-16.57-3.541-25.615-1.656-4.446-1.859-8.383-1.783-13.089l.004-2.517.063-8.17.02-5.731.09-15.058.126-24.053.058-8.348c.546-14.912.546-14.912-2.036-29.419-1.917-.833-1.917-.833-4-1l-2 1c-3.28 9.839-2.407 21.814-1.762 32.05.855 13.639.85 27.229.63 40.89l-.112 11.339-.111 7.295-.013 3.381c-.149 6.864-1.282 12.024-4.631 18.045l-2-1-1-125c-5.902-2.361-9.996-2.576-16.062-1-8.655 2.086-22.347 2.935-30.437-1.312-2.757-3.102-2.628-6.66-2.645-10.665l-.019-2.995-.003-3.223-.01-3.341-.007-7.005-.039-10.646-.006-6.82-.022-3.186c.024-7.923.415-15.719 4.252-22.806h2v-2h6v-2l-2-1c17.368-.12 34.654.036 52 1v2h6v2l1.922.711C385 2045 385 2045 385.828 2047.164l.422 2.461.453 2.477L387 2054l2.095.168 9.342.77 3.299.264 3.135.264 2.904.238C410 2056 410 2056 411 2057c5.657 1.062 11.205 1.161 16.949 1.168l2.833.01 5.897.007 9.025.039 5.744.006 2.721.022 2.539-.009 2.224.004c2.382-.285 3.962-1.127 6.066-2.247 2.657-.411 2.657-.411 5.641-.633l3.242-.254 3.367-.238 3.414-.262L489 2054l.078-1.898.172-2.477.141-2.461c.609-2.164.609-2.164 2.656-3.453L494 2043v-2c3.391-2.051 5.994-2.246 9.926-2.23l3.573.004 3.813.039 3.893.02c11.612.092 23.201.523 34.794 1.168l-2 1v2l3.375.25 3.625.75c1.313 2 1.313 2 2 4l2 1c3.923 10.166 3.462 21.261 3.391 31.968l.019 8.767-.012 5.633.018 2.617c-.063 5.412-.843 9.225-3.417 14.016-6.486 5.259-16.071 4.584-24 4-2.34-.672-2.34-.672-4.312-1.5-4.479-1.822-6.896-1.964-11.687-1.5-2.024.951-4.029 1.945-6 3l-.051 153.585-.004 18.144-.001 3.649-.021 58.438-.017 59.99-.014 36.999-.006 25.393-.006 14.636-.002 13.429-.004 4.83c-.015 7.938.074 15.869.441 23.799l.17 3.923c.25 3.153.25 3.153 1.969 5.089 4.046 2.762 8.852 2.627 13.545 2.097 3.736-1.661 5.863-3.539 8-7 .469-2.766.469-2.766.441-5.789l.08-3.352.041-3.484.129-6.852.037-3.065C538 2508 538 2508 540 2506l1.625 1.938c2.949 2.561 4.482 2.986 8.375 3.063 3.595-.93 6.078-1.714 8.297-4.809 2.685-5.146 3.794-10.09 3.908-15.89l.06-2.729.051-2.905.063-3.005.183-9.475.131-6.436L563 2450c3 0 3 0 5.813 2.063 3.012 2.233 3.012 2.233 6.313 1.813 4.813-1.354 4.813-1.354 8.105-4.863l.957-2.324.98-2.301c2.016-5.782 2.04-11.438 2.148-17.5l.063-2.938.183-9.261.131-6.291L588 2393c3 0 3 0 5.25 2 2.668 2.258 2.668 2.258 6.25 2.563 4.555-.732 5.778-1.858 8.5-5.562 1.256-2.941 2.182-5.911 3-9l.525-1.858c.501-2.26.62-4.291.648-6.604l.041-2.649.032-2.835.1-5.949.131-9.375.144-9.05.025-2.847.05-2.63.031-2.319C613 2335 613 2335 615 2333l1.875 2.438c1.867 2.601 1.867 2.601 4.125 3.563 5.136.302 5.136.302 10-1 1.15-2.247 1.15-2.247 2-5l1.563-2.875c2.889-6.281 2.603-13.132 2.684-19.926l.1-5.646.131-8.842.144-8.574.025-2.686c.127-6.224.127-6.224 2.353-8.451l2.625 2.5c2.333 1.923 3.306 2.487 6.375 3.063 3.92-.735 5.983-1.948 9-4.562 3.98-7.41 4.166-14.785 4.316-22.992l.063-2.866.183-9.016.131-6.133L663 2221l3-1 1.563 1.938c3.246 2.746 5.2 3.136 9.438 3.063 6.188-3.689 7.776-8.275 9.519-15.001.697-4.343.678-8.649.728-13.042l.1-5.939.131-9.343.144-9.031.025-2.838.05-2.62.031-2.309C688 2163 688 2163 690 2161l2.063 2.438c3.504 3.057 5.315 3.645 9.938 3.563 5.99-3.84 7.782-9.041 9.551-15.735 1.025-5.172 1.1-10.457 1.172-15.716.204-13.786.204-13.786 4.151-19.049 5.761-4.067 13.717-2.684 20.438-2.687l3.959-.037 3.842-.006 3.493-.012c3.736.267 6.874.962 10.393 2.243 2.542 3.691 3.393 6.543 3 11 2.332 1.206 4.496 2.165 7 3v2c4.298 1.146 8.297.969 12.695.742 2.305.258 2.305.258 3.907 1.499 5.833 7.341 2.712 26.976 2.799 36.167l.122 8.131.01 2.472c.148 7.03 1.547 13.222 5.592 19.051 3.957 2.666 7.233 2.546 11.875 1.938 3.113-.669 3.113-.669 4.188-3.062L811 2197h1c.792 5.616 1.156 11.075 1.211 16.742l.086 4.98.104 7.727c-.146 16.679-.146 16.679 6.599 31.55 3.022 1.893 5.097 2.241 8.625 1.875l2.352-.195c2.209-.494 2.209-.494 3.172-2.672L835 2255l2-1c.819 5.762 1.158 11.365 1.211 17.18l.086 5.254.104 8.162c-.266 16.287-.266 16.287 5.911 30.967 3.084 2.797 4.541 3.524 8.688 3.438 3.529-1.604 4.828-2.742 7-6h2c.853 5.923 1.146 11.674 1.176 17.652l.072 5.541.078 8.623.1 8.399-.006 2.567c.145 7.144 2.153 12.982 6.455 18.718 2.819 1.99 4.673 2.431 8.125 2.5 4.311-1.564 4.311-1.564 7-5h2c.864 5.252 1.16 10.327 1.211 15.645l.086 4.99.104 7.76c-.192 15.875-.192 15.875 5.911 30.168 3.084 2.797 4.541 3.524 8.688 3.438 2.679-1.174 2.679-1.174 5-3l2.313-1.687L912 2428c.837 5.839 1.146 11.505 1.176 17.398l.072 5.391.078 8.379c-.058 16.043-.058 16.043 6.487 30.395 3.11 2.044 5.485 2.373 9.188 2.438 2.948-1.346 4.543-2.086 6-5h2c1.059 3.178 1.14 5.508 1.176 8.848l.072 3.525.094 7.297c.242 10.258 2.133 18.988 9.658 26.33 3.722 1.861 6.677 2.225 10.813 2.125l2.957-.055 2.23-.07-1-2c-.094-1.817-.122-3.638-.12-5.458l-.004-3.535.011-3.918v-4.136l.013-11.404.008-12.285.018-21.302.023-30.822.032-50.033.003-3.027.021-24.308.018-21.226.003-3.019.03-49.824.025-30.744.015-21.071.012-12.16.007-11.135.011-5.931c-.007-5.659-.09-11.092-1.124-16.662-4.551-2.349-8.988-2.56-14-2l-2.836 1c-3.596 1.136-6.588 1.266-10.352 1.25l-3.668.016C928 2191 928 2191 925 2189l-3.5-1c-3.5-1-3.5-1-6.5-3-5.107-13.913-2.323-33.886-1.125-48.375l.238-2.972c.412-4.532.799-8.528 2.887-12.653h2v-2l3-1-1-2 7-1-3-2c17.343-.905 34.635-1.126 52-1v1l3.313.563c3.688 1.438 3.688 1.438 4.82 3.059 1.05 2.452 1.867 4.691 1.867 7.379 6.448 1.639 12.528 2.315 19.18 2.559 2.82.441 2.82.441 4.703 1.852C1012 2130 1012 2130 1012 2132l67.625-2.062c21.565-1.134 42.936-1.345 64.5-.062l2.051.119 5.832.374 3.364.222c2.874.325 5.534.795 8.35 1.406 5.568 1.155 11.056 1.473 16.728 1.716l6.506.336 10.131.479 9.863.497 3.043.117c8.857.498 13.963 3.195 20.007 9.859l1.605 1.699c3.007 3.292 5.113 5.658 5.395 10.301l3-1-1-3c-.227-4.075-.228-8.151-.24-12.232l-.072-5.991c-.031-7.709.055-13.387 4.75-19.715C1245 2114 1245 2114 1249 2114v-2h29v2h20v1l3.688.188c3.247.432 4.428.891 7.25 2.813 2.097 3.05 2.387 4.151 2.691 7.688l.225 2.449.146 1.863c17.155.938 34.26 1.124 51.438 1.063l7.49-.014L1389 2131l.434-3.789c.456-3.988 1.128-6.907 3.566-10.211 2.697-1.108 5.089-1.523 8-2v-1c12.893-.717 25.774-1.123 38.688-1.187l3.813-.039 3.573-.004 3.175-.012c2.761.244 4.401.821 6.751 2.243v2h2c4.847 12.072 4.162 24.956 4.13 37.756l.006 7.707-.004 4.963.006 2.295c-.053 12.193-.053 12.193-2.139 14.279a208.89 208.89 0 0 1-6.187.375c-5.796.406-9.872 1.202-14.437 4.964-1.733 2.093-1.755 3.174-1.764 5.866l-.029 2.561.018 2.765-.009 2.868.016 6.022-.019 9.118c-.466 16.444-.466 16.444 5.973 31.086 2.642 2.574 3.535 3.249 7.125 3.75 4.455-.504 6.928-2.571 10.313-5.375 1.562 1.562 1.148 3.097 1.174 5.269l.041 2.753.032 3.005.1 6.279.131 9.913.144 9.557.025 2.949c.146 8.221.945 16.351 4.728 23.773l1.211 2.469c1.618 2.324 2.766 3.089 5.414 4.031 3.155 0 5.15-.199 7.496-2.41 1.233-1.478 2.376-3.03 3.504-4.59l2 1 .018 1.862.245 19.323.084 7.195.142 10.389.019 3.208c.179 9.226 1.115 18.855 7.817 25.772 2.865 2.137 5.167 2.378 8.676 2.25 2.923-1.364 4.728-2.728 7-5 1.22 2.44 1.121 3.999 1.114 6.725v2.972l-.016 3.217-.004 3.287-.031 10.424-.014 7.055L1513 2428h2l.078-2.457c.558-10.901 1.96-18.999 9.922-26.855l2.563-2.301c11.126-10.895 10.956-27.234 11.145-41.789l.043-6.098.09-6.285.16-15.215c2.231 1.065 3.996 1.997 5.875 3.625 2.978 1.927 4.633 1.934 8.125 1.375 5.373-3.371 7.469-6.91 9-13 1.134-5.474 1.219-10.862 1.316-16.43l.063-3.001.183-9.444.131-6.422L1564 2268c2.267 1.073 3.931 1.933 5.75 3.688 2.85 1.662 5.07 1.641 8.289 1.055 2.849-1.078 4.408-2.878 5.943-5.457 5.38-12.08 4.564-25.669 4.705-38.597l.104-6.326L1589 2207l2-1 1.875 1.938c2.571 2.495 3.423 3.017 7 3.25 3.176-.191 4.589-.328 7.125-2.187 3.639-4.887 5.146-8.383 5.188-14.437l.043-2.871c-.239-2.793-.7-4.362-2.23-6.691-3.228-2.128-5.176-3.034-9.062-2.875-4.051 1.207-7.009 2.463-9.375 6.063-1.562 1.813-1.562 1.813-4.75 2.063L1584 2190v-1l-2.312-.375C1579 2188 1579 2188 1576 2186c-1.344-.335-2.7-.625-4.062-.875-3.751-.866-3.751-.866-5.375-3.125l-.562-2-1-2c-3.501-32.997-3.501-32.997 3-46l3-1-2-2 2.25-.375c2.551-.58 4.477-1.362 6.75-2.625l-2-2 4-1-3-3 8-1-4-4 18-1v-2h29v2l2.313-.187c2.688.188 2.688.188 4.281 1.406 1.696 2.148 2.089 3.792 2.594 6.469l.48 2.449.332 1.863c5.707 1.991 11.184 2.414 17.207 2.754C1658 2129 1658 2129 1660 2130v2l9.438-.437 2.662-.119c5.67-.272 11.265-.761 16.9-1.443l.332-2.52.48-3.293.457-3.27c.751-3 1.233-4.155 3.73-5.918 2.688-.187 2.688-.187 5 0v-2h29v2l2.25-.312c2.75.313 2.75.313 5.063 2.563C1737 2120 1737 2120 1737 2124l2.711.148c7.252.448 14.215 1.173 21.289 2.852l1 4 178 1 1-3c3.696-1.548 7.976-1.305 11.938-1.5 6.611-.219 6.611-.219 13.063-1.5 1.375-2.476 1.375-2.476 2-5h2v-2h4v-4h29v4h5v2h2c2.376 6.494 3.108 12.747 3.225 19.635l.068 3.864.167 17.361.123 9.15.12 11.112.068 4.209c.291 12.294.291 12.294-4.218 17.357l-1.894 1.715c-2.786 2.683-3.25 5.445-4.221 9.16l-1.191 4.211-.606 2.132c-1.37 4.484-3.225 8.778-5.015 13.106L1990 2251h-39v-2l-3.812.25c-3.903-.021-3.903-.021-6.125-1.812-2.085-4.784-2.118-9.861-2.238-15.012l-.072-3.021-.094-6.219-.084-3.01-.044-2.721c-.695-3.217-1.998-4.412-4.53-6.454-4.68-1.528-7.376-.952-11.699.98-7.58 2.853-15.094 2.491-23.051 2.332l-4.441-.029c-6.364-.06-12.504-.362-18.809-1.283l-6.812.438c-5.658.084-8.413-.726-12.75-4.375l-2.254-2.215c-2.468-2.088-3.995-2.568-7.184-2.848-2.25.5-2.25.5-4 2-2.614 4.708-2.296 9.52-2.25 14.75l-.023 2.594.008 2.578.007 2.3c.229 2.456.673 4.606 1.257 6.993 1.121 4.848 1.308 9.469 1.303 14.43l.013 2.7.002 5.619.046 8.491c.029 8.748-.151 16.757-2.678 25.212-.865 2.953-1.084 5.7-1.058 8.77l-.023 2.871c.472 3.187 1.52 5.094 3.398 7.691 2.577 1.289 4.089.935 6.938.625l2.652-.273c2.547-.299 2.547-.299 5.41-1.352 2.601-.091 5.175-.126 7.776-.114h2.395l7.84.016 5.435.004 14.308.025 14.599.02L1939 2310l-.034-3.339c.03-3.231.317-5.457 1.347-8.474l.738-2.27C1942 2294 1942 2294 1945 2292c6.369-1.388 13.081-1.124 19.563-1.062l2.768.014 6.67.049v-3h17c5.177 12.295 4.89 21.472.973 34.066-2.597 9.394-2.151 19.575-2.254 29.234l-.056 4.099-.163 12.912-.844 45.168-.062 2.57c-.237 5.727-1.525 10.611-3.594 15.949l-7 1v2h-29v-2l-2.812-.125c-3.187-.875-3.187-.875-5.062-3.687C1940 2426 1940 2426 1940 2422h-2l.016-2.431.047-10.882.025-3.826.01-3.662.016-3.38c.014-2.9.014-2.9-1.114-5.819-4.783-1.807-9.014-2.23-14.094-2.148l-2.033.023-4.333.066-6.876.084-19.538.242-11.987.129-4.544.071c-14.325.311-14.325.311-20.085-4.297-2.375-1.841-4.565-2.104-7.51-2.171-2.317.409-2.317.409-4 2-3.791 7.202-2.573 16.086-.5 23.617 1.655 6.395 1.913 12.302 1.813 18.883l-.021 3.713c-.082 9.04-.443 18.068-.819 27.1l-.145 3.527-.791 17.662-.294 6.592-.164 3.065c-.279 6.556.022 11.272 4.047 16.717 3.057 2.259 4.997 2.85 8.805 2.633 3.728-.914 6.15-3.074 9.07-5.508v7c3.559.812 6.851 1.135 10.5 1.125l2.781.008c2.667-.056 2.667-.056 5.021-.632 2.919-.542 5.618-.635 8.587-.646l3.52-.019 3.776-.003 3.904-.01 8.168-.007 10.433-.031 9.995-.014 3.769-.022 3.529.009 3.09-.004c3.233.273 5.888 1.141 8.928 2.247 2.077.342 2.077.342 4 .313l1.875.051c3.014-.515 5.422-1.97 8.125-3.363l.06-3.026.257-11.171.104-4.824.164-6.956.035-2.16c.154-5.264.537-10.022 4.379-13.864a88.25 88.25 0 0 1 6.25-.437c4.899-.314 8.672-.587 12.75-3.562 2.125-3.337 2.501-6.617 3-10.5.962-7.493.962-7.493 3-10.5 3.125-1.25 3.125-1.25 6-2v-1l7-1v-1l2.922-.184 3.828-.254 3.797-.246c3.209-.188 3.209-.188 5.261-.826 4.734-1.06 9.724-.677 14.554-.676l5.997-.039 3.852-.006 3.509-.012c4.156.308 7.784 1.057 11.092 3.68 5.038 6.628 3.341 19.29 3.398 27.215l.086 6.537.104 10.178.122 9.91.01 3.081.05 2.864.025 2.51c.477 2.762 1.654 4.113 3.392 6.267v2c3.194.939 6.113 1.164 9.438 1.188l2.809.043c2.932-.245 5.093-1.008 7.754-2.23l1 3c6.345 5.572 12.157 6.604 20.41 6.113l2.59-.113c1 1 1 1 1.098 2.848L2113 2527c9.128 3.853 18.301 3.285 28 3v-2l1.688.324c6.113.96 9.681.2 15.313-2.324l3-1c1.94-3.081 2.901-6.547 4-10l2.164.969c2.892 1.052 5.146 1.426 8.211 1.531l2.711.156c4.508-1.015 7.314-2.777 9.914-6.656 1.04-5.084.913-10.124.824-15.285l-.001-4.512-.075-9.433-.057-12.071-.039-9.309-.015-4.451-.072-6.224-.037-3.572c-.634-3.77-1.887-5.429-4.528-8.142-4.096-2.389-8.365-2.47-13-2-3.368.898-3.368.898-6 2l-.297-2.012c-1.222-7.282-1.222-7.282-5.703-12.988-5.125-2.901-8.293-3.268-14-2l-2.937.563-2.062.438-.5-3.312c-1.161-3.935-1.161-3.935-4.75-5.562-6.044-1.824-12.483-1.87-18.75-2.125-1.793-3.849-2.161-6.841-2.187-11.062-.362-4.871-.362-4.871-3.375-8.687-6.146-2.593-13.917-1.532-20.437-1.25l-1.687-3.187c-1.982-3.489-4.348-6.088-7.312-8.812l-1-1c-1.581-.1-3.166-.13-4.75-.125l-2.609-.008c-2.638.133-5.068.55-7.641 1.133l-.297-3.035c-1.033-10.103-1.033-10.103-5.703-18.965l-2-1v-2c-6.656-1.22-6.656-1.22-13 .438l-2 1.563h-2c-.906-2.718-1.145-4.44-1.211-7.246-.177-18.313-.177-18.313-8.121-34.312-2.87-2.481-4.946-2.703-8.668-2.441-2.589 1.107-4.643 2.413-7 4-1.148-2.296-1.126-3.578-1.127-6.131l-.009-2.621.006-2.882-.005-3.031.002-9.956-.003-6.898.005-14.474-.004-18.576v-14.25l-.002-6.85.007-9.567-.006-2.876.009-2.63.001-2.285C2014 2210 2014 2210 2015 2207c2.363-.914 2.363-.914 5.313-1.625l2.926-.727L2026 2204l4-1v-2l1.75-1.5c7.678-8.531 6.949-19.771 7.108-30.596C2039 2167 2039 2167 2040 2165l2.5.5c7.913 1.13 12.703.72 19.5-3.5 2.131-2.131 1.399-7.282 1.518-10.277.453-8.693.453-8.693 3.482-11.723 1.537-.186 3.081-.323 4.625-.437 5.476-.494 10.165-1.826 15.375-3.562 2.064-.15 4.131-.248 6.199-.316l3.662-.127 3.826-.119 3.861-.131L2114 2135l.148-1.898.227-2.477.211-2.461C2115 2126 2115 2126 2117 2124c2.764-.42 5.47-.748 8.25-1 5.202-.482 9.822-1.117 14.75-3l.188-2.312c.813-2.687.813-2.687 3.063-4.437 4.151-1.887 8.041-2.373 12.571-2.411l2.831-.029 3.043-.013 3.191-.021 10.238-.026 3.494-.005c45.603-.004 45.603-.004 55.381 5.255l4 5c4.979 2.62 10.432 2.681 15.938 3.123 5.572.543 5.572.543 8.086 2.256.977 1.621.977 1.621.977 4.621l1.723.516c7.594 2.383 15.211 5.111 19.277 12.484 3.415 8.874 3.345 17.651 3 27h2l-.032-3.437-.078-12.731-.041-5.49-.044-7.931-.031-2.444c-.001-6.356.21-13.185 4.039-18.466 5.865-4.022 14.271-2.684 21.063-2.687l3.801-.037c12.592-.02 12.592-.02 17.324 2.225 1.171 2.581 1.171 2.581 2 5l2.064.152 9.249.723 3.248.238 3.115.254 2.872.222C2360 2127 2360 2127 2363 2129v2l106.145.051 12.52.004 2.518.001 40.405.021 41.433.017 25.584.014 17.523.006 10.123.006 10.954.001 3.26.009 2.947-.006 2.557.001c2.1.005 2.1.005 4.031-1.124 1.691-.185 3.388-.321 5.086-.43l3.07-.223 6.414-.422 3.078-.23 2.818-.187c2.911-.584 4.207-1.721 6.534-3.508 6.2-1.788 12.919-1.225 19.313-1.25l3.92-.062c12.963-.053 12.963-.053 18.768 3.313 2.586 5.35 2.282 10.844 2.259 16.652l.011 3.215-.004 10.5.006 7.315-.011 15.328.007 19.617v15.107l.005 7.231-.014 10.123.012 3.001c-.039 6.497-.108 13.025-4.146 18.409-2.125 1.5-2.125 1.5-6.125 1.5v2h-29v-2l-7-1c-2.703-6.213-3.456-11.386-3.562-18.125-.086-8.143-.086-8.143-2.437-15.875-5.246-4.068-9.478-4.675-16-4l-2.812.625c-2.187.375-2.187.375-3.888-.592-3.177-1.428-5.801-1.241-9.276-1.194l-2.056.018-4.346.05-11.258.069-2.222.009c-23.692.086-23.692.086-32.099-4.892-3.152-1.687-5.575-1.718-9.043-1.094-2.63 2.055-3.852 3.244-4.501 6.557l-.002 2.953-.032 3.416.027 3.753-.019 3.986.004 10.964-.016 11.82-.002 23.159.006 18.818-.002 2.703-.004 5.436.023 50.998-.004 43.781-.018 50.813.004 5.416.002 2.692-.012 18.801.013 22.904.001 11.691.023 12.659-.027 3.753.032 3.416.002 2.953c.652 3.326 1.839 4.514 4.501 6.557 4.917.667 7.751.28 12.113-2.004 5.189-2.383 9.743-2.561 15.387-2.434l2.684-.021c6.092.058 11.168 1.196 16.816 3.459.807 9.587 1.155 19.066 1.125 28.688l.012 3.662c-.011 10.275-.595 20.35-1.137 30.65h-226c-2.346-56.304-2.346-56.304 3-64 2.442-2.442 8.278-1.673 11.563-1.875l2.963-.258c6.134-.362 9.826.18 14.767 3.943 2.789 1.943 5.377 2.127 8.708 2.19 3.882-1.035 4.722-1.584 7-5 .305-2.527.305-2.527.26-5.415l.021-3.429-.007-3.783.016-4.006.015-11.033.026-11.89.036-26.008.017-16.232.039-44.923.001-2.905.001-5.83.001-2.924v-2.927l.068-46.975.058-48.203.038-27.075.017-23.05.016-11.765-.003-10.766.035-5.748c.142-6.741.142-6.741-2.974-12.417-2.645-2.007-2.645-2.007-6.18-1.695-3.314.947-5.642 2.122-8.5 4h-2v2c-8.897 4.448-24.735 2.25-34.562 2.295l-5.267.062c-9.465.157-17.814.293-26.657-3.59-3.95-1.204-7.186-.361-10.889 1.296L2340 2214l-.148 3.473-.227 4.59-.094 2.279c-.251 4.841-.825 9.102-2.531 13.658-3.645 2.43-6.82 2.647-11.062 3.063l-2.389.252c-6.558.66-13.124 1.068-19.709 1.344-5.021.124-5.021.124-9.84 1.342-1.198 2.329-1.198 2.329-2 5l-2 4h-2l-.25 3.813c-.175 2.672-.403 3.818-2.253 5.79-3.592 2.01-7.051 1.826-11.06 1.796l-2.51.009c-1.748.002-3.497-.003-5.245-.016a608.12 608.12 0 0 0-8.019.019l-5.102-.012-2.418.018c-3.224-.041-5.705-.193-8.603-1.669-5.869-6.653-3.895-20.213-3.932-28.466-.175-8.432-.175-8.432-4.609-15.281-3.348-2.232-4.471-2.246-8.375-2.187l-2.836.02c-2.685.162-5.17.573-7.789 1.168-1.554-4.966-1.277-10.215-1.426-15.371-.659-4.162-1.495-5.787-4.574-8.629-4.466-2.116-8.011-2.121-12.875-1.625l-3.492.336-2.633.289v-2h-27v3l-2.852-.324-3.773-.363-3.727-.387c-4.791.097-7.626 1.613-11.449 4.375-1.765 2.5-1.966 4.879-2.387 7.887l-.48 3.293-.332 2.52-3.062-1c-6.766-1.892-11.817-1.24-17.937 2-3.333 4.999-2.369 10.752-2.375 16.625l-.074 3.777c-.022 7.004.063 13.788 4.449 19.598 4.196 2.547 8.203 2.61 13 2 2.401-1.359 2.401-1.359 4-3h2l.445 2.887c1.068 7.91 1.068 7.91 5.18 14.426 6.588 3.294 12.215 2.819 19.375 1.688l.227 3.176.398 4.137.137 2.092c.187 2.312.187 2.312 1.238 5.596 4.511 3.466 8.94 3.379 14.375 3.188l2.23-.041L2187 2288l1.301 2.793c2.431 4.587 5.605 8.222 10.688 9.84 4.471.677 8.555.095 13.012-.633 1.663 1.663 1.36 3.783 1.563 6.063l.254 2.785.184 2.152c6.934 2.869 12.668 3.248 20.156 3.008L2237 2314c1.56 1.56 1.271 3.2 1.43 5.367l.223 2.684.422 5.625.23 2.691.187 2.472c.612 2.601 1.432 3.519 3.508 5.161 6.626 2.928 13.035 2.393 20 1 1.273 5.394 1.264 10.789 1.426 16.309.797 5.123 2.882 8.319 6.887 11.566 4.021 1.683 7.525 1.858 11.691.445 1.69-.717 3.347-1.513 4.996-2.32.997 4.779 1.161 9.441 1.29 14.3.555 21.077.555 21.077 7.71 40.7 2.869 2.279 2.869 2.279 6.375 2.188 4.174-1.367 4.526-2.061 6.563-5.75.712-1.468 1.408-2.944 2.063-4.437h1c.764 8.559 1.149 17.033 1.133 25.625l.003 3.483-.005 7.23.006 10.959-.004 7.078.006 3.252c-.023 7.496-.473 14.907-1.139 22.373-2.552-2.452-4.314-4.869-6-8v-2h-9c-1.513 3.027-2.811 5.909-4 9.063l-1 2.598c-2.632 8.79-3.327 17.519-3.562 26.652-.363 12.529-.363 12.529-1.437 17.688l-2-.937c-5.021-1.778-9.105-2.682-14.25-1-3.283 2.313-5.44 4.14-6.75 7.938-.422 3.563-.625 7.074-.727 10.66-.263 3.21-.907 5.449-2.273 8.34l-1.871-.289c-7.759-1.016-14.165-.412-21.129 3.289l.07 2.09c.118 6.133.009 12.071-2.07 17.91-2 2-2 2-4.383 2.195l-2.742-.07L2225 2588v13h-206v-13l-3-1-1-7h-2v-4l-2-1 1-2c-3.872 1.469-4.972 3.497-7 7h-2l-1 4h-2v2l-4 2-1 13h-308c-.61-14.032-1.143-27.917-1.062-41.937l.014-4.744L1686 2543h2l-1-5c4.308-.078 8.306.015 12.563.688 4.675.59 7.311-.498 11.438-2.687l2-1 1-322 3 1c.809 15.745 1.159 31.449 1.189 47.214l.025 6.972.046 14.867.069 21.582.118 35.155.007 2.114.046 14.845.052 16.938.007 2.108.119 35.032.072 23.368.049 14.636.018 6.69.57 35.712.091 3.283c.274 7.608 1.219 14.985 2.522 22.484 3.049 1.011 3.049 1.011 6 0 3.984-13.865 3.436-28.429 3.417-42.708l.026-7.669.029-16.425.045-23.821.081-38.763.063-37.448.005-2.328.058-25.239.006-2.251.022-8.916.05-25.925.032-18.235.008-7.411c.006-11.89.108-23.761.604-35.643l.117-2.864c.212-4.529.584-8.892 1.436-13.356.535-6.084.092-10.669-3-16-2.388-2.248-3.891-3.008-7.184-2.984-3.695.364-7.227 1.04-10.816 1.984v8c-2.943.872-5.324 1.011-8.375.813-4.661-.031-7.096.987-10.625 4.188-3.518 4.86-5.083 9.465-5.205 15.401l-.06 2.608-.051 2.788-.063 2.875-.183 9.078-.131 6.16L1688 2258l-2 1-1.437-2.5c-2.772-2.705-3.326-2.941-7-3.125-3.435.214-4.508.587-7.437 2.625-5.414 7.644-6.257 15.889-6.441 25.02l-.063 2.602-.183 8.191-.131 5.568L1663 2311h-3l-1.75-2c-2.182-2.328-2.182-2.328-5.687-2.375-3.378.356-5.658.632-8.562 2.375-1.093 2.339-1.093 2.339-2 5l-.827 2.167c-3.083 9.609-2.738 19.534-2.86 29.52l-.104 5.631L1638 2365h-3l-1.875-1.937c-2.507-2.433-3.649-2.98-7.125-3.062-4.165 1.275-6.229 2.861-8.25 6.625-3.498 7.273-4.056 15.283-4.164 23.223l-.059 2.719-.152 8.496-.117 5.803L1613 2421c-2.267-1.073-3.931-1.933-5.75-3.687-2.856-1.666-5.062-1.568-8.285-1.016-3.525 1.261-5 3.64-6.965 6.703-3.012 7.079-3.161 14.633-3.316 22.215l-.063 2.593-.183 8.13-.131 5.541L1588 2475c-3 0-3 0-4.687-1.5-3.37-2.186-6.477-2.239-10.312-1.5-3.74 1.976-5.308 3.303-6.895 7.195-2.79 10.234-2.667 20.526-2.793 31.055l-.104 5.762L1563 2530c-3 0-3 0-4.687-1.5-3.338-2.165-6.502-2.168-10.312-1.5-4.755 2.642-6.285 5.94-8 11-.956 5.389-1.19 10.656-1.281 16.109l-.056 2.572-.215 10.815-.167 7.926-.041 2.472c-.072 3.272-.199 5.982-1.24 9.107l-1 14h-72l-.956-24.769c-.259-12.706-.259-12.706-5.044-24.231-3.258-2.817-5.645-3.826-10-4-3.184 1.3-3.184 1.3-6 3l-3 1-.437-6.125-.143-2.067c-.321-5.055-.479-10.099-.568-15.163l-.084-3.962-.111-7.856c-.194-8.86-.945-17.626-7.031-24.513-3.246-1.623-5.04-1.91-8.625-1.312-2.7 1.8-4.542 3.084-6 6h-2l-.056-1.831-.634-18.982-.229-7.07-.35-10.203-.086-3.158c-.296-7.448-.889-15.333-5.707-21.319-3.709-2.752-6.323-2.907-10.937-2.437-2.813 2.396-2.813 2.396-5 5h-2l-.437-6.437-.143-2.184c-.328-5.501-.481-10.995-.568-16.504l-.127-6.604-.052-4.38c-.062-8.48-.256-16.385-4.672-23.891-2.91-2.674-4.593-2.942-8.5-3.5-4.386.627-5.644 2.235-8.5 5.5h-2l-.049-1.748-.586-18.155-.209-6.759-.328-9.763-.07-3.01c-.321-7.753-1.56-15.711-6.649-21.844-2.639-2.154-4.777-2.338-8.144-2.194-3.239.779-4.872 3.01-6.965 5.473h-2l-.049-1.786-.586-18.545-.209-6.904-.328-9.972-.07-3.076c-.326-8.032-1.694-16.156-7.071-22.405-3.576-1.747-5.755-1.945-9.687-1.312-2.813 2.396-2.813 2.396-5 5h-2l-.049-1.844-.586-19.078-.209-7.111-.328-10.247-.07-3.189c-.3-7.561-1.57-13.505-7.196-18.842-5.296-2.509-10.833-3.565-16.562-4.687l-.184-2.758c-1.037-4.118-2.319-4.913-5.879-7.117-5.007-2.974-8.201-3.883-13.937-3.125-1.305 2.218-1.305 2.218-2 5 1.506 4.118 4.051 6.12 7.887 8.156 3.27 1.306 6.608 1.889 10.074 2.449C1287 2200 1287 2200 1288 2201c.098 1.501.126 3.006.127 4.511l.009 2.953-.006 3.267.005 3.419-.002 11.253.003 7.784-.005 16.34.002 18.907.002 18.163.002 7.74-.007 10.804.006 3.26-.009 2.962-.001 2.583C1288 2317 1288 2317 1287 2319h-2l-2.187-2.5c-2.638-2.783-2.638-2.783-6.312-3.125-4.597.821-5.755 1.841-8.5 5.625-5.011 8.975-4.709 19-4.858 28.998C1263 2350 1263 2350 1262 2353l-2-.937c-4.661-1.651-8.89-2.75-13.687-1.187-5.811 5.34-7.834 11.522-8.27 19.254L1238 2372c-4 0-4 0-7-2-4.765-.848-8.051-.659-12.062 2.125-2.105 2.733-2.105 2.733-2.562 5.875.871 4.179 2.121 5.569 5.625 8 3.836.811 7.337.791 10.914-.91 1.832-1.171 1.832-1.171 4.086-3.09 1.192 2.384 1.14 3.918 1.176 6.578l.072 2.77.094 5.758c.179 5.927.761 9.351 4.658 13.895 3.493 2.911 6.451 3.46 10.996 3.305 3.024-.46 5.405-1.746 8.004-3.305 1.219 2.439 1.157 4.108 1.211 6.832l.086 2.92.133 6.086c.158 7.086.158 7.086 3.57 13.162 3.903 3.43 7.647 3.379 12.617 3.238 2.739-.274 4.952-.942 7.383-2.238 1.528 1.528 1.162 2.951 1.211 5.078l.086 2.52.133 5.258c.182 4.923.594 8.038 3.57 12.145v2c7.066 2.827 12.934 2.827 20 0 1.845 3.691 1.289 8.426 1.342 12.527.197 5.25 1.221 8.288 4.658 12.473 3.094 2.556 5.08 3.869 9.063 4.438 3.293-.49 5.191-1.607 7.938-3.437h2c1.23 2.46 1.093 4.55 1.138 7.257.017 6.161.017 6.161 2.12 11.809 4.9 4.124 9.608 4.145 15.742 3.934 2.006-.292 4.01-.612 6-1 1.787 3.573 1.181 7.89 1.23 11.836.521 3.324.521 3.324 3.141 5.566 4.969 2.187 9.147 1.988 14.504 1.785l6.176-.109 3.057-.057c3.999-.03 7.966.146 11.955.416l3.66.246c3.128.302 6.186.756 9.277 1.316 2.964 14.358 4.196 29.39 2.5 44-.664 6.636-.5 13.331-.5 20h-152l-1-14c-.175-4.032-.175-4.032-1-7-1.68-1.383-1.68-1.383-4-2l-2.437-1.625c-4.707-1.817-8.834-1.552-13.832-1.383l-2.73.008c-1.603-1.603-1.197-3.474-1.312-5.687-.458-4.794-1.377-7.654-4.687-11.312-3.137-2.437-6.065-3.885-10.062-4.375-3.183.406-5.944 1.235-8.937 2.375-1.603-1.603-1.258-3.409-1.395-5.629l-.209-2.889-.383-6.008c-.539-7.123-1.734-13.086-6.889-18.412-2.829-1.414-4.951-1.936-8.125-2.062-3.184 1.3-3.184 1.3-6 3l-3 1c-.682-4.035-1.075-7.938-1.176-12.031l-.072-2.707-.094-5.523c-.188-6.071-1.096-9.771-4.658-14.738-3.451-2.51-5.899-3.228-10.062-2.812-3.169.547-6.015 1.443-8.937 2.813-.765-3.413-1.13-6.595-1.176-10.09l-.072-2.877-.094-5.93c-.212-7.257-1.492-10.585-6.346-15.979-3.671-1.786-7.311-1.7-11.312-1.125-2.401 1.359-2.401 1.359-4 3h-2c-1.241-6.184-1.3-12.371-1.43-18.656-.189-5.216-.844-8.758-3.57-13.344l-1-3c-3.475-1.596-7.303-2.424-11.047-1.488-1.692.741-3.327 1.61-4.953 2.488l-3 1v-6l-2.625-.875c-2.082-.694-4.15-1.435-6.187-2.25-5.823-1.598-10.822-1.703-16.187 1.125l-.155 41.335-.071 19.195-.058 18.537-.033 7.059-.023 9.916-.033 2.923c.028 6.227.577 12.374 3.373 18.035 2.587 2.388 3.618 2.963 7.188 3.313 2.98-.244 5.234-.663 8.063-1.437 4.72-1.164 8.395-.339 13.082.676 3.209.54 5.801.238 8.988-.258 6.18-.676 12.47-.362 18.68-.293l.719 1.902c1.642 2.689 2.781 2.886 5.781 3.66 4.289 1.121 4.289 1.121 6.5 4.438 1.136 4.106 1.129 8.085 1.133 12.328l.003 2.143-.005 4.498.006 6.694-.004 4.414-.003 3.95c-.191 7.331-.699 14.651-1.129 21.972H814l-1.199-35.848-.053-6.668-.149-18.901-.101-11.705-.026-4.394c.034-14.786.034-14.786-5.722-28.11-3.391-2.929-5.291-3.455-9.75-3.375-3.262 1.483-5.605 3.352-8 6-1.218-3.806-1.152-7.594-1.176-11.547l-.072-4.5-.078-7.043c.116-12.077.116-12.077-4.674-22.91-2.326-1.415-2.326-1.415-5-1-3.719 1.488-6.262 3.125-9 6h-2l-2 4-30.486.414-14.158.189-13.675.156-5.205.087c-13.645.327-13.645.327-18.231-2.61-2.125-2.16-2.125-2.16-3.74-4.318-2.247-2.863-4.477-3.738-8.006-4.355-2.746.224-2.746.224-4.75 2.813-3.008 4.512-3.048 8.26-3.285 13.57l-.13 2.682-.397 8.498-.275 5.754L662 2498l-1.404-1.291-1.87-1.67-1.841-1.666c-1.998-1.668-1.998-1.668-5.51-1.999-4.14.767-5.582 1.454-8.375 4.625-4.35 7.564-4.625 15.315-4.521 23.834l-.025 6.371.016 4.072.014 3.695c.23 3.095.23 3.095 2.363 4.885 5.206 2.761 10.532 2.923 16.092 1.267 2.215-.953 2.215-.953 3.063-3.125h6l-2 4 2 1 .055 18.457.021 6.261.022 9.071.016 2.764c.001 7.567-.57 14.837-1.113 22.447H314c-.605-10.895-1.187-21.644-1.185-32.535l-.039-6.177c-.078-17.616-.078-17.616 3.611-21.895C318 2539 318 2539 321 2537v-1c4.22-.789 8.27-1.189 12.563-1.25l3.316-.078c3.499.368 5.206 1.436 8.121 3.328 6.124 1.709 10.481.99 16-2 1.897-1.897 1.146-5.247 1.158-7.764l.015-2.168.032-7.246.03-5.173.068-14.088.076-14.706.138-27.869.16-31.719L363 2360l2-1c4.955 9.949 4.587 19.795 4.574 30.621l.043 5.728.063 15.034.11 21.046.047 11.17c.04 11.826.474 23.595 1.163 35.401h2v4h2v-4h2l-.035-2.09-.027-2.848-.035-2.777c.098-3.285.098-3.285.57-7.177.684-6.03.875-12.065 1.071-18.128l.128-3.816.489-26.383.052-6.136.036-4.101.018-2.048.06-10.419.057-8.353.037-7.73c.094-6.672.824-11.905 3.677-17.973 1.195-2.673 1.406-4.986 1.341-7.896l-.004-2.68c-.516-2.908-1.418-4.309-3.434-6.445-6.106-2.035-12.108.036-18 2v-2l-2.765.006-66.681.098-32.247.047-28.115.037-14.879.023-14.023.015-5.129.012c-8.121.035-15.967.005-23.931-1.839-4.17-.746-8.416-.306-12.23 1.601l-.207 75.676-.095 35.136-.075 30.619-.047 16.218-.03 15.257-.024 5.607-.004 7.642-.035 2.252c.04 3.398.286 5.28 2.32 8.053 2.669 1.872 4.753 2.087 7.981 1.948 2.421-.445 4.103-1.294 6.286-2.419 8.009-3.302 16.676-2.446 25.18-2.301l5.203.029 5 .045 2.33.022c4.169.073 8.11.408 12.217 1.216v2l2.875.938c3.125 2.063 3.125 2.063 4.309 5.73 1.18 6.165 1.079 12.387 1.022 18.639l-.02 6.087c-.046 10.586-.628 21.006-1.186 31.605H0v-64l13-2v-3l1.75.938c4.989 2.356 10.089 2.853 15.5 1.5 3.591-2.95 4.885-7.981 5.75-12.437.095-2.261.133-4.525.137-6.788l.008-2.076.009-6.921.013-4.999.022-13.763.028-14.833.052-35.826.012-10.114.06-62.775.009-14.54.002-3.65.088-58.595.071-60.123.048-33.772.028-28.749.022-14.675.003-13.425.018-4.865-.012-6.598.004-3.707c-.805-4.149-2.323-5.642-5.622-8.207-4.81-.631-7.11-.39-11.562 1.563C15 2116 15 2116 0 2115v-77zm968 159c-.993 2.979-1.134 4.954-1.125 8.063l-.008 2.66c.108 2.663.336 5.234.632 7.879.511 5.032.651 10 .653 15.055l.013 2.784.025 9.155.025 6.603.046 14.203.077 22.611.111 31.854.007 2.039.033 10.208.065 20.196.007 2.002.119 33.526.062 18.718L969 2452l.03 3.387.252 19.929.08 6.134.136 8.414.017 2.463c.135 5.479 1.325 9.632 3.485 14.674h3c2.534-5.919 3.458-10.704 3.502-17.11l.052-2.665.116-8.755.1-6.287L980 2452l.03-3.32.241-48.466.067-19.232.111-32.118.007-2.035.065-20.539.033-10.367.007-2.069.119-34.152.072-22.782.049-14.089.018-6.522.032-8.899v-2.6A87.93 87.93 0 0 1 982 2211c.509-7.2.509-7.2-1.312-14.062-1.726-2.153-1.726-2.153-4.687-3.937-3.952 0-5.146 1.372-8 4zm122 3c-1.608 3.996-2.252 7.387-2.267 11.679l-.026 3.356.003 3.637-.02 3.865-.024 10.463-.011 6.546-.025 22.864-.051 21.271-.036 18.299-.026 10.913-.002 12.178-.034 3.625c.052 6.87.659 11.536 4.52 17.306 2.724 1.694 3.959 1.999 7.25 2.063 3.906-1.107 4.86-1.928 7.625-4.687 3.468-3.287 3.468-3.287 6.422-3.684 3.474.367 6.433 1.207 9.703 2.434 4.563 1.331 9.699 1.025 14-1.125v-2h5v2c5.19 2.262 9.583 2.407 15 1 2.82-1.821 4.503-3.007 6-6 .142-1.902.226-3.808.281-5.715l.113-3.521.105-3.701c.246-8.39.621-16.712 1.5-25.062l1.313 2.813c1.812 3.423 3.021 5.383 6.5 7.063 3.412.195 5.347-1.062 8.188-2.875 8.633-11.61 5.399-31.985 3.73-45.52-.903-4.303-2.552-7.713-4.98-11.355-2.984-1.919-5.32-1.606-8.75-1.125-3.502 3.218-4.589 6.552-6 11-.624-6.899-1.061-13.764-1.176-20.691l-.072-3.92-.078-5.984-.1-5.909-.044-3.494c-.637-3.605-1.701-4.758-4.53-7.002-2.45-1.225-4.142-1.167-6.875-1.187l-2.617-.043c-2.675.246-4.137 1.038-6.508 2.23-2.473.266-2.473.266-5.062.25l-2.598.016C1133 2212 1133 2212 1130 2210c-2.604-.422-2.604-.422-5.437-.562-3.313-.221-6.366-.523-9.562-1.437v-2l-1.687-.687c-2.941-1.669-4.926-3.926-7.312-6.312-5.876-4.37-10.848-4.438-16 1zm-372 102c-5.942 7.263-5.313 18.881-5.414 27.793l-.059 3.249-.152 10.146-.117 6.932L712 2367l-5.255-3.066c-3.291-1.761-6.169-1.873-9.745-.934-4.134 2.513-7.188 5.473-9 10-.515 3.076-.53 5.924 0 9 1.774 2.852 1.774 2.852 5 4 4.52.245 8.11-.579 12.199-2.514 5.569-2.409 11.437-1.968 17.397-1.932l6.404-.052c7.461-.036 13.846.565 20.774 3.645 3.524 1.352 5.655.969 9.226-.146 2.805-1.683 3.003-3.011 3.938-6.187.079-4.845-1.475-7.744-3.937-11.812h-2v-2c-4.481-2.381-8.206-2.261-13-1-2.439 1.406-2.439 1.406-4 3-1.179-2.358-1.137-3.798-1.158-6.427l-.031-2.785-.022-3.027-.086-6.365-.104-10.018c.811-21.043.811-21.043-7.599-39.379-5.281-2.641-9.069-.931-13 3z"/><path d="M3077 2084l2.127.016 31.407.303 9.695.102c31.228.304 31.228.304 45.006 2.12 5.25.639 10.476.837 15.761 1.017 3.255.478 4.733 1.081 7.004 3.441v3l1.863.402 2.449.535 2.426.527C3197 2096 3197 2096 3200 2097c2.834.189 5.666.316 8.504.426l2.496.574.872 1.993c.932 2.212.932 2.212 3.172 2.581l2.499.113 2.756.18 2.889.133c12.591.591 12.591.591 17.813 5 .812 3.005 1.018 4.956 1 8l.071 2.902.054 10.036.012 3.361c-.007 6.253-.217 12.462-.633 18.701-.673 10.35-.701 20.694-.691 31.063v2.999c.013 14.744.406 29.287 2.188 43.939l.543 4.734c.596 5.041 1.261 10.064 2.078 15.074C3246 2252 3246 2252 3245 2254l2 2-2 1 3 3-4 1 1 2c-10.321 1.82-20.53 2.244-31 2.313l-3.794.053c-12.515-.007-12.515-.007-18.206-3.365-2.064-5.341-2.306-10.326-2.344-16.004l-.044-2.55-.144-10.715-.125-7.86-.016-2.425c-.08-4.5-.497-8.253-2.328-12.446-1.918-1.376-1.918-1.376-4-2l-2-1c-5.289-.403-10.213-.553-15 2-2.286-2.286-1.249-9.014-1.254-12.299-.13-5.13-.13-5.13-3.105-9.213-6.255-3.525-13.781-3.317-20.641-1.488l-.629-1.609c-1.996-4.577-3.815-7.548-8.371-9.777-4.996-1.532-10.035-.992-15 .387-2-3-2-3-2-9h-126l-1 7-2 1-3-1c-5.667-.561-10.18-.328-15 3-2.446 3.206-3.433 6.028-4 10l-3-.5c-7.778-1.049-13.361-1.036-20 3.5-1.118 2.236-1.194 3.649-1.316 6.133l-.127 2.441-.119 2.551-.131 2.574L2939 2209l-2 1-2.562-1.5c-4.485-1.957-7.77-1.883-12.437-.5-3.509 2.032-5.69 4.069-7 8-.105 1.692-.156 3.387-.174 5.082l-.041 3.135-.032 3.381-.1 7.053-.131 11.147-.144 10.738-.025 3.387-.05 3.125-.031 2.758C2914 2268 2914 2268 2912 2270l-1.937-3.812-1.09-2.145C2908 2262 2908 2262 2907 2259c-4.348-.433-4.348-.433-8.035 1.613-2.316 2.813-3.4 5.407-4.652 8.824l-1.262 3.371c-1.744 5.296-2.306 10.42-2.602 15.969l-.127 2.358c-.526 10.803-.522 21.614-.51 32.428l.003 3.342c-1.973 32.897-1.973 32.897 9.165 62.396 1.961 1.961 1.961 1.961 4.957 2.074 4.877-2.19 6.105-6.603 8.063-11.375 2.571 2.571 2.255 3.561 2.271 7.133l.031 3.248.006 3.529.076 7.377.072 11.645.102 11.228v3.486c.1 8.231 1.416 15.121 5.441 22.354 3.594 1.659 8.121 1.572 12 1 2.307-1.114 3.981-2.384 6-4 1.645 1.645 1.167 3.583 1.211 5.848l.086 3.025.133 6.297c.223 7.247.686 13.706 5.82 19.268 3.418 1.942 5.817 2.493 9.75 2.563 3.217-1.358 3.217-1.358 6-3h3l.113 1.758c.429 5.093 1.348 8.717 3.887 13.242v2h2v2c6.039 1.712 12.324 1.929 18-1 1.156 2.311 1.132 3.869 1.25 6.438.345 3.812.345 3.812 3 6.563 4.921 1.789 9.336 2.115 14.563 2.063l3.52-.027L3013 2514v2h2l1 2 3 1 3 3c3.285 1.095 5.737 1.1 9.188 1.063l3.293-.027 2.52-.035c1.942 3.516 2.183 5.972 2 10 5.994 1.022 11.88 1.215 17.953 1.316l3.196.063 6.697.123 10.052.191L3115 2535v-5c4.713 1.833 4.713 1.833 6.891 3.102 3.264 1.39 5.635.645 8.984-.203 3.401-1.438 4.568-3.655 6.125-6.898 1.046-3.238 1.058-6.065.914-9.453l-.133-3.324-.156-3.473-.133-3.238-.141-3.402-.157-3.813-.479-9.211c-.687-12.572-.724-25.077-.489-37.659l.045-2.468.473-22.856.249-12.649.108-4.769.131-6.613.083-3.784c-.345-3.592-1.149-5.433-3.316-8.287-4.533-2.266-9.916-1.11-14.625.125-4.191 1.025-6.281.32-10.375-1.125-7.195-.666-7.195-.666-14 1a172.24 172.24 0 0 1-7.937.188l-2.209.037c-3.825.011-5.597-.054-8.854-2.225l-3.5-.812c-3.5-1.187-3.5-1.187-5.375-3.437-2.221-5.429-2.284-10.959-2.293-16.754l-.01-2.302-.007-4.813-.039-7.234c-.084-22.629-.084-22.629 4.225-31.646l2-1-1-2c3.035-2.024 4.194-2.321 7.688-2.625l2.449-.227L3082 2316l-3-1v-2c12.19-.746 24.349-1.107 36.563-1.125l3.837-.014 3.605.006 3.213.003c2.432.113 4.463.427 6.783 1.129v2l1.938.688c2.063 1.313 2.063 1.313 2.691 3.895L3138 2322l2.203.367 6.336 1.07c2.281.371 4.568.705 6.859 1l3.227.438 2.977.367c2.398.758 2.398.758 3.609 2.766L3164 2330c3.418 1.709 7.336 1.245 11.102 1.316l2.759.063 8.765.183 5.84.131L3216 2332l.25-2.375c.75-2.625.75-2.625 2.262-3.691 3.601-1.351 7.262-1.892 11.051-2.496 5.788-.912 5.788-.912 11.438-2.437l1-2.5 1-2.5 3-1v-2c2.777-.787 5.226-1.119 8.109-1.098l2.285.01 2.355.025 2.402.014 5.848.049 1 3 3 1c4.724 5.114 7.444 11.842 10.25 18.125l1.034 2.314c4.482 10.301 7.046 21.587 3.904 32.748-2.762 6.011-9.284 13.704-15.207 16.903-2.51 1.41-4.151 2.673-5.981 4.909-1.183 4.787-1.013 9.553-.908 14.451l-.004 4.436.101 12.011.064 12.564.171 23.778.174 27.076L3265 2541h2v2h2v2c7.841 1.461 7.841 1.461 15-1 6.467-6.765 5.719-15.184 5.675-23.923l.037-4.875.03-13.297.055-14.201.068-27.46.044-22.11.092-84.298-.004-10.926-.166-60.96-.044-11.828-.116-18.285-.033-6.55-.077-8.816.01-2.536c-.115-5.881-1.42-10.905-4.572-15.933-3.589-2.393-4.762-2.56-9-2-3.736 1.872-7.044 4.044-10 7-2-.18-2-.18-4-1-8.225-12.852-10.328-30.163-7.27-44.973.914-3.488 1.86-6.708 3.27-10.027l.701-2.031c1.154-2.568 2.167-4.107 4.299-5.969 4.957-1.221 9.898-1.022 14.965-.924l4.651-.008 12.666.088 13.419.055 25.596.157 28.486.145 97.061.976 3.188.06c43.844.846 43.844.846 49.105 4.823 2.225 3.14 2.301 4.861 1.863 8.629h3v2l21 2 2 8c5.547 4.652 16.174 3.718 23 4 1.874 5.749 2.345 11.1 2.391 17.127.175 5.069 1.427 7.956 4.609 11.873 4.219 2.973 7.188 3.309 12.098 2.461 2.419-.586 4.65-1.405 6.902-2.461 1.05 6.009 1.142 11.857 1.129 17.949l.005 3.274-.002 10.679.003 7.446-.005 15.592.004 19.956v15.372l.002 7.357-.007 10.295.006 3.053c-.016 5.435-.336 10.647-1.136 16.025-3-1-3-1-4.75-3.062-2.202-2.236-2.202-2.236-5.687-2.5-4.517.713-5.772 1.997-8.562 5.563-3.111 5.333-4.015 10.182-4.465 16.266l-.236 2.945-.461 6.125-.24 2.93-.203 2.681L3564 2378l-2 1-2.687-1.5c-4.113-1.862-5.996-1.733-10.312-.5-3.382 2.151-5.768 4.653-8 8-.433 4.194-.414 8.389-.426 12.604l-.112 6.175c-.037 6.832.026 12.136 4.068 17.814 2.795 2.677 5.065 3.37 8.906 3.719 3.772-.331 5.492-1.207 8.563-3.312h2c.719 4.446 1.105 8.756 1.24 13.255.277 8.279.894 14.162 6.448 20.745 3.704 1.602 7.347 1.57 11.313 1 2.401-1.359 2.401-1.359 4-3h2c1.183 6.011 1.325 11.995 1.518 18.1.181 4.324.355 8.019 2.482 11.9 1.934 1.301 1.934 1.301 4 2l2 1c2.11.197 2.11.197 4.438.188l2.371.043c2.483-.09 2.483-.09 5.191-2.23h3c.748 3.038 1.074 5.916 1.141 9.031l.059 2.207.055 4.523c.142 4.227.384 5.799 3.176 9.188 4.691 3.743 7.455 4.488 13.57 4.051 2.201-.933 2.201-.933 4-2h3l.402 3.359.535 4.391.264 2.211c.583 5.085.583 5.085 1.799 10.039 1.9 1.242 1.9 1.242 4 2l2 1c1.602.096 3.208.13 4.813.125l2.582.008c2.608-.036 2.608-.036 5.039-.82 3.635-.443 5.604.879 8.816 2.563 5.501 2.682 9.628 4.125 15.75 4.125l3-2c.423-4.481.237-8.058-2-12-3.688-3.793-6.722-4.907-12-5-3.268 1.341-3.268 1.341-6 3h-2c-1.019-3.057-1.139-5.208-1.176-8.41l-.072-3.252-.094-6.719c-.213-8.303-1.61-15.309-6.471-22.182-3.157-2.074-5.417-2.437-9.187-2.437-3.312 1.763-3.312 1.763-6 4l-2 1c-.941-2.824-1.134-4.594-1.158-7.521l-.031-2.776-.022-3.011-.086-6.396-.104-10.016c-.158-18.107-.973-35.939-6.661-53.279l-.775-2.516c-1.365-4.38-1.365-4.38-3.25-8.551C3628 2391 3628 2391 3628 2388h-3l-.398 2.196c-.571 2.66-1.322 5.106-2.231 7.667l-.947 2.686-.986 2.764-.998 2.822L3617 2413h-1c-.758-6.553-1.149-12.999-1.133-19.594l-.003-2.643.005-5.485-.006-8.313.004-5.371-.006-2.466c.023-5.758.477-11.408 1.139-17.128 2.676 2.676 3.384 5.726 4.5 9.25l.645 1.988L3623 2369l2 6h3l3-9 1.242-3.773c4.915-15.157 6.819-29.763 7.039-45.695l.113-6.414.158-9.987.167-9.724.041-3.03.051-2.804.038-2.463C3640 2280 3640 2280 3641 2277c2.261 1.05 3.975 1.977 5.813 3.688 2.254 1.6 2.254 1.6 5.625 1.375 4.38-1.306 6.41-3.154 8.563-7.062 2.743-6.909 3.478-13.562 3.625-20.937l.164-5.527.053-2.426c.158-2.11.158-2.11 1.158-5.11l1.875 1c4.424 1.416 8.521 1.611 13.125 1 3.855-1.997 5.598-3.397 8-7 .332-1.961.332-1.961.344-4.09l.09-2.377.066-2.471.156-4.84.057-2.164c.327-2.346 1.13-4.006 2.287-6.059l1.703.48c6.114 1.383 13.213 1.466 18.809-1.617 2.959-3.704 2.365-8.587 2.355-13.137.13-3.659.801-6.339 2.133-9.727l2.309-.113c5.995-.382 11.241-1.082 16.852-3.266 1.84-.621 1.84-.621 4.84-.621l1-3 2.781.105c7.181.158 12.711.018 19.219-3.105l.332-2.703.48-3.547.457-3.516c.758-3.355 1.43-4.748 3.73-7.234 2.062-.789 2.062-.789 4.444-1.181l2.7-.444c4.909-.645 9.812-1.121 14.75-1.486l3.418-.255c12.795-.881 25.568-.905 38.388-.864l7.737.001 16.092.023 16.292.021c75.642-.006 75.642-.006 99.367 2.498l3.666.318 3.502.357 3.02.298c3.215.874 4.529 2.166 6.624 4.714 1.113 2.914 1.108 5.651 1.063 8.75l-.027 2.422L3990 2180c8.161 2.431 15.491 3.407 24 3v3c7.957 1.888 15.845 2.553 24 3 2.428 4.944 2.327 9.825 2.303 15.205.111 3.804.364 5.451 3.053 8.229 4.947 2.93 9.797 2.892 15.371 3.172 5.172.293 5.172.293 6.273 1.395.17 3.709.297 7.411.342 11.123.19 5.392 1.035 8.626 4.658 12.877 5.053 2.955 8.34 3.363 14 2 2.819-.975 2.819-.975 5-2 1.208 2.417 1.156 4.035 1.211 6.734.567 20.975 3.608 36.665 16.219 53.969 9.89 14.466 8.731 32.885 8.738 49.645l.01 4.991.007 10.421.031 13.183.013 10.304.013 4.851c.097 21.992-.577 43.097-15.367 60.715-9.379 11.969-9.073 28.71-9.393 43.111l-.104 3.439-.076 3.134C4090 2508 4090 2508 4088 2510l-1.562-1.437c-3.237-2.075-5.603-2.43-9.437-2.562-4.706 1.661-7.224 3.887-10 8-.93 2.79-1.187 4.765-1.316 7.668l-.127 2.705-.119 2.814-.131 2.85L4065 2537c-3 1-3 1-6 0-5.993-.536-10.859-.47-16 3-2.544 3.816-2.412 7.128-2.562 11.563-.318 8.199-.318 8.199-1.437 10.438l-2.852-.07-3.773-.055-3.727-.07c-5.022.269-8.478 1.415-12.648 4.195-.769 3.042-.769 3.042-1.125 6.5-.801 6.352-.801 6.352-1.875 8.5h-14v2l-3 1-1.437 1.5C3993 2587 3993 2587 3989 2588v13h-8v-13h-3v13h-227v-13l-3.312.125C3744 2588 3744 2588 3741 2586c-.449-2.828-.449-2.828-.687-6.25-.631-4.721-1.089-7.419-4.937-10.375-2.14-1.327-2.14-1.327-4.375-2.375l-1.988-.98c-4.86-2.075-9.771-2.668-15.012-3.02l1 2v36h-155v-13l-3.648-.367-4.727-.508-2.406-.238c-5.992-.66-5.992-.66-8.219-2.887-1.428-5.118-1.215-10.446-1.328-15.723-.387-3.441-.387-3.441-3.094-5.648-3.881-2.452-5.917-2.765-10.516-2.754l-3.215-.008c-2.923.007-2.923.007-5.848 1.133-1.651-2.898-2.234-4.94-2.203-8.266l-.023-2.438-.024-2.546c-.192-6.639-.505-11.473-5.18-16.57-3.683-2.766-8.159-2.714-12.57-2.18-2.343 1.379-2.343 1.379-4 3h-2c-.812-2.864-1.132-5.441-1.176-8.414.059-13.404.059-13.404-4.824-25.586-3.533-3.096-6.258-3.918-11-4-3.292 1.833-3.292 1.833-6 4h-2c-1.048-3.145-1.155-5.466-1.211-8.77l-.086-3.443-.133-7.164c-.164-6.03-.311-10.49-3.57-15.623v-2c-6.636-3.195-10.943-3.027-17.91-.762l-2.09.762c-1.542-1.542-1.127-3.005-1.141-5.148l-.059-2.547-.055-5.336c-.07-2.415-.197-4.615-.746-6.969-3.165-2.964-6.057-3.431-10.312-3.437l-2.676-.059c-2.889.476-4.632 1.201-7.2 2.527l-2.168 1.111-1.644.858.132 36.9.063 17.134.078 16.534.013 6.309.054 8.834-.026 2.637c.083 4.358.284 6.129 3.028 9.688 2.557 2.169 2.557 2.169 5.846 2.65 3.833-.691 5.496-1.604 8.688-3.687 5.024-3.225 8.295-3.683 14.125-3l2.645.176c8.377.625 8.377.625 11.355 2.824 7.611 17.758 4 44.7 4 62h-224v-14c2.751-.917 4.359-1.109 7.188-1.062l3.813.063c4.669-13.849 6.213-26.854 6.659-41.394l.095-2.934.073-2.653C3259 2537 3259 2537 3260 2536l-.435-2.385c-.757-4.841-.657-9.559-.602-14.45l.024-3.274.099-10.695.064-7.45.167-17.608.158-17.982.139-15.385.065-7.365.1-10.31.022-3.058c.065-5.434.438-10.656 1.199-16.036a139.46 139.46 0 0 0 .188-6.25l.043-3.016c-.238-2.823-.669-4.39-2.23-6.734-3.353-2.236-3.907-2.173-7.687-1.625l-2.449.336-1.863.289c-2.55 5.897-2.99 12.827-1.502 19.098.695 4.015.68 7.957.708 12.025l.03 2.762.081 9.049.063 6.345.123 13.333.158 16.899.156 16.298.029 3.054.136 17.291.046 5.817.058 8.815.028 2.639c.029 8.741-1.082 17.266-2.456 25.885l-1.172 7.842-.781 5.09-.335 2.317c-.995 6.053-2.725 12.249-7.587 16.281l-2.281 1.098-2.281 1.152c-2.219.91-2.219.91-6.219 1.91l-1 13h-306l-1-14c-3.058-6.116-4.706-8.722-11-11-3.177-.209-6.19-.135-9.363.117-2.637-.117-2.637-.117-4.449-1.379-1.85-2.709-1.885-5.532-2.187-8.738-6.572-3.085-12.747-3.493-19.902-3.789C2866 2562 2866 2562 2865 2561l-.811-10.654c-.39-4.398-.591-5.833-4.084-8.826-6.876-3.365-12.687-2.638-20.105-1.52l-.297-3.508-.453-4.617-.187-2.305c-.532-5.147-1.626-8.503-5.062-12.57-2.843-1.967-5.141-2.273-8.562-2.25l-2.316-.016c-2.421.143-2.421.143-5.121 2.266h-3l-.12-2.26-.63-10.24-.187-3.555c-.469-6.958-1.284-12.028-5.062-17.945-3.501-2.568-5.285-3.025-9.625-2.875-3.268.847-4.855 1.728-7.375 3.875h-2a325.94 325.94 0 0 1-1.184-20.777l-.098-3.685-.15-7.322c-.197-7.517-1.298-14.059-3.569-21.216l-.875-3.562c-.934-2.588-.934-2.588-3.312-3.875-3.711-.742-6.166-.623-9.812.438-2.334 2.958-2.334 2.958-4 6h-2c-.758-17.518-1.151-34.998-1.133-52.531l-.003-7.022.005-14.571-.004-18.422v-14.456l-.002-6.782c-.013-16.426.426-32.806 1.136-49.216h2l1.563 3.438c1.811 3.159 2.209 3.483 5.875 4.75 3.517.037 3.517.037 6.25-1.437 6.623-7.876 7.421-18.553 7.848-28.426l.13-2.804.397-8.833.275-6.002L2790 2213a56.54 56.54 0 0 1 7 4c4.295.312 7.349.339 11-2 5.751-7.401 5.942-16.123 6.313-25.125l.221-4.055.467-9.82c2.182.502 3.916.952 5.875 2.063 2.947 1.3 4.926 1.321 8.125.938 4.363-1.92 6.381-4.135 8.313-8.375 2.296-6.365 2.494-12.915 2.688-19.625 3.75-1.125 3.75-1.125 6 0 4.919.689 8.109.561 12.375-2.125 3.947-4.323 5.579-8.196 6.625-13.875l3.219.176c10.284.657 10.284.657 19.504-3.145 2.452-3.899 2.154-8.364 2.145-12.852.133-3.18.133-3.18 2.133-6.18a82.58 82.58 0 0 1 8.188-1.062c4.259-.373 8.21-.761 12.328-1.965 4.759-1.329 9.343-1.391 14.256-1.539 4.418-.183 8.057-.799 12.229-2.434l.332-2.52.48-3.293.457-3.27c.766-3.058 1.105-4.22 3.73-5.918 2.531-.406 2.531-.406 5.5-.5 6.988-.415 13.51-1.861 19.996-4.525 4.744-1.32 9.241-1.332 14.145-1.389l3.189-.059 10.42-.152 7.374-.113L3077 2084zm337 157c-.102 1.522-.135 3.048-.14 4.573l-.017 2.995-.003 3.314-.015 3.469-.027 11.419-.017 7.904-.018 14.473-.051 21.311-.034 18.445-.024 7.853-.009 10.975-.028 3.295.017 3.021-.004 2.622c.459 2.876 1.378 4.232 3.372 6.332 6.687 2.229 12.186.892 18.605-1.441 4.116-.96 7.39.343 11.145 2.004 4.313 1.647 8.692 2.477 13.25 1.438 2.881-1.342 2.881-1.342 5-4 .725-3.039.745-6.011.75-9.125.178-8.73.178-8.73 1.25-10.875l2.563 2c4.044 2.353 5.839 2.807 10.438 2 4.994-2.821 7.4-6.124 9.361-11.532 1.257-4.856 1.065-9.794 1.037-14.78l.009-3.54-.016-7.383.019-11.257-.012-7.195.018-3.378c-.064-7.09-.584-13.176-4.995-19.028-3.091-2.6-4.918-3.818-8.984-4.531-3.976.723-6.275 2.156-9.437 4.625-1.227-2.454-1.141-4.125-1.176-6.867l-.072-2.934-.094-6.125c-.062-5.715-.062-5.715-2.514-10.707-4.065-2.591-7.419-2.6-12.145-2.367-1.319.327-2.632.682-3.937 1.063-5.659 1.537-10.569.363-16.125-1.125-6.43-1.664-11.949-1.926-16.937 3.063zm430-3c-1.772.134-3.548.223-5.324.281l-3.119.113-3.244.105c-8.73.28-8.73.28-17.426 1.059-3.539.402-5.506.202-8.887-.559-5.481-.453-9.5-.545-14 3-3.001 3.001-2.427 6.467-2.562 10.5-.319 8.263-.319 8.263-1.437 10.5l-2.562-1.5c-4.965-2.167-8.506-2.144-13.625-.437-3.571 2.46-5.383 4.904-6.812 8.938-.609 4.647-.605 9.267-.609 13.949l-.05 4.18-.079 11.222-.097 11.814-.146 23.576-.065 11.44.023 40.976.051 10.56.159 24.634.083 12.254.098 11.53.024 4.268c.011 9.328.467 15.865 6.796 23.098 3.903 2.082 7.486 2.466 11.813 1.5 3.239-1.947 3.239-1.947 6-4l.028 1.693.222 7.744.043 2.662c.252 6.834 1.518 13.317 6.196 18.574 2.966 2.604 5.527 3.389 9.448 3.139 3.308-.878 6.067-2.172 9.063-3.812l.008 2.012c.122 5.181.122 5.181 2.289 9.73 4.247 3.553 7.758 4.397 13.141 4.383l2.871.008c2.393-.118 4.405-.452 6.691-1.133l-.027 2.703c-.095 6.388-.095 6.388 2.371 12.016 6.684 4.011 14.267 3.469 21.656 2.281l1 2c2.825.976 5.458 1.126 8.43 1.129l2.629.01 2.816-.006 2.914.003 6.092-.005 9.322.006 5.922-.004 2.816.006 2.629-.01 2.305-.002c2.155-.129 4.053-.536 6.125-1.127l1-4 1.664.48c5.728 1.274 11.398 1.315 16.836-.918 4.329-4.437 5.5-9.465 5.5-15.562l2.438 1c5.637 1.582 10.44 1.826 15.938-.312 3.147-2.003 3.147-2.003 5.625-4.687.507-2.901.507-2.901.512-6.199l.107-3.662.068-3.826.104-3.861.209-9.451 1.406 1.074 1.871 1.391 1.844 1.386c3.09 1.889 5.374 1.722 8.879 1.149 4.574-2.152 7.006-4.764 9.175-9.329 1.847-5.98 1.368-12.409 1.327-18.615l.016-4.846-.014-13.109-.004-13.743-.034-23.072-.017-26.649-.01-25.674-.001-10.91-.027-12.851-.001-4.708-.024-6.442-.007-3.636c-.601-5.402-2.414-10.218-6.63-13.853-2.661-2.084-3.864-2.584-7.312-3.25-4.482.896-6.197 2.526-9.437 5.688-.758-4.065-1.13-7.93-1.176-12.062l-.072-3.414-.094-7.047c-.193-7.832-.948-11.634-6.408-17.289-3.342-1.764-6.512-2.443-10.25-2.187-2.861 1.041-5.415 2.398-8 4l-.043-2.852c.011-7.972.011-7.972-3.332-14.898-3.895-3.338-5.915-4.528-11-4.5l-2.836-.016c-2.932.279-5.123 1.044-7.789 2.266v-5c-6.383-2.842-11.439-3.356-18.375-3.125-5.165.128-10.22.238-15.359-.359-6.702-.756-13.404-.661-20.141-.641l-3.953-.012-3.789.004-3.425.003c-2.543.111-4.523.488-6.958 1.129zm-94.559 92.168c-8.941 17.567-7.683 46.817-1.941 65.332 1.237 3.485 1.237 3.485 3.5 5.5 2.457.5 2.457.5 5 0 5.141-4.76 5.438-13.223 6.125-19.812l.262-2.252c.996-9.182.681-18.194-.199-27.373l-.266-2.771c-.771-11.275-.771-11.275-5.922-20.792-3.405-.611-4.483-.718-6.559 2.168z"/><path d="M4085.587 2158.866l2.181-.007 7.166-.005 5.167-.01 13.991-.012 8.759-.005 30.607-.013 28.445-.026 24.488-.018 14.595-.013 13.745-.002 5.014-.007c9.961-.034 19.417.522 29.257 2.252l-2 1v2l3 1v4l.051 5.533.059 9.173.041 4.806c.18 17.097.18 17.097-2.151 25.488h-2l1 4c-2.875.188-2.875.188-6 0l-2-3c-4.971-1.059-8.442-1.605-13 1-3.257 2.413-3.991 5.139-5 9-.291 3.652-.274 7.293-.261 10.956l-.012 3.352-.002 11.123-.015 7.973-.012 19.413-.004 15.782-.002 2.27-.004 4.565-.003 42.802-.025 39.141-.024 40.207-.015 22.566-.001 19.212-.005 9.797.01 10.632-.022 3.112c.053 7.037 1.036 12.557 5.022 18.535 3.615 2.378 7.08 2.901 11.375 2.563 2.687-1.054 4.612-2.323 7-4 1.586 1.586 1.464 3.506 1.813 5.688.898 4.715 2.152 7.613 5.188 11.313l2 1v2l4.813.125 2.707.07c2.734-.012 2.734-.012 5.48-2.195h3c1.447 2.893 1.381 5.805 1.621 9.004L4291 2534c2.418 1.209 3.933 1.121 6.633 1.114h2.912l3.15-.016 3.22-.004 10.21-.031 6.91-.014L4341 2535v-6c3.01-.934 3.867-1.044 7 0 5.224.394 8.644.001 13-3 3-3.895 4.626-8.307 6-13l2.5 1c5.374 1.536 9.549 1.736 14.813-.25 2.729-1.777 3.994-3.008 5.688-5.75.446-2.333.446-2.333.38-4.877l.026-2.988-.018-3.275.016-3.485.003-9.578.018-10.33.013-20.239.003-16.451.002-2.364.005-4.754-.003-44.604.027-40.802.027-41.891.016-23.52-.002-20.027.005-10.216-.016-11.08.029-3.255c-.062-6.294-.744-10.164-4.53-15.266-4.282-2.855-8.521-2.381-13.437-1.625-1.783.513-1.783.513-2.562 2.625h-7v-2l-2.437-1.375C4358 2215 4358 2215 4357.438 2213l-.437-2c-1.977-1.754-1.977-1.754-4-3l1-1c-3.734-.879-7.168-1.089-11-1-1.039-3.419-1.129-6.558-1.133-10.121l-.004-3.584.012-3.732-.012-3.721.004-3.588.003-3.271C4342 2175 4342 2175 4343 2170l11-3-3-2 2.375-.812c2.906-1.036 2.906-1.036 4.625-4.187 2.793-.407 5.366-.603 8.174-.678l2.663-.1c12.705-.42 25.422-.371 38.132-.367l11.582-.01 22.648-.012 18.514-.006 52.898-.013h2.871 2.875l45.729-.023 47.355-.02 26.421-.013 103.052 1.068 6.635.181 12.225.368 3.589.099c19.59.689 19.59.689 25.637 5.526 1.148 2.296 1.308 4.077 1.563 6.625l.254 2.477.184 1.898c6.596 3.096 12.528 3.322 19.707 3.301l3.293.699c1.762 2.918 1.762 2.918 3 6l3 2v2c5.507 1.798 10.543 2.934 16.313 1.375L4838 2192c2.344 2.344 2.288 2.951 2.492 6.141l.199 2.496.344 5.18c.464 5.626 1.532 8.709 4.965 13.184v2c5.64 1.629 9.439 2.516 15 0l3-1c1 1 1 1 1.123 3.013l-.003 2.701.004 3.089-.011 3.418v3.577l-.013 9.737-.008 10.166-.021 19.263-.022 21.925L4865 2342c-4.75-1.875-4.75-1.875-7-3-3.584-.27-6.303-.259-9.687 1-5.085 4.398-6.506 9.791-7.141 16.25l-.422 6.75-.234 3.504L4840 2375c-2.21-.503-3.873-.921-5.812-2.125-3.354-1.342-5.735-.738-9.187.125-2.293 1.958-2.293 1.958-4 4h-2l-.375 2.063C4818 2382 4818 2382 4817 2385.375c-.978 3.544-1.554 6.98-2 10.625l-2.344-.324c-8.138-.937-13.089-.603-20.094 3.887-2.131 3.324-2.139 6.302-2.289 10.195C4790 2412 4790 2412 4788 2414c-2.091.363-2.091.363-4.648.527l-2.797.213-5.836.383-2.805.217-2.564.168c-2.769.58-4.149 1.763-6.35 3.492-3.172.441-3.172.441-6.75.563-5.384.27-10.097.892-15.25 2.438l-.262 2.23c-.676 4.693-1.181 7.996-3.988 11.895-6.487 4.423-16.153 3.632-23.75 2.875-2.531-1.077-4.588-2.348-6.859-3.887-3.846-2-7.924-1.509-12.141-1.113-3.072 5.104-3.423 8.956-3.356 14.724l-.006 2.594.035 8.455.006 5.903.041 12.362.044 15.803.034 15.12.006 2.894.036 8.162.003 2.406c-.155 8.921-.155 8.921 2.72 17.077 3.492 2.149 6.517 2.347 10.438 1.5 2.103-1.119 2.103-1.119 4.188-2.5 7.546-4.6 16.741-3.098 25.008-1.133C4735 2538 4735 2538 4738 2540c5.589 19.561 2 40.656 2 61h-224c0-52.069 0-52.069 4-58 3.188-2.312 3.188-2.312 6-4v-1l7-1v-1h9l2 4h2l1.688 1.938c3.101 2.765 5.199 2.99 9.313 3.063 3.271-1.264 4.638-2.473 6.617-5.354 2.014-5.31 1.796-10.283 1.764-15.917l.014-3.781-.003-10.368.012-11.191.002-21.917-.004-17.82.001-2.562.003-5.153-.017-48.332.003-41.442.013-48.141-.003-5.138-.001-2.553.009-17.786-.01-21.694-.001-11.062-.017-12.009.02-3.507c-.056-7.772-.69-15.345-5.214-21.897-2.994-1.882-4.698-1.863-8.187-1.375-4.187 1.72-4.187 1.72-7.437 4.75-1.562 1.25-1.562 1.25-5.125 1.063C4536 2221 4536 2221 4534 2219c-3.761-1.446-8.063-1.835-12-1-1.911 1.386-1.911 1.386-3.625 3.125-1.711 1.664-1.711 1.664-3.375 2.875-3.817-.587-5.795-1.864-9-4-3.458-.583-3.458-.583-7 0-6.105 5.257-7.405 14.347-8 22-.139 5.335-.116 10.668-.098 16.003l.004 4.89.018 10.546.025 16.904.032 24.072.05 61.811.001 3.055-.532 98.968-.036 2.796L4490 2512l-2 1-1.875-2.437c-2.472-2.981-3.146-3.454-6.937-3.875-4.194.411-5.384 1.14-8.187 4.313-3.425 7.367-5.044 14.659-5.246 22.766l-.1 3.195-.172 6.625-.104 3.18-.076 2.899C4465 2552 4465 2552 4463 2554l-2.062-1.5c-3.64-1.859-5.892-1.933-9.937-1.5-4.81 1.718-6.725 5.169-9 9.512-1.295 3.223-1.689 6.189-1.859 9.641C4440 2572 4440 2572 4439 2574l-2.668-.289-3.52-.336-3.48-.352c-3.429-.024-5.329.381-8.332 1.977-4.598 4.598-5.046 6.161-7 13h-17v13h-187v-13l-3.648.07-4.727.055-2.406.051c-2.074.018-4.148-.072-6.219-.176-2-2-2-2-2.75-5.312-1.604-4.731-3.202-5.879-7.25-8.687-5.241-1.747-10.688-1.328-16 0-1.223-2.445-1.14-4.207-1.25-6.937-.564-6.799-2.549-14.034-7.641-18.852-3.579-2.055-7.103-1.767-11.109-1.211-2.98 1.332-2.98 1.332-5 3-1.924-1.924-1.297-5.481-1.395-8.113l-.209-4.475-.295-7.035c-.392-16.119-.392-16.119-7.476-30.127-3.155-1.503-5.165-1.618-8.625-1.25l-2.25.188c-2.04.724-2.04.724-3 3.375L4118 2505h-2c-1.941-34.653-1.29-69.537.563-104.187 1.215-24.412.413-48.798-.641-73.198-.639-14.957-1.023-29.896-1.172-44.864l-.026-2.494-.194-24.654-.072-9.237-.016-4.296c-.001-8.5-.68-15.998-3.442-24.069-5.879-1.115-8.73-1.234-14 2l-4 2v2h-4v-2c-3.204-1.659-6.477-3.063-9.812-4.437L4066 2212l-.22-19.806-.082-6.736-.089-9.688-.063-3.037c-.001-4.191.115-7.042 1.978-10.843 4.874-3.72 12.139-3.015 18.063-3.023zM4349 2203l4 1zm341 37c-.793 3.745-.671 7.478-.631 11.293l-.022 3.529.024 11.581-.007 8.03.039 16.844.015 19.469.008 18.73-.002 7.97.042 11.133-.02 3.342.039 3.063.009 2.659c.678 3.16 2.022 4.354 4.506 6.358 6.149 1.845 11.223.326 17-2a95.91 95.91 0 0 0 3.813-2.312L4718 2358c2.313.75 2.313.75 5 2 4.749.583 8.664.711 12.938-1.562 4.975-5.88 5.505-11.513 5.467-18.918l.021-2.802.009-9.121.016-6.37-.003-13.332.038-17.051.012-13.149.018-6.285-.013-8.801.029-2.6c-.07-5.793-1.312-10.15-4.531-15.01-3.763-3.541-7.685-3.378-12.617-3.238-2.739.274-4.952.942-7.383 2.238l-.5-1.812c-2.366-3.45-5.575-4.337-9.5-5.187-9.176-.996-9.176-.996-17 3zm-292 2c-1.803 5.409-1.415 11.03-.25 16.563 1.005 2.571 1.005 2.571 3.25 3.375 2.074.223 2.074.223 4-.937 2.359-5.111 2.621-10.463 2-16-1.193-3.159-1.193-3.159-3.937-4.875-2.376-.352-2.376-.352-5.062 1.875zm351 51c-2.69 4.034-3.362 7.546-2.648 12.387.653 3.026 1.26 5.837 2.648 8.613h2v2h3c3.281-6.135 4.499-11.014 4-18-.938-2.983-.938-2.983-3-5-3.043-.667-3.043-.667-6 0zm-348 4v51h2v-51h-2zm0 78v31h2v-31h-2zm-2540-133h2v35h-2v-35zm0 175h2v21h-2v-21z"/></svg>