<svg xmlns="http://www.w3.org/2000/svg" width="239" height="126" fill="#0c6641" xmlns:v="https://vecta.io/nano"><path d="M177 9h3c.623 9.252-.738 15.56-6.25 23.063L172 34l1.68-1.277 2.195-1.66 2.18-1.652C180 28 180 28 182 27c-.35 6.646-1.805 9.837-6 15l4-1c-.665 5.651-3.619 9.342-7.187 13.625-1.915 2.155-1.915 2.155-2.227 4.352-.921 3.181-3.01 4.258-5.664 6.051-2.705 1.369-4.954 1.335-7.922.973l3 2-1 3c-7.75 1.125-7.75 1.125-10 0l-1 2h2l-1 3c-3.123-.486-5.996-.999-9-2-3.537 1.372-6.367 3.273-9 6-1.039 3.379-1.174 6.483-1 10l-3 1c-2.197-6.592-2.295-15.263.688-21.625 1.987-3.226 3.937-5.534 7.313-7.375 4.316-.672 8.282-.479 12 2-.716-2.016-.716-2.016-2-4-2.05-.805-2.05-.805-4-1l-1-4h2l-3-3c1.597-4.471 5.074-6.84 8.625-9.75 10.412-8.746 20.281-18.113 27.25-29.937L177 9zm-4 34l-1 2 3-1-2-1zm-8 14l4 1zM73 9c3.739 1.246 4.304 2.531 6.5 5.75 8.053 11.357 17.037 22.906 28.91 30.461 9.447 6.185 9.447 6.185 10.941 11.664.547 2.762.876 5.525 1.172 8.324.534 4.26 1.76 7.421 3.707 11.199C125 78 125 78 125 80c-9.595-2.706-9.595-2.706-13-7l-1.625 1.5c-2.969 1.875-4.928 1.735-8.375 1.5v-3h2v-2l-3.187.625C97.004 72 95.332 71.716 92 70c0-2 0-2 2-4l-2.625-.25C87.444 64.876 85.14 63.498 82 61c-1.375-2.25-1.375-2.25-2-4l2-1-2.75-2c-3.648-3.017-5.599-6.601-7.25-11v-2l6 2-2.312-2.562C72.364 36.454 70 32.31 70 27c3.039 1.41 5.594 3.089 8.25 5.125l2.141 1.633L82 35l-1.207-1.285C75.099 27.411 72.555 21.459 72 13c.438-2.5.438-2.5 1-4zm6 35l1 2 2-1-3-1zM10 90h10v2h-2v7h9l1-7h-3v-2h10v2h-2v19c3.622-3.622 4.961-7.414 6.75-12.082.673-1.672 1.455-3.3 2.25-4.918l3-1 3.5 7.875 1.012 2.262.957 2.168.889 2C52 109 52 109 52 111h2V95h-2v-2l4.25-.062 2.391-.035c2.269.094 4.171.534 6.359 1.098 1.338-.312 2.671-.648 4-1 2-.038 4.001-.045 6 0l.375 3.75c.382 3.126.93 5.539 2.625 8.25l1.5-3.187.844-1.793c.914-2.458.914-2.458.656-7.02h18v5h-2v-2h-5v5h7v5l-7-2 1 6c3.879.452 3.879.452 5.625-1.5L100 107h2l1 3h4c-.122-1.915-.122-1.915-1-4l-2.5-1.375C101 103 101 103 100 100c0-3 0-3 1.313-4.812 3.261-2.295 5.39-2.305 9.352-2.285l3.398.01 3.563.025 3.586.014L130 93l1 5-7-2v15h2v3h-9v-3h2V96h-5v2l-4 1-1-2h-4v2c1.137.774 2.311 1.496 3.5 2.188 3.159 2.16 3.427 2.427 4.188 6.438C112 111 112 111 110.375 112.938c-4.011 1.794-7.277 1.429-11.375.063l-1 1a153.02 153.02 0 0 1-6.562.063l-3.629-.027L85 114l1-3a187.85 187.85 0 0 0 .063-7.187L86 97l-8 17h-2l-8-18v5c-1 2.313-1 2.313-2 4 2.39 3.243 4.205 5.509 8 7l-1 2c-6.164-.242-6.164-.242-8.508-2.367-1.207-1.511-2.353-3.07-3.492-4.633l-2-1v5l3 1v2H47l-1-7h-6v7H26v-3h2v-9H18v9h3v3H10l1-3h2V92h-3v-2zm49 6v7l4-1v-5l-4-1zm-16 5l-1 3h2l-1-3zm147-6h9v2h-2l.438 5.375.246 3.023c.166 2.581.166 2.581 1.316 4.602h5l1-12-2-1v-2l9.313-.125 2.67-.051 2.568-.02 2.365-.032C222 95 222 95 225 97c.438 2.938.438 2.938 0 6-1.75 1.875-1.75 1.875-4 3h-4v6h3v2h-9v-2h2V97h-4l.176 2.449c.367 8.695.367 8.695-2.238 12.801-3.69 2.198-5.71 2.442-9.937 1.75-2.199-1.613-2.199-1.613-4-4-.391-3.234-.391-3.234-.25-6.75l.109-3.547L193 97l-3-1v-1zm27 2v7l4-1-1-5-3-1zm-69.875-5.062l3.883.027L154 92v7h-2v-3l-4.312-.625-2.426-.352c-2.549-.239-2.549-.239-5.262 1.977-.989 3.347-1.028 5.791-.562 9.25 1.25 2.845 1.25 2.845 3.48 3.57 2.003.503 4.043.851 6.082 1.18v-7h-2v-2h9v2h-2v9c-4.655 2.327-10.663 1.438-15.437-.125-3.226-2.361-4.321-4.076-5.562-7.875.093-5.312 1.309-8.198 5-12 3.003-1.502 5.791-1.093 9.125-1.062zm37.492 2.585C187 95 187 95 190.125 97c2.39 3.824 2.861 6.603 1.875 11-1.794 2.81-3.019 4.509-6 6-5.248.344-8.817.568-13-3-1.715-2.884-2.007-4.645-1.937-8 2.242-7.176 6.506-8.876 13.555-8.477zM177.75 98.5c-1.952 2.788-1.967 3.386-1.625 6.625.511 3.867.511 3.867 2.875 5.875 3.583.167 3.583.167 7 0 2.021-4.042 2.324-6.651 1-11-3.096-3.096-5.385-4.077-9.25-1.5z"/><path d="M155 95l5.313-.125 2.988-.07C166 95 166 95 169 97c.431 4.054.3 5.55-2 9l1.75 1.496 2.25 1.941 2.25 1.934L175 113v1c-2.687.313-2.687.313-6 0-2.687-2.375-2.687-2.375-5-5l-3-2v5h3v2h-9v-2h2V97h-2v-2zm6 3v6l4-1-1-5h-3z"/></svg>