<svg xmlns="http://www.w3.org/2000/svg" width="235.509" height="13.504" fill="#ffea23" preserveAspectRatio="none" xmlns:v="https://vecta.io/nano"><path d="M163 .385c.504-.053 1.01-.077 1.517-.072a3.53 3.53 0 0 1 1.237-.134q.618.044 1.237.044a.25.25 0 0 1-.1.178c-.071.07-.108.167-.1.266q3.092.088 6.184-.044 3.092-.132 5.978-.221l-.206-.088a12 12 0 0 0 4.123 0c1.901-.417 3.871-.417 5.772 0q1.443-.178 2.68-.266a5.98 5.98 0 0 1 2.478.354c1.383-.296 2.797-.415 4.21-.355q2.164.088 4.844.088-.618.088-.824.134l-.618.133c.675.185 1.386.185 2.061 0 .528-.204 1.084-.324 1.649-.356q.618.088 1.134.178a9.76 9.76 0 0 0 1.544.09 17 17 0 0 1 3.092-.266q1.649 0 3.5.178 2.886.088 5.875.044 2.989-.044 5.875-.222 0 .088.206.088h.412c.84.349 1.7.646 2.577.889a12.46 12.46 0 0 1 2.783 1.157 3.96 3.96 0 0 1 1.031.622 3.35 3.35 0 0 1 1.649 1.023 5.08 5.08 0 0 1 .618 1.111q.412.534-1.031.98-1.031.444-.618.98a2.09 2.09 0 0 1 .206.889q0 .444.825.889.618.8-.206 1.245l-1.237.534q-1.443-.088-2.68-.134c-.76-.024-1.517-.098-2.267-.222a3.13 3.13 0 0 0-.928-.044 3.13 3.13 0 0 1-.928-.044q-2.267-.178-4.432-.266-2.165-.088-4.422-.267-1.649-.088-2.886-.088c-.828 0-1.655-.06-2.474-.178q-3.916 0-7.73-.088-3.814-.088-7.73-.266l-12.471-.178q-6.287-.088-12.883-.088h-1.958q-.928 0-1.958.088h-2.061q-1.031 0-2.061-.088-2.68-.088-5.256-.134-2.576-.046-5.256.044h-5.462q-2.577 0-5.462.088-4.535.088-8.76.178-4.225.09-8.554.088-2.886.088-5.875.088-2.989 0-5.875.088-1.443.088-2.886.134-1.443.046-3.092.044-4.741.178-9.791.312-5.05.134-9.791.312-2.267.088-4.329.088-2.062 0-4.329.18-4.329.266-8.863.49-4.534.224-9.276.49-1.237.088-2.68.134c-.898.025-1.793.1-2.683.224q-2.68.178-5.462.312-2.782.134-5.668.4-2.474.266-4.741.312-2.267.046-4.741.044-1.031-.088-1.958-.134c-.662-.037-1.318-.141-1.958-.312a12.5 12.5 0 0 0-1.443-.312q-.825-.134-1.856-.31-2.886.356-6.39.666-3.504.31-6.8.845a26.71 26.71 0 0 1-2.886.356 20.76 20.76 0 0 1-9.482-.889Q.232 11.964.026 11.252-.18 10.54 1.263 9.919q0-.266.825-.266a13.04 13.04 0 0 0 2.886-.444c.945-.26 1.911-.439 2.886-.535q3.092-.266 6.184-.8 1.649-.178 3.3-.312 1.651-.134 3.5-.312 4.123-.354 8.039-.712 3.916-.358 8.039-.622 9.478-.8 18.758-1.338 2.68-.178 5.153-.356 2.473-.178 4.741-.356 2.474-.178 5.05-.356 2.576-.178 5.256-.268h1.34a4.83 4.83 0 0 0 1.34-.178q2.267-.178 4.329-.222 2.062-.044 4.329-.134c.751-.119 1.516-.119 2.267 0a3.46 3.46 0 0 0 1.031-.088 6.01 6.01 0 0 1 2.37-.266c.928.059 1.86.029 2.783-.088q1.649 0 2.474.088a1.31 1.31 0 0 1 .185.011c.105-.049.216-.082.33-.1.174-.017.346-.046.515-.088.965-.237 1.981-.144 2.886.266q.412-.088 1.031-.178l1.237-.178q.412 0 1.031.044a5.76 5.76 0 0 0 1.237-.044q2.886-.088 5.772-.044a53.83 53.83 0 0 0 5.772-.222c.444-.061.892-.09 1.34-.088h1.34a4.43 4.43 0 0 1 .821-.258l.825-.178a15.18 15.18 0 0 1 1.855.444 3.03 3.03 0 0 1 1.031-.534 4.04 4.04 0 0 1 1.443-.178 6.16 6.16 0 0 1 1.649.178 5.05 5.05 0 0 0 2.267.268q1.855-.088 3.813-.134 1.958-.046 3.607-.139 1.031 0 2.164-.044 1.133-.044 2.37-.044-.206-.088.412-.534h3.092q.412 0 .309.266-.103.266.928 0c.479-.06.964-.06 1.443 0 1.781.18 3.573.209 5.359.088a21.47 21.47 0 0 1 6.8.178c.357-.097.702-.231 1.031-.4q.412-.222.825-.4c.048.018.094.042.137.07z"/></svg>