<svg xmlns="http://www.w3.org/2000/svg" width="6392" height="2158" xmlns:v="https://vecta.io/nano"><path d="M0 0h6392v2158H0V0z" fill="#e7e7e7"/><path d="M6283 1156c5.537 5.894 5.148 12.41 5.177 20.135l.02 2.368.041 7.688.012 2.666.045 13.948.085 14.381.038 11.09.035 5.302.016 7.416.039 2.196c-.054 5.251-1.361 7.816-4.509 11.809l-2-1c-.391-2.063-.507-4.094-.656-6.187L6281 1246l-2-1 .625-2.125c.593-2.899.593-2.899-.562-5.633-1.834-5.597-1.797-11.391-2.062-17.242l-.129-2.781c-.124-5.204.503-9.924 1.691-14.992.566-2.503.566-2.503.438-6.227l-2 4c-.093-5.821.042-11.253 1-17l-.187-5.25c-.07-5.162 1.125-8.846 3.23-13.512 1.157-2.705 1.65-5.32 1.957-8.238z" fill="#ababab"/><path d="M6281 1165h1l-.007 1.655-.048 17.132-.021 6.384-.022 9.205-.016 2.858c0 5.361.388 10.458 1.113 15.767.192 3.917.185 7.829.188 11.75l.037 3.113.006 2.996.012 2.702c-.257 2.584-.937 4.215-2.243 6.438h-2l.625-2.125c.593-2.899.593-2.899-.562-5.633-1.834-5.597-1.797-11.391-2.062-17.242l-.129-2.781c-.124-5.204.503-9.924 1.691-14.992.566-2.503.566-2.503.438-6.227l-2 4c-.093-5.821.042-11.253 1-17l-.125-5.437c-.068-5.001.784-8.173 3.125-12.562z" fill="#898989"/><path d="M6285 1159c4.199 4.199 3.156 11.475 3.177 17.135l.02 2.368.041 7.688.012 2.666.045 13.948.085 14.381.038 11.09.035 5.302.016 7.416.039 2.196c-.054 5.251-1.361 7.816-4.509 11.809l-2-1 .647-2.005c2.472-8.545 2.753-16.496 2.634-25.304l-.047-6.956c-.029-8.816-.029-8.816-.777-17.594-.964-8.189-.287-16.545-.02-24.766l.158-5.355.404-13.02z" fill="#c2c2c2"/><path d="M6287 1157c3.573 5.36 3.149 11.614 3.145 17.888l.01 2.289.013 7.436.01 5.212.007 10.906.031 13.909.013 10.761.013 5.125c.084 20.235.084 20.235-2.242 25.474-2.077 1.754-2.077 1.754-4 3 1.875-7.75 1.875-7.75 3-10 .098-2.51.136-4.993.129-7.504l.005-2.346-.002-7.712.003-5.368-.005-11.278.004-14.391v-11.103l.002-5.301c.055-11.067.055-11.067-.707-22.099L6286 1158l1-1z" fill="#d9d9d9"/><path d="M6292 1164c1.215 3.646 1.132 6.982 1.114 10.776v2.395l-.016 7.84-.004 5.435-.025 14.308-.02 14.599L6293 1248h-3v-41h-1l.8-17.889.271-6.091.395-8.735.117-2.768c.304-6.403.304-6.403 1.418-7.517z" fill="#ededed"/><path d="M6281 1165h1v51h-1c-.981-4.247-1.309-8.473-1.562-12.812l-.131-2.1L6279 1196l-2 4c-.093-5.821.042-11.253 1-17l-.125-5.437c-.068-5.001.784-8.173 3.125-12.562z" fill="#979797"/><path d="M6287 1168h1l.207 31.372.095 14.568.078 14.064.043 5.361.031 7.519.044 2.23c-.042 5.291-1.319 7.869-4.498 11.887l-2-1 3-12h2v-74z" fill="#ccc"/><path d="M6288 1212h1l.275 17.67.103 6.009.111 8.646.078 2.706c.002 4.242-.011 6.966-3.097 10.075L6284 1259c1.875-7.75 1.875-7.75 3-10a231.78 231.78 0 0 0 .316-8.289l.063-2.48.183-7.856.131-5.32L6288 1212z" fill="#d3d3d3"/><path d="M6278 1209c2.298 3.446 2.236 4.711 2.195 8.762l-.02 3.389-.051 3.537-.027 3.572-.098 8.74-2-1-.625-7.437-.113-2.188c-.588-12.145-.588-12.145-.262-16.375l1-1z" fill="#777"/><path d="M6279 1170h1l.125 11.625.051 3.316c.061 10.039.061 10.039-2.176 15.059h-1c-.093-5.821.042-11.253 1-17 .033-2.873 0-5.737-.062-8.609C6278 1172 6278 1172 6279 1170z" fill="#898989"/><path d="M6282 1218h1l.125 11.25.051 3.223.02 3.105.032 2.856c-.236 2.665-.87 4.284-2.227 6.565h-2c.506-2.169 1-4 2-6a90.83 90.83 0 0 0 .316-4.789l.127-2.852.119-2.984.131-3.008.307-7.367z" fill="#949494"/><path d="M6285 1242h1l.188 5.375.105 3.023L6286 1253l-3 2c0-3.272.265-5.626 1-8.75l.563-2.422.438-1.828z" fill="#bfbfbf"/><path d="M4075 405l2 2-4 2 2-4z" fill="#979797"/></svg>