<svg xmlns="http://www.w3.org/2000/svg" width="512" height="318" xmlns:v="https://vecta.io/nano"><defs><clipPath id="A"><path d="M0 0h512v318H0z"/></clipPath></defs><g clip-path="url(#A)"><path d="M60.6 2.963H31.511l-16.7 3.771-8.888 9.7-4.846 28.813V80.8l1.078 207.113 5.925 17.775 10.235 8.08 24.778 2.155H209l273.908.269L500.683 310l8.349-13.466v-7.811l.808-256.67-3.5-16.16-7.811-8.619-12.39-4.311H60.6z" fill="#fff"/><path d="M481.873 5.002c13.867.012 25.108 11.247 25.127 25.114v257.772c-.019 13.867-11.26 25.102-25.127 25.114H30.127C16.26 312.99 5.019 301.755 5 287.888V30.112c.021-13.866 11.261-25.098 25.127-25.11h451.746m0-5H30.127C13.493-.002.005 13.478 0 30.112v257.776a30.12 30.12 0 0 0 30.127 30.114h451.746A30.12 30.12 0 0 0 512 287.89V30.112c-.005-16.634-13.493-30.114-30.127-30.11z" fill="#d5d5dd"/><g fill="#005098"><path d="M190.016 222.902L211.665 95.82h34.653L224.63 222.902zM350.277 98.954a89.4 89.4 0 0 0-31.049-5.339c-34.226 0-58.336 17.234-58.549 41.94-.193 18.256 17.21 28.451 30.351 34.527 13.489 6.231 18.023 10.2 17.966 15.767-.1 8.518-10.775 12.4-20.737 12.4-13.857 0-21.222-1.918-32.6-6.667l-4.458-2.016-4.865 28.455c8.082 3.546 23.043 6.618 38.587 6.772 36.417 0 60.042-17.035 60.313-43.423.136-14.447-9.089-25.446-29.071-34.522-12.113-5.882-19.535-9.8-19.458-15.757 0-5.281 6.279-10.93 19.846-10.93a63.71 63.71 0 0 1 25.912 4.869l3.121 1.468 4.689-27.544zm88.823-3.008h-26.764c-8.3 0-14.5 2.262-18.14 10.538l-51.44 116.47h36.38l7.287-19.1 44.363.059 4.206 19.041h32.152L439.1 95.946zm-42.716 81.918l13.8-35.53c-.194.339 2.849-7.36 4.593-12.132l2.346 10.959 8.022 36.7zm-235.42-81.948l-33.917 86.667-3.624-17.607c-6.3-20.312-25.971-42.309-47.968-53.317l31.009 111.149 36.649-.048 54.538-126.844h-36.687z"/></g><path d="M95.592 95.839H39.717l-.426 2.641c43.452 10.523 72.213 35.946 84.133 66.5l-12.133-58.41c-2.093-8.048-8.179-10.446-15.7-10.727z" fill="#f6a500"/></g></svg>