<svg xmlns="http://www.w3.org/2000/svg" width="451" height="230" xmlns:v="https://vecta.io/nano"><path d="M0 0h451v230H0V0z" fill="#fefefe"/><path d="M108 132c-6.578 14.679-14.697 25.69-29.969 32.281-12.78 4.81-27.448 6.071-40.363.977C26.782 160.126 14.968 152.492 10 141c.141-2.156.141-2.156 1-4 6.752-3.501 14.07-4.357 21.469-2.32l2.406.82c7.469 2.482 15.634 3.064 22.813-.5l2.141-1.094c4.823-2.012 9.86-1.764 14.711.035l2.523 1.121c5.972 2.618 10.434 2.28 16.477-.035a124.93 124.93 0 0 0 4.906-2.187c3.257-1.071 6.15-.969 9.555-.84z" fill="#2382c4"/><path d="M375.875 76.375l2.407.023c7.694.291 12.059 2.697 17.288 8.278 5.66 7.034 6.181 15.633 5.43 24.324-1.223 7.528-4.149 13.05-10 18-6.477 4.401-13.352 4.98-21 4-7.983-1.98-12.849-6.921-17.098-13.77-3.32-7.089-3.133-16.561-1.176-23.988 4.551-10.915 12.255-17.037 24.148-16.867z" fill="#2483c5"/><path d="M266 77h40v11h-26v9h22v11h-22v11h25v11h-39V77z" fill="#2985c6"/><path d="M186 77h13l15.021 37.565 2.111 5.159 1.111 2.696 1.019 2.441C219 127 219 127 219 130h-13l-3-10-21 1-3 9h-14c2.851-8.078 5.781-16.064 9-24l1.334-3.294L179.688 92l1.51-3.715 1.439-3.535 1.303-3.203c.639-1.536 1.316-3.059 2.06-4.547z" fill="#2483c5"/><path d="M119 64h15l5.127 11.426 1.746 3.888 2.502 5.585 1.523 3.396C146 91 146 91 146 93h2l.344-2.141c.715-3.112 1.814-5.703 3.16-8.597l1.494-3.232 1.564-3.342 1.576-3.4L160 64h15c-1.642 4.927-3.53 8.938-6.098 13.363C158.886 95.165 151.95 109.012 154 130h-14l.203-4.625c.282-16.386-3.479-27.647-11.663-41.721-1.826-3.146-3.543-6.339-5.243-9.554l-2.969-5.467C119 66 119 66 119 64z" fill="#2281c4"/><path d="M74 103l3 3c2.386.972 2.386.972 5.063 1.75 5.956 2.062 11.313 4.911 15.938 9.25.875 2.004.875 2.004 1 4-2.255 4.769-4.724 8.793-9 12-3.016.686-4.819.454-8 0-2.5-2-2.5-2-4-4v3l-4-1-.062-2.312c-.725-3.006-.725-3.006-4-4.5-4.044-1.493-7.666-1.412-11.937-1.187 1.613 2.712 3.249 5.374 5 8-8.423 4.632-17.206 6.626-26.562 4L34 134v-3h-5v-2l3-1-4-4 6 2v-2h2l-4-6c-2.867.031-2.867.031-6 1-2.49 3.112-4.333 6.388-6 10-.63-5.164.714-7.613 3.711-11.582 2.055-2.261 3.484-2.452 6.539-2.98 4.33.65 4.693 1.204 7.188 4.563.877 1.319 1.739 2.648 2.563 4l5-1-1.531-1.426-1.969-1.887-1.969-1.863C38 115 38 115 38 112c6.877-2.42 13.845-4.382 20.878-6.286C69.895 102.712 69.895 102.712 74 103z" fill="#66676b"/><path d="M223 77h14v42h24v11h-38V77z" fill="#308ac8"/><path d="M311 77h13v42h24v11h-37V77z" fill="#2784c5"/><path d="M379 87c3.675 1.67 5.908 3.549 8 7 1.994 6.422 1.837 13.9-1 20-3.31 4.655-3.31 4.655-6 6-6.813.681-6.813.681-9.824-1.047-2.164-1.782-3.914-3.429-5.176-5.953-.152-2.764-.231-5.485-.25-8.25l-.062-2.277c-.04-5.755 1.004-9.999 5.063-14.348 3.257-1.628 5.656-1.503 9.25-1.125z" fill="#fafcfd"/><path d="M75 105c8.299 2.823 16.55 5.84 23 12 .867 2 .867 2 1 4-2.255 4.769-4.724 8.793-9 12-3.016.686-4.819.454-8 0-2.5-2-2.5-2-4-4v3l-4-1-.062-2.312c-.72-3.019-.72-3.019-4.062-4.437-3.557-1.304-7.106-1.865-10.875-2.25v-2h4l-1-4 3 1 1-2h4l-3-7 5-1v2h-2l2 4h3l-1-3 1-2-2-1h2v-2z" fill="#626367"/><path d="M73 93c4.706 3.776 8 7.249 10 13-2.312-.25-2.312-.25-5-1l-1.312-2.062c-1.646-2.306-1.646-2.306-5.125-2.5-4.82.236-8.71 2.23-13.055 4.191-4.828 1.887-9.743 2.968-14.808 4.026-3.435.733-5.739 1.371-8.699 3.345-2.687.125-2.687.125-5 0 1.072-7.61 6.112-13.842 12.063-18.5C51.606 87.053 63.115 87.135 73 93z" fill="#fcb815"/><path d="M30.625 117c2.837 1.195 3.851 2.353 5.375 5v2h-2v2h-3l3 3h-5v2h5v3c10.39 2.131 18.616.85 28-4l-5-6 1-2c5.937-.312 9.773.073 15 3 1.438 2.188 1.438 2.188 2 4-1 1-1 1-2.848 1.098L66 130v2l3 1-1.723.332c-3.814.783-7.02 1.539-10.527 3.293-8.111 2.974-16.37 1.894-24.383-.891C28.615 134.57 24.906 134.315 21 134v-1l6-1-7-2c1.187-4.516 2.2-8.116 5.375-11.625C28 117 28 117 30.625 117z" fill="#e9eff4"/><path d="M182 145h7l3 10 4-10h7v21h-6v-10l-3 10-4-1-2-7-1 8h-5v-21z" fill="#2885c6"/><path d="M207 145c10.625-.25 10.625-.25 14 2 .258 2.129.258 2.129.125 4.563A100.8 100.8 0 0 0 221 156l1 1c-.25 3.438-.25 3.438-1 7-4.566 3.044-8.567 2.128-14 2v-21z" fill="#4394cd"/><path d="M383 145h5v8h6v-8h5v21h-6v-8h-5v8h-5v-21z" fill="#64a7d6"/><path d="M141 140h16c0 5.625 0 5.625-1.969 8.988l-1.23 2.139-1.301 2.186-1.301 2.244L148 161h10v5h-17c1.125-6.75 1.125-6.75 3.066-10.086l1.221-2.129 1.275-2.16 1.287-2.23L151 144h-10v-4z" fill="#2f88c7"/><path d="M311 77h13l-1 42h-1V79h-10v49h34v-7h-22v-1h24v10h-37V77z" fill="#1479c0"/><path d="M51 61h12l-.437 8.188-.119 2.33C62.225 75.433 61.913 79.171 61 83h-8c-2.296-14.597-2.296-14.597-2-22z" fill="#fbb710"/><path d="M295 140h3l-1 7h2l1-7h3l-1 7h2v3h-4v4l2 1v3h-4l-2 8h-3c.875-5.75.875-5.75 2-8l-2 1-2 7h-3c.875-5.75.875-5.75 2-8h-3v-3h4l1-5h-2v-3l3-1c1.225-3.008 1.225-3.008 2-6z" fill="#217fc3"/><path d="M241 145h5c3.38 6.794 5.349 13.607 7 21h-5l-1-3h-6l-1 3h-5c1.7-7.126 3.579-14.083 6-21z" fill="#2784c5"/><path d="M167 145h5l3 8 1.09 2.91 1.098 2.965 1.043 2.805C179 164 179 164 179 166h-5l-1-4h-7v4h-5c1.444-7.219 3.578-14.051 6-21z" fill="#2885c5"/><path d="M224 78h12v41h-1V79h-10v49h34v-7h-22v-1h24v10h-37V78z" fill="#0e75be"/><path d="M336 140h14v4h-9v7h8v4h-7v11h-6v-26z" fill="#388eca"/><path d="M21.927 75.241c2.421.886 3.282 1.772 4.87 3.779l1.465 1.85 1.488 1.943 1.535 1.908C35 89.492 35 89.492 35 94l-2 3c-2.843-1.312-5.094-2.767-7.453-4.82l-1.875-1.621-1.922-1.684-1.969-1.707L15 83c3.157-8.23 3.157-8.23 6.927-7.759z" fill="#fbb815"/><path d="M41 64l.586 2.449.789 3.238.773 3.199c.78 3.085.78 3.085 1.945 5.832 1.022 2.573 1.063 4.538.906 7.281l-5 2-3.875-6.75-1.105-1.922C31 70.567 31 70.567 31 67c3.73-2.034 5.669-3 10-3z" fill="#f37f1f"/><path d="M7 93c4.96.616 8.937 2.798 13.313 5.063l2.244 1.143L28 102l-2 6c-6.86-.66-13.344-2.236-20-4-1.065-4.372-.664-6.79 1-11z" fill="#f38224"/><path d="M375 145c1.938 1.313 1.938 1.313 3 3v3h-5v-2c-3.118.646-3.118.646-4 3l3.375.875C376 154 376 154 378 156c.546 6.005.546 6.005-1.062 8.938-3.103 1.702-5.475 1.488-8.937 1.063-2.437-1.812-2.437-1.812-4-4v-3h5l1 2h3v-2l-2.875-1.375C367 156 367 156 365 154c-.312-3.5-.312-3.5 0-7 3.695-2.463 5.633-2.39 10-2z" fill="#2180c3"/><path d="M270 145l3 2v4l-8-1c1.503 3.007 4.042 3.583 7 5 1 1 1 1 1.25 4.375-.25 3.625-.25 3.625-1.312 5.563-3.103 1.702-5.475 1.488-8.937 1.063-2.437-1.812-2.437-1.812-4-4v-3h5l1 2h3v-2l-2.875-1.375C262 156 262 156 260 154c-.327-3.071-.481-5.151 1.063-7.875 3.012-1.749 5.533-1.429 8.938-1.125z" fill="#1d7dc2"/><path d="M73 64c4.306.615 5.984 1.591 10 4l-9 19-7-2c1.101-6.319 2.599-12.051 5-18l1-3z" fill="#f37f20"/><path d="M106 92c3.348 6.964 3.348 6.964 2 11l-7.812 2-2.236.578C94.895 106.353 92.166 107 89 107l-1-7 7.875-4 2.262-1.156 2.168-1.094 2-1.016C104 92 104 92 106 92z" fill="#f38326"/><path d="M92 74l2.938 2.25 1.652 1.266C98 79 98 79 99 83L85 95c-4-2-4-2-4.908-3.896-.122-2.794.658-3.651 2.435-5.776l1.65-2.012 1.76-2.066 1.748-2.113L92 74z" fill="#fbb713"/><path d="M321 140l-1.375 10.188-.383 2.908-.391 2.822-.349 2.587c-.538 2.671-1.42 5-2.502 7.495h-5l1.438-8.875.408-2.551.4-2.441.365-2.253C314 148 314 148 315 146l-5 2c.063-2.312.063-2.312 1-5 3.501-1.88 6.008-3 10-3z" fill="#2d87c7"/><path d="M74 104v2l-8 1v2l-11 3 1 1v2h-2l-1 3h-3l1 2c-2.187.813-2.187.813-5 1-2.875-2.187-2.875-2.187-5-5 .367-2.176.367-2.176 1-4l1.956-.519 8.794-2.356 3.078-.816 2.969-.801 2.729-.73c2.468-.7 2.468-.7 4.596-1.864 2.645-1.287 4.982-1.045 7.878-.914z" fill="#c0c1c2"/><path d="M196 145h7v21h-6v-10h-2c-1.026-4.411-1.037-6.926 1-11z" fill="#328ac8"/><path d="M4 114h19c-5 8-5 8-7 9-2.037.229-4.08.41-6.125.563l-3.32.254L4 124v-10z" fill="#fcb610"/><path d="M30.625 117c2.837 1.195 3.851 2.353 5.375 5v2h-2v2h-3l3 3h-5v2h-8c-1-2-1-2-.617-3.805C22.251 121.984 24.309 117 30.625 117z" fill="#b9babc"/><path d="M226 145h6v21h-6v-21z" fill="#3c8fca"/><path d="M192 93c2.17 3.254 3.361 6.525 4.625 10.188l.695 1.982L199 110h-13c1.689-5.871 3.464-11.444 6-17z" fill="#f5f9fc"/><path d="M208 146h9v1h-8v17l7-3c-.267-1.985-.267-1.985-1-4l-3-1v-2l1.875-.312c2.49-.563 2.49-.563 4.125-3.687v2h2l1-3-.062 3.438c-.353 3.378-.353 3.378 1.063 4.563-.72 6.72-.72 6.72-2 8-4.002.144-7.994.042-12 0v-19z" fill="#1177bf"/><path d="M58 122c5.937-.312 9.773.073 15 3 1.438 2.188 1.438 2.188 2 4-2.223 2.223-6.209 2.002-9.187 2.277-3.42-.337-4.326-1.117-6.5-3.715C58.505 126.4 57.72 125.219 57 124l1-2z" fill="#bdbec0"/><path d="M394 145h4v20h-4v-8h-6v-3h6v-9z" fill="#0e75bf"/><path d="M141 140h16c0 5 0 5-1.875 7.313C153 149 153 149 151 149c-1.637 1.96-1.637 1.96-3 4 .587-3.521 1.356-5.713 3-9h-10v-4z" fill="#1b7dc2"/><path d="M110 109v9c-3.485.427-6.019.648-9.023-1.336L96 112c4.588-3.059 8.567-3.126 14-3z" fill="#fcb715"/><path d="M212 149h4v5h-4v2l4 1c.934 3.01 1.044 3.867 0 7h-7v-10l2-1c.652-2.025.652-2.025 1-4z" fill="#62a6d5"/><path d="M355 145h4v20h-4v-20z" fill="#1176be"/><path d="M271 156c1.231 5.415 1.231 5.415.063 8.375L270 166c-6.344.488-6.344.488-9.437-1.812C259 162 259 162 259 159h5l1 2h3v-2l-5-2v-1c3.287-.8 4.71-1.097 8 0z" fill="#2382c4"/><path d="M337 140h13v4h-9v-2h-3v22h2v-9h1v10h-4v-25z" fill="#0c74be"/><path d="M74 103v1l-3.25.75c-3.571.886-7.021 1.993-10.5 3.188-6.006 2.045-12.076 3.617-18.25 5.063.586 3.098 1.476 4.896 3.563 7.25L48 123c-4.093-1.574-7.36-4.541-10-8v-3c6.877-2.42 13.845-4.382 20.878-6.286C69.167 102.91 69.167 102.91 74 103z" fill="#636468"/><path d="M295 140h3l-1 7h2l1-7h3l-1 7h2v3h-4v2h-2v-2l-3-1-1-1c.176-2.691.618-5.329 1-8z" fill="#207fc3"/><path d="M74 104v2l-8 1v2l-11 3 1 1v2h-8v-2h2l-1-3 3.141-.805 4.109-1.07 2.066-.527C72.33 103.924 72.33 103.924 74 104z" fill="#babbbc"/><path d="M167 145h5c2.221 5.306 2.221 5.306 1.125 8.75L172 156v2h-4v-6l-3 1c.875-5.75.875-5.75 2-8z" fill="#2683c5"/><path d="M293 146l1 2 4 2v2h2l-1 2-2-1 1 3c-2.521 1.26-3.854.919-6.625.563l-2.477-.309L287 156l4-1 1-5h-2v-3l3-1z" fill="#2a85c6"/><path d="M34 115c2.421 2.411 4.226 5.089 6 8l-1 2-2-1v-2h-2l-3-4c-2.867.031-2.867.031-6 1-2.49 3.112-4.333 6.388-6 10-.63-5.164.714-7.613 3.711-11.582 2.95-3.245 6.149-3.039 10.289-2.418z" fill="#626367"/><path d="M383 145h4v8h-1v5h1v7h-4v-20z" fill="#1378c0"/><path d="M16 127v5c-5.625 3-5.625 3-9 3l-1-5c3.73-2.034 5.669-3 10-3z" fill="#2481c4"/><path d="M75 100l5 5h4l-1 3c-6.75-1.75-6.75-1.75-9-4-3.694-.201-6.479-.174-10 1 .375-1.937.375-1.937 1-4 3.21-1.605 6.528-1.629 10-1z" fill="#ece9e0"/><path d="M63 102l2 1c-2.272 2.618-4.036 3.543-7.379 4.387l-2.541.654-2.643.646-2.654.682C43.344 111 43.344 111 41 111v-3l3.543-.805 4.645-1.07 2.33-.527c3.266-.757 6.297-1.522 9.408-2.793L63 102z" fill="#f7f4ed"/><path d="M61 123c8.035-.63 8.035-.63 12.063 2L75 127l-1 3-3.937-.875-2.215-.492C66 128 66 128 65 126c-2.017-1.134-2.017-1.134-4-2v-1z" fill="#929396"/><path d="M105.313 123.625L108 124l1 5-4.312.5-2.426.281C100 130 100 130 97 130c4.185-5.908 4.185-5.908 8.313-6.375z" fill="#1e7ec2"/><path d="M27 131h7v3h3l1 3-3.437-.937c-4.487-1.132-8.96-1.658-13.562-2.062v-1l6-1v-1z" fill="#d3e0e9"/><path d="M240 148l1 2c2.025.652 2.025.652 4 1l1 7h-4l-1-3-2-1 1-6z" fill="#6eadd8"/><path d="M49 110c-2.332 1.206-4.496 2.165-7 3 .505 4.379 3.178 6.817 6 10-4.093-1.574-7.36-4.541-10-8v-3c3.83-1.802 6.781-2.196 11-2z" fill="#57585c"/><path d="M238 154l4 1v5h5v1l-3.312-.062c-3.631-.123-3.631-.123-6.687 1.063l1-8z" fill="#1a7dc2"/><path d="M30.5 117.125c2.982 1.044 3.875 2.223 5.5 4.875l-1 2-5-4-7 3c1.611-3.719 3.051-6.097 7.5-5.875z" fill="#c1c2c4"/><path d="M253 140h4c-.312 3.375-.312 3.375-1 7l-3 2c-1.159-3.478-.708-5.459 0-9z" fill="#1f7ec2"/><path d="M247 161v1l-6 1-1 3h-5l1-5c3.818-1.374 7.073-.68 11 0z" fill="#358bc9"/><path d="M217 126l2 1v3h-13l1-3 10 1v-2z" fill="#197cc1"/><path d="M37 135h15l-2 3c-2.277.398-2.277.398-4.937.375l-2.652.023C40 138 40 138 37 135z" fill="#f2f7fa"/><path d="M29 115c2.293-.25 2.293-.25 5 0 1.801 1.75 1.801 1.75 3.313 4l1.551 2.25L40 123l-1 2-2-1v-2h-2c-3-3.462-3-3.462-3-6l-3-1z" fill="#56575b"/><path d="M161 64h14l-1 3-13-1v-2z" fill="#187bc1"/><path d="M209 147h6l1 2h-4l-1 5h-2v-7z" fill="#1d7fc3"/><path d="M163 159l1 2h2v5h-5c.875-5.875.875-5.875 2-7z" fill="#2884c5"/><path d="M173 151c2.517 2.517 3.11 4.576 4 8-.375 2.375-.375 2.375-1 4l-1-6-3 1-1-6 2-1z" fill="#1076bf"/><path d="M44 113h2l5 6c-1.75.75-1.75.75-4 1-2.25-1.937-2.25-1.937-4-4l1-3z" fill="#b7b8ba"/><path d="M219 154c1.563 1.063 1.563 1.063 3 3-.312 3.688-.312 3.688-1 7l-3 1v-2h2l-3-7h2v-2z" fill="#3289c8"/><path d="M373 158v4l-4-1v-2h-5c3.351-2.11 5.221-2.05 9-1z" fill="#eff6fa"/><path d="M295 151h2l1 5c-2.521 1.26-3.854.919-6.625.563l-2.477-.309L287 156l1.938-.375L291 155l1-2h2l1-2z" fill="#7eb6dd"/><path d="M301 146l3 1v3h-4v2h-2v-2l-3-1c1-1 1-1 3.563-1.062L301 148v-2z" fill="#177ac0"/><path d="M269 159l-1 3-4-1v-2h-5v-1c4.054-1.158 6.218-.837 10 1z" fill="#f0f6fb"/><path d="M396 153h1v11h-2l-.625-4.375-.352-2.461L394 155l2-2z" fill="#2282c4"/><path d="M387 145h1v8h6v1c-6.75 1.125-6.75 1.125-9 0v-7l2-2z" fill="#4797ce"/><path d="M151 151l1 2c-.777 1.727-.777 1.727-1.937 3.625L148 160l-3-1 1-5 1 2h2l2-5z" fill="#1779c0"/><path d="M317 143c-2.363 2.526-3.665 3.888-7 5l1-5c2.491-1.245 3.411-.777 6 0z" fill="#2381c4"/><path d="M102 124c3.125-.187 3.125-.187 6 0l1 3h-9l2-3z" fill="#3289c8"/><path d="M370 149h3v2h5l1-2v3c-7.75 1.125-7.75 1.125-10 0l1-3z" fill="#deecf6"/><path d="M265 149l4 1 2.25.563L273 151l1-2v3l-8 1-2-3 1-1z" fill="#ddebf5"/><path d="M66 130v2l3 1-10 2-1-3c5.75-2 5.75-2 8-2z" fill="#dce4ea"/><path d="M74 121c1.963 3.505 2.959 7.134 4 11l-4-1c-1.125-6.625-1.125-6.625 0-10z" fill="#57585c"/><path d="M49 110h2v2l5 1v2h-8v-2h2l-1-3z" fill="#a1a2a5"/><path d="M290 159h2l-1 7h-3c.875-5.875.875-5.875 2-7z" fill="#2983c5"/><path d="M220 149h1v5h-2l-1 2-1-1c-1.666-.041-3.334-.043-5 0l1.875-.812c2.425-1.143 2.425-1.143 4.125-4.187v2h2v-3z" fill="#0f75be"/><path d="M74 108l1 2-1 2 2 1-4 2c-2-3-2-3-2-6l2 1 1-1 1-1z" fill="#88898c"/><path d="M287 156h9l-3 3c-3.187-.312-3.187-.312-6-1v-2z" fill="#1177bf"/><path d="M241 147c3 0 3 0 4.75 1.25 1.25 1.75 1.25 1.75.938 3.938L246 154l-1-3c-2.015-.733-2.015-.733-4-1v-3z" fill="#1b7dc2"/><path d="M212 157l5 1v3h-5v-4z" fill="#edf5fa"/><path d="M388 154h7l-1 3h-6v-3z" fill="#0e76bf"/><path d="M194 153c2 3 2 3 1.625 6.188L195 162c-2.148-3.222-2.294-4.278-2-8l1-1z" fill="#1c7ec2"/><path d="M271 156l1 4-9-3v-1c3.287-.8 4.71-1.097 8 0z" fill="#2e88c7"/><path d="M296 139l4 1-1 7h-2l1-7-2-1z" fill="#deecf6"/><path d="M169 152h2l1 6h-4l1-6z" fill="#c6def0"/><path d="M194 150l1 2h4v3l-4 1-1-6z" fill="#3c90cb"/><path d="M76 123c1.943 2.914 3.464 5.858 5 9l-3 1c-1.604-3.508-2.22-6.144-2-10z" fill="#dbdbdb"/><path d="M72 107v2h-2l1 7c-1.777-2.666-2.875-5.028-4-8 2-1 2-1 5-1z" fill="#5a5b5f"/></svg>